<?xml version="1.0" encoding="UTF-8"?>
<svg id="Layer_2" data-name="Layer 2" xmlns="http://www.w3.org/2000/svg" viewBox="0 0 702.94 676.3">
  <defs>
    <style>
      .cls-1 {
        fill: #c0bebe;
      }
    </style>
  </defs>
  <g id="Layer_1-2" data-name="Layer 1">
    <g id="YtwPYP.tif">
      <g>
        <path class="cls-1" d="M448.84,108.54c.1-.07-.02-1.7.95-2.34,1.33-.88,3.67-.25,4.75-1.96l-4.75-1.42.42-3.86c.88-1.29,6.92-1.15,8.67-.93,4.04.49,5.13,3.45.42,2.9l.84,7.49c-2.42-.05-5.73,2.52-7.29,2.81-1.87.35-3.11-1.56-5.39-1.8-10.08-1.06-33.69-.41-43.88.95-3.63.49-4.56,3.42-7.13,4.29-3.33,1.13-6.98.29-10.42.51-.74-3.82,5.06-.36,6.65-3.33-15.96-.65-31.94,4.19-46.63,9.99l10.43-8.2-1.44-5.14,11.95-4.74c-.76-2.13-8.25-1.24-9.98-.93-5.68,1.03-14.14,18.84-16.19,19-2.18.17-.01-5.35.43-5.97.76-1.08,2.53-1.37,3.41-2.51,4.69-6.06,8.51-8.9,12.83-13.84,6.89-7.89.57-20.23-2.23-28.24-.97-2.77.19-7.22-3.21-8.21-4.58-1.34-14.5-.36-19.67-1.26-33.17-7.17-66.17-13.7-99.52-21.34-22.16-5.08-44.02-9.48-66.1-13.84-19.01-3.76-36.15-10.72-55.23-13.29-13.13-1.77-31-6.21-43.84-6.41-3.18-.05-7.12,3.1-6.19-2.09,3.51-1.37,7.05.04,9.9-.1C88.44,3.9,111.48-.42,127.59.03c5.91.17,14.02,3.78,20.11,4.72,16.26,2.51,36.02,1.53,51.26,3.94,3.67.58,8.49,3.76,13.48,4.6,27.39,4.64,56.31,5.39,84.36,10.81,27.65,5.34,46.32,14.08,75.27,15.06,13.83.47,31.29,7.9,44.99,9.34,17.92,1.89,41.59-2.27,58.26,1.7,13.27,3.16,20.39,16.84,33.45,20.79,18.73,5.66,15.22,6.67,29.59,17.04,2.07,1.49,12.32,6.57,13.02,7.44.67.82.6,3.04,1.68,4.51,2.92,3.99,8.27,7.66,11.55,13.2,8.06,13.61,4.74,26.16,9.81,40.63.94,2.7,5.49,6.24,1.01,7.55l2.85,1.43.94-1.89c.77,3.28,8.82,11.39,12.21,9.34.47-.29,2.24-4.69,4.92-4.59l-1.4,3.83-6.2,6.62c3.66,1.94,6.51.02,9.95-.03,6.15-.09,13.03-.31,19.11,0,18.54.95,33.55,5.09,50.62,11.24,5.41,1.95,4.77,7.11,7.2,9.45.62.6,2.29.48,3.56,1.65,2.08,1.93,1.91,6.17,5.68,5.29.32,2.5-2.07,2.16-3.15,4.06-1.47,2.59-3.35,8.14-3.5,11.16,2.08-.58,2.24-3.21,4.03-4.12,1.04-.53,4.65-1.43,3.57.78-2.41,2.44-7.34,2.65-6.65,7.14l8.29,2.72,1.68-.79,5.2-8.96-6.59-3.44c-.08-1.56-.46-2.13,1.41-1.89,3.59.45,6.77,5.54,10.52,6.63l-3.36,2.39c1.07,2.65,4.1.05,4.71.49.19.14,1.95,4.05,1.95,4.28v13.8l-2.84-4.76-.94,5.69,2.84,1.44-5.3,9.91-4.22-.88c-.19-3.15,2.25-5.87,2.01-9.03-.04-.59-2.97-3.91-3.2-4.02-.7-.34-12.59-.41-14.37-.2-7.34.88-40.89,15.23-45.41,20.34-1.93,2.19-2.24,4.38-4.68,6.74-1.2,1.16-6.19,4.52-7.59,4.81-3.62.77-1.73-4.56-2.06-5.14-.13-.22-3.56-2.61-4.18-3.02-1.23-.81-2.07-1.03-2.37.49s3.58,7.3,4.76,8.54c2.59,2.72,10.28,6.77,12.08,9.32.82,1.16.64,3.32,1.47,4.71,12.47,20.94,30.54,55.24,13.09,78.27-12.59,16.62-26.98,32.37-39.41,49.09-3.44,4.63-5.67,10.37-9.14,14.65-3.08,3.79-7.66,5.95-10.44,9.55-3.72,4.81-5.05,12-8.16,16.58-6.04,8.89-16.4,13.39-22.74,21.99-2.86,3.87-3.43,8.04-8.11,11.88s-18.28,9.36-20.81,13.44c-3,4.83-2.36,7.62-7.83,12.12-8.71,7.17-20.55,14.72-29.93,21.5-9.29,6.72-19.04,8.6-28.36,14.46-6.78,4.26-12.49,11.21-19.01,15.25-5.86,3.63-12.95,5.47-19.09,8.51-25.37,12.55-51.1,33.87-74.78,49.89-2.96,2-5.78,6-9.25,7.88-4.51,2.43-10.34,3.23-15.25,5.68-12.05,6.03-22.69,16.86-34.27,23.78-10.79,6.45-21.14,8.84-31.38,16.2-.94.67-4.03,3.12-5.09,2.61-1.89-1.73-3.13-5.69-2.45-8.16.92-3.35,9.92-13.01,12.38-18.15,2-4.19,3.1-11.02,5.84-15.1,2.42-3.6,10.57-9.11,14.24-13.35,5.9-6.81,12.06-20.62,16.93-25.43,9.9-9.77,6.99-7.56,13.36-19.47,4.94-9.24,15.15-16.8,21.04-25.59,2.56-3.82,4.14-9.17,6.25-12.59,6.58-10.67,23.99-19.2,28.6-31.55,5.89-15.76,7.44-18.54,19.96-29.52,6.89-6.05,13.15-26.82,18.33-35.45s16.27-22.24,19.45-31.45c1.79-5.18,2.35-11.33,4.38-16.56,3.15-8.16,11.16-14.23,20.15-14.19,7.98.03,15.24,4.49,22.64,6.62l7.83-9.39c2.76.79,2.8,3.54,6.16,1.91l-2.85,5.7c8.09-.94,17.32-1.01,22.42-8.5,1.21-1.78,1.58-5.14,2.81-5.76,1.61-.82,2.41,4.79,4.17,5.42v1.52c-.19.78-4.51,4.03-1.31,4.47,1.27.18,5.07-3.09,8.02-3.39s6.01.72,9.81.29c1.98-.22,11.01-2.33,11.73-3.54-1.67-3.69-1.5-5.63-.55-9.53l-7.6,1.9.85-3.7c-4.67-1.23-4.89-5.02-6.99-8.43l-23.24,3.69-1.09,9.39c-2.67-1.54-2.1-5.16-4.67-7.21-4.18-3.32-11.93.86-17.17-.36-.24,5.85-1.15,8.65-7.65,7.57l-2.36-16.2-4.17-.05-1.48-2.53c-6.42,3.36-20.58-2.06-21.63,6.27l-4.63.15c-.21-1.91.39-4.2-.01-6.01-.07-.33-3.11-5.18-3.33-5.43-.89-1.03-2.81-.45-3.33-1.6-1.19-2.64-1.51-9.28,1.91-10.27l-10.46-6.67,1.97-1.04-2.04-10.28c7.33-3.6,16.08-1.24,23.56-3.3,1.62-.45,2.65.69,2.2-2.03-9.54,1.52-17.55.13-26.64-2.87.22,3.05-.18,5.36-3.81,4.77.98-2.51-3.91-10.95-6.18-10.47-1.61,1.03-1.2,6.97-.9,8.68,1.15,6.77,4,7.8,6.87,12.93,8.06,14.4,14.27,25.26,17.57,41.43.37,1.81,3.72,5.02-.22,4.51-2.74-5.91-2.53-13.42-5.03-19.25-4-9.34-19.92-30.95-21.22-38.75-.74-4.48-.19-9.91-2.11-15.01-2.53-6.72-8.28-6.4-12.92-9.92-3.54-2.7-11.03-9.87-15.6-11.05-3.24-.84-6.09.11-10.05-1.37-2.94-1.1-4.67-3.62-7.6-4.77-5.04-1.97-13.69-2.62-18.51-5.76-.76-.49-.78-2.3-2.82-3.36-4.5-2.33-13.8-2.51-18.75-5.82-3.2,4.12-8.26,8.16-12.63,11.18-16.46,11.42-28.26,13.55-48.14,8.5-5.24-1.33-8.48-8.97-14.07-11.63-11.13-5.31-10.57-8.98-18.53-16.68-2.17-2.1-9.88-4.67-6.97-9.38.21-.33,5.55-2.76,6.55-1.65,2.63,6.18,3.04,11.88,7.57,17.2,4.42,5.19,13.07,9.32,18.56,13.8,2.22,1.81,2.7,4.51,5.5,5.92,5.87,2.94,23.02,3.62,29.66,2.59,8.96-1.39,21.71-13.01,28.89-18.49-1.05-4.24-5.08-4.41-7.77-6.33-1.21-.87-1.6-2.41-2.58-3.13-2.88-2.09-8.49-2.44-7.56-8.48.09-.55,1.27-.61,1.55-1.05.45-.71.23-1.93.57-2.23.85-.77,2.98.64,2.66-1.16-9.2.33-22.99-2.03-31.12-6.47-3.88-2.12-4.42-5.53-9.95-6.23-2.29-.29-4.4.54-6.85.25-3.51-.42-8.2-3.31-10.6-3.31-2.77,0-5.76,3.25-9.04,2.43-.6-3.66,5.41-.48,4.75-4.74-4.83-1.68-10.48-1.27-15.28-2.33-7.75-1.71-16.5-6.81-23.49-7.91-12.69-2-32.82,2.14-47.26.62-5.57-.58-10.53-3.42-15.38-4.6-18.93-4.63-38.14-6.42-57.1-9.52-4.35-.71-12.89-.59-16.7-1.56-4.12-1.04-9.15-6.77-13.2-8.51-4.26-1.84-9.43-1.62-13.71-2.47-6.12-1.22-34.67-5.91-36.58-11-3.56-18.4,5.48-20.63,21.28-20.32,15.75.31,31.83,3.15,47.64,3.76,12.76.49,26.08-1.45,38.91.1,4.57.55,10.63,3.26,14.5,3.6,5.53.48,14.01-.11,20.68.24,23.43,1.25,46.71,3.93,70.48,3.84,7.82-.03,16.8-2.56,24.77-2.01,10.36.72,17.5,3.76,29.5,2.92,5.99-.42,17.16-3.91,21.86-3.82,1.4.03,2.62,1.98,5.64,1.93,4.99-.08,13.39-3.97,18.36-5.55l23.11-3.08c-.7-5.01-2.48-2.88-5.69-5.22,1.55-2.08,9.96-14.31,8.54-15.7-9.54-.65-14.44,8.77-14.28,17.12-4.79-1.62.09-9.95,1.89-12.87,4.94-8.04,20.39-6.04,28.94-7.22,4.37-.6,18.29-3.14,21.48-5.17,1.74-1.11,2.67-3.19,2.92-5.18,4.65-.06.62,4.02,3.37,5.66,4.96-1.15,10.12-2.29,15.19-2.8,4.07-.41,16.07-.08,18.91-1.08,1.84-.65,1.42-3.91,2.98-4.63,2.6-.84,2.06,1.44,3.09,1.82,4.36,1.59,12.54,4.39,16.85,3.83,1.24-.16,2.21-1.43,3.05-1.56,3.36-.49,8.25,2.99,11.26-2.18.92.68,1.67,2.29,2.81,2.46,5.74.86,18.79-3.13,24.97-3.12,2.77,0,5.41,2.31,8.86.65l-2.87,4.29c3.84-.96,13.34,4.71,15.57,4.34.69-.11,1.48-3.31,3.47-2.94-.07-1.25-6.67-2.07-2.86-4.29,2.87-1.67,16.77,1.63,8.59,7.64l.92.97c3.89-.32,7.78,3.37,11.01,3.41,1.81.02,1.26-3.09,4.23-2l.1,3.71c1.48,1.83,11.32-.47,12.28,2.95l-5.69,1.44,6.63,4.28,3.54-9.16-.71-19.34-13.28-3.37,5.71-1.44-4.74-2.37c3.58-4.26,8.67-.79,13.22-.38l.08,3.11c.14,1.41,3.54.99,3.85-1.77.71-6.35-9.92-10.09-14.25-13.39-7.73-5.88-11.09-11.57-21-15.16-1.51-.55-10.95-2.73-11.42-2.37l.46,6.67-12.69-3.96-.15-3.66h4.76s-4.76-1.91-4.76-1.91c-.74-3.15,4.39-1.95,1.91-4.29-7.31-6.88-16.55-13.79-27.14-13.79h-18.56l2.79,5.17c-7.31,6.26-14.33,5.96-11.36-5.16-4.03.81-8.18-.96-11.88-1-1.89-.02-1.54.14-1.44,1.93,1.15.87,7.54-1.89,6.65,1.9-9.27-1.52-18.8,1.23-28.08,1.9-13.91,1-30.82.08-44.47,4.06-7.56,2.2-3.03,11.16,4.03,4.98l-3.81-.48c-.59-4.07,7.58-2.29,9.77-1.67s3.32,2.61,5.88,2.67c.68.02,6.66-1.04,6.96-1.22.94-.57,1.19-3.68,2.89-4.49,4-1.93,14.83-2.43,11.62,4.71,2.65-.41,15.96,1.15,16.15-1.41l-.96-4.78c1.79-1.63,10.85-2.1,12.96-.52,1.18,1.69-2.56,7.39,4.16,9.17,3.43.91,20.83-4.97,20.87-.08-3.77,5.3-2.38,9.73-10.85,10.02-2.81.1-1.15-6.69-3.26-8.17-1.48-1.04-5.08-.1-7.15-.45-1.44-.25-2.5-1.73-3.82-1.8-1.81-.1-4.34,1.9-6.74,1.93-1.78.02-.84-1.82-2.73-2.07-8.38-1.08-18.44-.21-26.72.07-10.75.36-21.27.5-31.84,2.9.1,2.33,1.24,11.72,3.4,12.24,3.49.84,4.91-3.83.38-5.15v-1.4c2.64.33,3.12-2.9,4.09-3.53,8.42-5.57,8.68,1.53,7.33,8.27l12.31-.05c.46-8.62,4.82-9.08,12.42-9.45l-1.89,4.75h3.81s-.95,6.66-.95,6.66h16.17s-1.77-2.37-1.77-2.37l2.72-3.32-3.8-1.9,12.36-1.91c-3.22,9.5,2.09,11.99,10.97,11.49,4.29-.24,7.45-3.6,12.09-1.01,1.06.59,1.05,2.19,2.31,2.65s18.92,1.26,16.51,3.03c-5.43,1.77-17.04-4.63-19.03,1.91,1.31,1.17,6.68-3.07,5.7.95-17.04-.03-34.57,1.84-51.44,5.18-7.92,1.57-11.95,2.44-20.28,3.52-1.65.21-12.31,2.46-12.8,2.89-.63.55-1.79,7.86-6.83,7.46,2.63,3.74,11.84-1.22,16.15-2.42,2.05-.57,4.71-.28,6.51-1.08s.6-2.62,1.75-3.21c.54-.28,11.11-3.37,11.75-3.42,2.31-.18,2.92,1.54,5.11,1.53,3.15,0,15.12-4.3,17.12-3.69l5.22,5.21-.8,6.11c3.44-.67,22.5.9,23.79,0ZM105.27,9.57l-2.38-2.84h-7.13c-.45,2.72.57,1.58,2.2,2.03,2.39.66,4.82,1.03,7.31.82ZM222.33,21.01c-7.82-1.21-16.61-3.86-24.38-4.66-6.42-.66-13.21.16-19.61-.38-13.58-1.14-31.39-4.64-45.04-3.59-1.64.13-3.13-.12-4.22,1.48,4.16,2.17,9.09,1.84,13.57,2.59,16.03,2.69,33.88,2.37,50.66,3.6,9.18.67,18.55,1.64,27.69,2.78,1.87.23,1.38-.21,1.34-1.82ZM180.46,22.91c-7.27.21-15.36-2.67-22.42-2.9-1.67-.05-3.14-.04-4.23,1.47,5.94,1.31,12.42,2.98,18.52,3.36,1.87.12,9.14,1.1,8.13-1.94ZM238.24,21.32c-4.59-2.01-4.64,2.53-1.95,3.33,4.71,1.4,13.24,1.3,18.62,2.32,10.7,2.01,21.78,4.36,32.37,6.65,14.01,3.02,30.85,9.02,44.26,10.94,1.96.28,12.7,1.34,13.56.22l-.96-1.88c4.89-1.71,4.17,5.13,9.01,3.85.92-.24,2.77-6.28-1.11-7.45-1.01-.31-6.11-.84-7.09-.67-2.05.35-1.87,2.33-2.69,2.84-2.2,1.38-10.06-1.65-13.11-2.13-26.24-4.11-51.66-10.95-77.89-15.37-6.22-1.05-6.97,0-13.01-2.64ZM205.21,29.55c-6.39-6.42-16.68-3.96-24.74-3.79,3.28,5.37,10.33,1.84,14.66,1.97,3.03.1,6.63,2.57,10.08,1.81ZM308.94,47.64c-.11-3.98-5.47-4.53-8.53-5.26-12.43-2.97-26.76-3.84-40.02-6.61-11.2-2.34-22.07-4.52-33.5-6.47-7.36-1.26-13.93-4.65-21.67-3.54-.52,2.61.67,1.63,1.93,2.3,8.17,4.4,19.44,4.67,28.72,6.54,20.26,4.07,40.77,8.76,61.32,11.96,1.64.26,11.32,1.46,11.76,1.08ZM380.31,44.78c1.72-2.36-5.16-3.54-6.29-3.68-4.89-.59-8.96.56-13.69.84-.41,6.02,19.29,3.79,19.98,2.84ZM414.58,52.4l-.96-3.32c-14.7-4.05-29.96-.47-45.09-1.49-2.42,2.74-.09,5.6-.1,8.63l12.9-1.37.89-5.31c.38-.39,9.56.45,10.9.95,2.01.76,3.01,2.49,4.82,2.85,5.1.99,11.49-.78,16.64-.94ZM361.28,47.65c-3.68-.21-7.98.07-10.38,3.32,1.96,1.31,4.79,9.14,6.55,6.44-.02-1.95.88-3.04,2.86-3.13l-.64-1.9-3.14-1.42,4.74-3.32ZM349.83,52.45c-8.13-.07-16.41-1.2-24.71-1.95-.29,1.77.33,2.04,1.84,2.5,5.74,1.76,16.56.88,22.9,2.25l-.04-2.8ZM352.72,58.12l-12.37-1.91c-.47,2.66.57,1.59,2.09,2.14,1.87.68,11,3.76,10.28-.23ZM436.36,84.91c-3.91.51-8.45-1.94-11.9-1.98-2.46-.03-4.07,1.44-6.36,1.5-8.83.23-22.31-2.98-31.56-3.53-3.37-.2-24.83-.14-25.34,2.55,1.97,6.36.73,11.33-.87,17.47h6.66s-1.9-11.41-1.9-11.41l8.24-3.65c1.09-.1,4.55,2.26,4.93,3.33,2.2,6.26-6.45,11.19,9.75,7.47l.76-8.67c.66-.8,12.69-5.36,11.52-.39l-4.75,1.9c4.98-1.12,5.67,4.69,9.95,4.83,5.62.18,5.83-3.43,8.74-5.64,1.72-1.31,8.14-3.87,9.91-2.57l2.46,4.27,11.76-.88-2-4.6ZM414.33,100.26c-2.15-1.26-12.01,4.19-15.83,2.68-4.33,11.36,8.6,3.88,15.12,5.59l-1.44-2.85,6.2-1.91c.68-3.15-1.84-1.21-3.55-2.19-.31-.17-.26-1.19-.5-1.33ZM392.68,106.65c-5.02-.2-11.09,1.15-15.99,2.56-1.87.54-5.86,1.44-6.85,3.13,6.08-1.62,15.75-.67,20.98-3.31,1.4-.7,2.31.02,1.85-2.39ZM551.62,123.77c7.17.1,2.87-7.53.93-11.41-2.57-1.79-.39,10.5-.93,11.41ZM562.97,114.31l-2.78-.06.95,9.52,4.75-.97-2.92-8.5ZM477.38,116.16c-7.49-1.26-9.41.96-14.97,4.51-1.36.87-2.03,2.21-1.2,3.09l14.96-5.48,1.21-2.12ZM371.75,151.37h16.65c.12,0,1.93,1.69,2.36-.52.37-1.85-1.45-6.84-.49-8.96.74-1.64,4.61-3.71,5-6.75l22.86-12.57c5.72-12-17.33-.74-18.77,2.64-.5,1.17.18,1.76,1.4,1.4,4.59-1.37,9.99-7.55,14.77-7.13l-28.23,16.51-1.26-1.74c2.09-.52,5.94-.76,5.7-3.81-2.09-1.83-9.41,7.24-12.36,5.23l10.46-8.08c-4.93,1.09-8.48,5.48-13.01,7.45-1.63.71-1.63,1.75-3.15-.33,2.77-2.5,16.19-7.87,16.2-11.41l-1.46-2.37c-3.82,2.83-14.88,8.01-16.24,12.29-.84,2.66-.35,6.24-1.39,9.08.13,1.11,4.29-.81,2.86,3.34l-3.79-.95,1.9,6.66ZM450.74,118.07c-2.09-1.77-20.81,3.02-18.07,9.51,4.55-2.12,11.8-4.05,15.89-6.47,1.3-.77,2.56-1.15,2.19-3.04ZM476.43,119.97c-5.08,2.62-13.18,3.88-17.84,6.41-1.49.81-1.89,2.33-1.19,3.1.6.66,15.27-5.83,16.69-6.61,1.32-.73,2.74-.81,2.33-2.89ZM497.37,119.97c-1.91-.77-9.94,1.94-9.51,4.26s2.31.56,3.14.32c.78-.22,8.47-2.81,6.36-4.58ZM503.08,123.75l-1.94-1.48c-3.63,2.51-9.46,3.12-13.04,5.06-1.49.8-1.88,2.34-1.19,3.1.8.87,14.17-5.32,16.17-6.68ZM448.83,123.77c-1.66-.27-2.97.21-4.49.74-2.15.74-12.47,5.09-13.95,6.04-2.75,1.75-3.91,5.9-8.21,7.03-.6,2.41,5.18,3.84,6.55,5.8,2.3,3.28,3.13,10.92,5.31,14.67.59.61,13.68,1.98,15.14,1.62,2.44-.59,6.43-12.87,5.35-14.02-1.93-.06-3.57,1.72-4.71-.57l1.4-8.01c10.4,1.88,7.05,9.64,5.23,17.13.89.89,4.97-4.25,6.65-.45.65,1.47-6.03,4.35-4.74,7.12l17.11-2.87c.24-5.14-7.36-6.6-6.64-12.35l5.7-.02c.98-4.02-5.24.05-4.76-3.31.6-4.2,5.57-8.74,7.6-12.38-1.96-2.92-4.32.21-6.65.94-2.94.92-5.99,1.77-9.01,2.41l-.98-2.89-8.07,2.87c1.01-2.67-1.38-5.54-4.12-5.5-3.28.05-9.21,6.03-11.11,1.7.4-.52,14.36-3.23,11.41-5.72ZM478.34,123.77c-1.12-1.13-13.79,4.44-15.22,6.65l14.59-3.78.63-2.87ZM362.23,124.73c-4.15,2.16-12.2-.08-13.32,5.7.83.77,12.35-3.4,13.32-5.7ZM522.11,126.64c-2.95-3.13-11,1.45-13.3,4.27,1.33,2.13,3.84.48,5.65-.05,1.64-.48,4.84-1.58,6.32-2.24.86-.39,2.86-.36,1.33-1.98ZM555.21,127.77c-.16-.27-4.11-2.59-4.54-2.1,1.39,6.45-2.72,8.97-5.68,13.7,5.19,5.44,11.06,10.22,19,10.08l-.13-3.71-2.73-.09c1.04-4.72,3.97-5.6,1.9-11.41l-5.67.95-1.47,6.66-.48-4.75c-3.1-.54-3.78,1.04-3.85,3.78l-2.79.03c.28-1.17-.97-3.02-.51-3.84,1.66-2.95,10.5-3.08,6.94-9.28ZM366.99,129.47l-1.4-2.73-20.25,7.72c-2.9,2.7,4.61,10.35,4.47,14.58l16.23,1.36c-.94-1.53,0-4.07-.29-5.09-.44-1.53-2.59-2.16-2.45-3.78.17-1.89,4.69-6.02,3.69-9.2l-3.81-1.89,3.8-.98ZM565.67,127.89c-1.45-.61-2.97-.97-2.64,1.11.28,1.74,1.95,6.77,2.6,8.87.5,1.62-.38,2.5,2.16,2.06-.28-3.22,1.26-10.62-2.13-12.05ZM498.32,128.53l-16.17,4.76-.73,12.73,5.45,4.86-1.9,2.86,1.45,2.36c2.56-2.57,10.42-3.33,11.7-6.37,2.09-4.96.18-12.19,2.1-17.39-1.39-1.25-8.2,4.27-8.57.48.04-.92,9.15-2.24,6.66-4.29ZM505.94,137.09c.88.76,18.92-4.99,19.01-6.18.15-1.98-2.73-.65-3.36-.54-2.94.53-10.78,2.66-13.34,3.8-1.44.64-2.67.99-2.31,2.92ZM410.55,133.52c-.53-.28-10.63.23-11.73,1.62l-5.17,10.51h7.61c-1.2,2.2-1.33,4.78.5,6.65,1.07,1.09,22.78,6.16,24.64,5.67.44-.12,1.93-1.28,1.05-1.85-10.94-2.82-11.75-13.48-9.06-22.83-2.1,1.59-4.21,2.59-6.97,1.89-.7-.18-.64-1.54-.86-1.66ZM516.4,139l4.82-.42.88-4.34c-3.15,1.54-12.67,2.68-13.35,6.19-2.05,10.59,18.34,8.89,12.95,1.35-1.5-2.09-6.17.84-5.3-2.78ZM528.78,140.89c3.83.03,8.36.54,11.4-2.37-1.42-2.25-2.12-.82-3.58-.76-2.79.12-8.09-.53-7.82,3.13ZM538.08,148.7c-.27-.45-5.25-2.97-5.5-5.48l-3.69.66-.11,7.49h2.86s-.94-2.85-.94-2.85c1.59,1.15,3.61.53,5.03.97.48.15,1.25,3.64,2.57,1.88.19-.26.08-2.16-.21-2.66ZM547.64,144.83l-7.45.83c-.04,1.3-.31,1.84.64,2.9,2.28,2.56,18.91,5.34,23.34,5.97,5.26.75,3.57-2.89,1.25-3.2-4.32-.57-12.3-1.71-16.04-3.95-1.32-.78-1.46-2.39-1.74-2.55ZM13.91,148.52c-9.25-1.09-14.57,7.67-11.74,16.03,1.83,5.42,14.09,7.23,19.36,8.7l-3.91-6.12-8.44-3.86c5.56-4.18.88-4.21.11-6.86-1.37-4.74,4.3-4,4.62-7.88ZM520.21,148.52c-9.71,1.62-19.25,2.32-28.33,6.4-1.15.52-2.82.47-3.08,2.15,7.27-1.63,15.81-2.44,22.87-4.24,2.67-.68,7.12-1.83,8.53-4.3ZM331.78,150.42c-1.61-.17-3.03.05-4.51.72-7.71,3.44-24.15,13.83-31.66,18.81-1.1.73-2.46-.24-1.89,2.35,1.71.34,2.74-.45,4.12-1.11,7.49-3.55,25.74-12.99,31.94-17.54,1.16-.85,2.34-1.48,2-3.23ZM329.88,157.07c2,.23,11.01-2.71,10.46-5.21-1.02-4.69-9.2,3.82-10.46,5.21ZM82.91,166.59c-7.39-.88-17.89,0-25.7,0-.75,0-3.2,1.26-2.37,2.85,7.15-.37,14.24-1.41,21.45-.99,3.4.2,13.47,2.86,15.06,2.67,1.77-.2,3.19-2.65,4.88-2.62,1.14.02,2.44,1.51,3.91,1.81,10.33,2.08,19.75-1.5,29.88.1,1.48,1.38-.13,1.71-1.42,1.88-1.09.15-18.54-.25-15.71,1.91l5.71,1.91c-4.24-.88-15.6.72-18.78-1.22-.63-.38-.72-2.18-1.6-2.33-4.12-.73-9.8,8.54-16.05,2.87-2.67,2.02-14.18-.89-14.95,1.18-.61,1.65,1.52,1.89,2.61,2.11,5.53,1.1,11.81.81,17.38,1.67,2,4.66-5.01-.27-6.67,2.88-.45,2.3,1.85,1.36,3.31,1.41,2.38.09,4.78-.07,7.15,0l-5.71,1.9c1.92,3.96,6.78.76,9.99.86,8.46.26,17.5,2.9,26.17,1.99.76,3.35-4.52,1.37-5.7,3.32,3.3,1.95,10.09,3.91,13.31.94l-4.74-1.42,1.9-6.65c-1.41-2.05-18.66-.25-22.35-.98-2.22-.44-3.05-2.88-4.75-2.86-1.49.01-3.74,2.93-6.2,1.92-.94-2.46,2.36-6.94,4.47-7.5,3.3-.88,3.52,3.41,4.76,3.72,4.3,1.05,17.42-1.4,20.29.47.69.45.67,2.28,1.54,2.44,1.43.26,4.05-1.43,5.84-1.72,6.09-.99,4.14,2.82,5.88,4.07,2.62,1.87,17.9-.94,22.3,1.15l2.02-1.67-.96-1.9h-19.03c-.39,0-6.05-2.74-7.13-3.34,2.95-2.73,6.16-.52,9.05-.47,4.08.07,9.48-.54,13.25.06,2.05.33,4.94,2.6,5.78,2.53.96-.08,3.67-3.98,5.68-3.55,2.38,1.96.36,5.02,3.82,5.73,4.75.97,13.03-2.36,19.08-1.96,3.87.26,8.45,2.88,11.42,2.79,2.09-.07,3.11-2.02,5.18-1.79.38,2.31-2.03,2.96-3.74,3.39-5,1.25-11.13.99-16.24,2.33.49,1.96,1.4,1.52,2.84,1.49,3.44-.07,7-1.23,10.77-.36,3.04.7,7.44,6.49,5.43-2.09,3.11.72,7.27,1.4,7.61-2.86-5.12.97-3.77-2.07-5-3.55-2.3-2.77-28.99-2.03-34.02-2.16-1.3-4.89,1.42-4.27,1.84-4.81,1.46-1.82-3.29-1.9-1.84-4.7l6.67-.97c.89-3.84-3.6-.67-3.8-.94l-1.91-5.7,25.17,1.87,4.32-2.82c-8.3-2.76-16.61-1.83-25.25-1.87-3.88-.02-5.82-2.07-9.95.92.57,2.11,3.69,1.04,2.85,3.78l-7.23,3.75c-1.53.71-1.09-1.41-2.05-1.76-7.3-2.7-17.53.91-24.97-1.02-.39,2.65.45,1.78,2.36,1.9,7.14.45,14.33.25,21.43.96l-2.31,1.8-23.38-.86v-5.7s17.6,0,17.6,0c.59,0,1.02.89,3.09.36,1.01-.25,6.54-3.05,6.89-3.71,1-1.9-7.15-3.88-8.25-3.96-.85-.06-3.38.18-3.16,1.59,2.21-1.43,7.88,3.04,4.25,3.81-1.84.39-3.91-1.04-5.68-.95-3.48.19-11.33,3.5-11.9-1.9l2.86-1.9-16.18-.95c1.32,3.03,7.15,1.26,8.56,4.28.8,1.7-2.4,2.13-3.41,2.27-8.73,1.25-9.33-3.71-15.15-3.71h-17.61v-2.85c3.06.69,6.34-.73,9.04-.76,2.12-.02,9.6,2.91,9.05-1.14l-25.18-1.97-.58,2.81-4.7.12,3.8,3.79c-4.75-.27-11.17-1.98-15.71-1.98-1.66,0-3.74-.02-4.27,1.98,5.71.52,14.04,2.71,19.56,1.96,3.03-.41,4.37-3.16,5.64-2.9,3.63.77-1.06,7.76-3.02,8.44-3.59.93-4.84-3.5-5.73-3.7-1.69-.4-7.98-.84-10.23-.98-1.44-.09-19.71-.69-15.74,2.89,4.34,1.23,11.04-1.53,14.67-.94,1.36.22,2.43,1.52,3.93,1.85,2.44.55,7.18-1.37,7.09,2.9-1.15.4-2.01-.9-2.37-.95ZM358.43,151.38c-5.57.69-12.09,4.34-17.17,7.08-2.76,1.49-21.69,13.02-21.83,14.32-.19,1.91,2.26,1.01,3.36.53,7.44-3.28,20.14-10.99,27.37-15.46,2.81-1.74,6.39-3.71,8.27-6.47ZM366.99,153.28c-10.65,3.54-22,9.49-31.41,15.72-1.1.73-2.46-.24-1.89,2.35,9.28-4.91,21.5-9.47,30.16-15.04,1.19-.77,2.75-1.55,3.15-3.03ZM387.93,153.28c-2.34-.11-4.32-.24-6.61.52-3.61,1.18-17.06,9.49-21.27,12.04-1.52.92-3.73,1.94-4.47,3.61l9.54-3.29,22.81-12.86ZM521.16,153.27c-3.12-.28-9.01.77-9.51,4.75,2.43-.11,5.45-1.35,7.6-2.43,1.35-.67,2.4.23,1.91-2.32ZM537.34,153.28c-3.68.08-10.92-.21-11.42,4.74.69.62,10.91-2.16,11.42-4.74ZM540.2,155.18c.89,5.99,6.34,3.39,9.51.45-1.17-4.86-6.43-.8-9.51-.45ZM315.6,154.23c-4.33,1.34-10.12,4.82-13.99,7.42-1.23.83-2.61,1.07-2.18,3.04,5.81-2.61,12.03-5.39,16.17-10.46ZM562.23,159.81c3.61,1.83,4.77,4.68,8.41.6-2.48-2.71-9.12-7.21-8.41-.6ZM248.04,158.98c-3.45.76-7.01-2.94-8.21,1-9.16-1.71-19.2-1.39-28.44-.03-1.66.24-1.6-.5-1.43,1.88,6.48.92,13.26-1.01,19.47-.96,1.46.01,9.27.7,10.32.94.96.22,2.86,6.53,4.47.03l-2.85-1.9c2.04-.4,7.3,3.08,6.66-.95ZM284.19,158.03c-.53-.47-12.61,1.74-13.32,3.79l2.85.48-.48,3.31c3.21-3.02,10.27-2.45,10.95-7.58ZM294.66,158.03c-5.59-1.02-8.27,3.43-12.35,6.18,1.72,2.35,1.52.7,2.96.14.98-.38,11.14-4.86,9.39-6.32ZM321.32,166.59c.54.58,9.96-4.73,11.13-5.52,1.23-.83,2.61-1.07,2.18-3.04-1.92.37-16.33,5.32-13.31,8.56ZM395.54,158.03c-8.31,1.21-17.9,6-24.48,11.2-1.14.9-2.59,1.08-2.16,3.06.96.91,13.86-7.47,15.81-8.45,2.83-1.42,6.11-1.89,8.97-3.44,1.32-.72,2.34.08,1.85-2.38ZM518.3,158.03c-4.16.83-9.49,2.23-8.55,7.6,4.26.9,2.14-1.61,3.05-2.59,1.21-1.3,6.84-.87,5.51-5.01ZM485.95,159.94l-13.31,2.37c2.89,2.75,8.21,1.44,11.42-.03,1.43-.66,2.35.14,1.89-2.34ZM529.73,159.94c-5.48-.61-8.13,2.7-10.46,7.12,3.79,3.02,9.62,4.08,5.71-2.35,1.51.39,5.89-3.75,4.75-4.77ZM559.23,159.94c-1.77-.14-2.79-.24-4.26.96-.46.38-5.84,7.07-5.25,7.59,5.03.45,8.84-3.81,9.51-8.55ZM256.8,186.76c1.16-.54,2.8.7,4.58.35,2.89-.57,30.13-19.71,34.18-22.95,1.12-.9,2.3-1.55,1.95-3.27-9.45,6.42-21.32,11.33-29.81,18.99-.89.8-.43,2.35-.81,2.67-.86.73-7.69,1.93-9.34,2.61-3.39,1.41-6.69,3.37-9.52,5.71,2.27,1.39,5.76-1.15,7.86-2.42.64-.38.69-1.59.9-1.69ZM204.25,165.64h23.32c1.49,0,5.53-1.98,8.09-.96-.36-1.73-1.87-1.77-3.3-1.93-2.93-.33-26.31.23-28.33,1.02-1.12.43-.95,2.04-2.32,2.63-2.46,1.06-17.3,1.49-17.42,3.53l13.78,1.51c5.28-1.12,10.24-.86,15.23-1.24,6.49-.49,12.97-1.39,19.5-1.7.59-2.73-1.33-1.94-3.36-1.94-6.6,0-14.94,1.77-21.71,1.58-1.42-.04-4.2-.15-3.47-2.49ZM254.69,162.79c-2.53-2.08-14.11,3.37-14.26,5.22-.11,1.45,2.52,1.33,3.82,1,2.53-.65,8.48-4.11,10.43-6.22ZM458.35,162.79c-1.48-1.34-22.23,10.8-24.74,13.31,6.68-2.44,16.69-6.32,22.55-10.27,1.22-.82,2.6-1.08,2.19-3.03ZM563.04,169.44c2.23.49,2.81-2.31,4.49-2.73,1.2-.3,7.77,1.77,6.92-2.49-.64-3.24-12.72.66-11.41,5.21ZM441.22,164.7c-1.61-.33-2.77.46-4.12,1.1-9.03,4.3-19.71,10.4-26.33,17.91,3.55-.45,7.26-3.36,10.39-5.3,6.68-4.16,14.18-8.77,20.07-13.71ZM500.23,165.64l-20.03.44c-2.12,1.29,2.69,12.1.05,14.78,3.03-.06,11.05,1.32,10.11-3.81-.84-4.59-4.12-4.43.9-9.56,7.15,1.46,4.9,8.9,6.6,14.34l5.23,1.89c-1.66-3.93.98-5.71.97-9.51l3.79,1.9c-1.24-4.99,2.64-3.64,5.24-6.64,3.38,4.72-.61,10.6,2.37,16.16-3.63-1.16-7.7-5.68-7.61.95l23.79,5.72c1.73-5.69-1.37-12.58-3.83-3.81l-4.75-1.6c-.27-3.25-1.18-7.93.02-11.03.48-1.23,6.73-2.4,3.82-4.04-1.08-.61-8.89-3.44-10.43-3.85-3.65-.95-8.22-.64-11.99-1.96l-5.19,6.29.95-6.65ZM340.35,185.61c9.17-2.17,18.71-8.53,26.13-14.31,1.73-1.35,5.13-3.35,5.27-5.67-10.99,5.84-22.15,11.47-31.4,19.97ZM255.44,175.83c-1.24,1.69-8.49.86-10.24,3.61-.04,1.36,8.27,2.3,9.45,1.9.94-.32,14.37-10.04,16.17-11.47,1.12-.9,2.3-1.55,1.95-3.27-4.39,4.47-11.92,3.7-16.48,6.64-1.1.71-.37,1.95-.85,2.59ZM406.01,168.5c-3.58-.33-6.89,2.11-9.98,3.81-.82.45-9.8,5.14-8.09,6.65l4.12-1.1,13.95-9.35ZM472.63,171.34l-2.24-2.75-11.08,6.09c1.64,2.25,1.61.85,3.14.3,3.37-1.2,6.57-3.1,10.18-3.64ZM83.39,173.24c-3.73-4.18-14.33-3.79-19.03-1.41,5.39,2,13.38,2.32,19.03,1.41ZM209.96,173.25h19.51c.58,0,1.83-1.96,1.42-2.85-4.71.35-9.96.48-14.63,1.06-1.39.17-5.79.49-6.3,1.79ZM297.52,181.83l1.94,1.48c2.98-1.59,6.24-2.49,9.18-4.17,1.29-.74,11.2-7.27,9.8-8.75l-20.93,11.43ZM252.79,171.35c-2.26-.05-4.48-.23-6.7.42-.88.26-5.43,2.45-4.71,4.32,2.26.05,4.48.23,6.7-.42.88-.26,5.43-2.45,4.71-4.32ZM448.84,171.36l-17.66,7.54-2.32,2.91c.95.83,18.77-7.48,19.98-10.45ZM183.32,177.06h14.75c1.32,0,5.25-1.91,6.18-3.34-5.91-1.44-13.16.64-19.51,1.44-1.31.16-3.03.68-1.42,1.9ZM271.82,172.31c-.62-.62-13.35,8.21-14.91,9.35-1.17.86-2.66.98-2.21,3.01.77.74,13.61-7.66,15.13-9.13,1.02-.98,2.41-1.37,1.99-3.23ZM304.18,172.31c-1.61-.27-2.79.44-4.18,1.05-6.9,3.07-17.02,9.19-24.06,13.06-2.86,1.57-6.71,3.49-8.88,5.86,10.28-4.71,22.43-9.25,32.07-15.03,1.45-.87,5.34-2.86,5.04-4.94ZM378.41,173.26c-2.8-.36-5.18,1.22-7.47,2.52-1.3.74-4.46,2.2-3.94,4.13l3.94-1.29,7.48-5.36ZM411.72,173.26c-1.61-.33-2.77.46-4.12,1.1-9.98,4.74-26.81,15.58-35.74,22.31-1.51,1.14-4.34,2.03-3.91,4.16l20.29-10.63c7.6-6.18,16.42-10.36,23.48-16.95ZM543.05,175.16c-5.66-1.87-9.11-.58-14.11,2.05l-.16,3.65c4.62-1.23,12.79.03,14.27-5.7ZM225.19,175.16h-19.99v2.85c6.14,1.33,17.48,5.33,19.99-2.85ZM235.66,175.16c-3.29-.07-6.47-.76-8.54,2.37,1.82,3.93,10.53-.69,8.54-2.37ZM472.63,175.17c-4.12.56-10.22,2.05-13.32,4.74,6.14,1.58,9.89.93,13.32-4.74ZM284.2,176.12c-6.37,3.05-15.35,7.63-20.87,11.95-1.32,1.03-3.17,2.27-2.92,4.21,2.98,2.57,20.83-13.25,23.79-16.16ZM328.93,176.12c-2.78.09-5.7,1.54-8.11,2.82-2,1.06-12.25,7.39-11.87,9.04l1.88,1.45c.79-4.06,6.69-4.64,9.78-6.64.88-.57,1.18-1.99,2.24-2.73,1.9-1.33,5.05-1.52,6.08-3.94ZM347.95,176.11c-1.06-.88-22.68,9.2-23.79,13.31,7.27-2.89,15.4-6.66,21.9-10.96,1.1-.73,2.46.24,1.89-2.35ZM428.85,177.07c-6.26,2.67-13.54,6.9-19.15,10.85-1.13.8-2.33.03-1.78,2.46l10.37-1.04c0-6.28,7.78-7.32,10.56-12.27ZM446.93,177.06c-1.14-1.13-8.7,4.03-10.46,4.27,1.93,3.18,13.38-1.38,10.46-4.27ZM567.79,177.06c-.51-.55-12.28,5.58-12.34,8.09s2.19.49,2.91.08c2.63-1.5,5.68-3.42,8.23-5.08,1.34-.87,2.04-2.19,1.2-3.1ZM655.35,183.73c-13.41-4.09-27.51-4.3-41.31-6.62l-1.04,1.85,3.33,4.76c-3-2.41-5.52,1.39-8,1.02-1.21-3.96-5.6-1.4-6.27,1.83,7.65,2.04,14.26,1.19,21.89,0l-2.39-4.74c1.23.96,7.93,1.07,6.08,3.71-.19.27-2.45-.41-1.78,1.5,1.91,2.5,3.95,1.92,6.65,1.44v2.85c-6,.81-10.67.76-16.56-.88-3.77,6.13-2.59.85-5.17.44s-6.28,1.26-8.46,1.15c-1.43-.07-2.24-1.48-3.55-1.56-3.34-.22-10.92,3.35-12.39,6.6-1.42,3.16.36,6.92-1.94,9.47-1.65.02.17-7.18-3.82-3.8-.73,9.06-7.41,17.53-4.36,1.61l-3.25-2.52-4.29,11.39-4.31-1.91,3.38-13.3-2.84-.02-.02-9.5c-13.77,1.34-2.31,9.25-6.62,17.62l1.88.95c1.86-1.28,1.5-7.32,4.77-5.71-2.21,12.18-12.33,14.21-8.57-.47-4.84.32-2.69-4.23-6.4-4.57-4.64-.43-1.59,2.48-2.59,4.53-1.09,2.23-4.83,2.06-6.06,4.54s-.05,6.08-.18,8.81l3.79.02-3.8,2.37c5.47,1.16-1.18,7.66,3.79,8.11-3.69,4.05-1.11,8.6-.94,13.29-2.66.24-3.87-3.53-4.48-5.5-1.61-5.23-1.92-11.01-1.22-16.38h-5.71c-1.08-3.75,5.86-1.06,6.66-1.91v-2.85c-3.26,1.7-5.38-.65-8.21-.93-10.34-1.01-12.97,1.32-21.84,2.8-5.66.94-11.54-4.23-12.82,6.17-.64,5.22,2.25,9.78.03,14.79-7.66-2.05-4.44-14.01-3.8-19.97-3.93.33-20.58.12-21.73,3.48-1.8,5.28-.37,9.04,2.25,13.6.64,1.12,2.43,1.96,2.86,2.91.64,1.41-.76,2.81-.41,4.12.11.42,5.52,4.82,6.33,5.2,5.39,2.56,25.97-3.88,32.57-5.52.43,2.42-.37,1.72-1.9,2.33-3.45,1.38-23.7,4.49-23.77,5.75l17.33,24.04,14.04,2.14c-.21,1.69-5.06,1.08-6.18.94-2.27-.29-4.17-.87-6.18-1.9.1.75-.22,1.78-.05,2.36.72,2.45,22.86,13.09,21.92,20.48-2.15-.48-5.41-10.07-6.64-5.25,3.52,5.82,9.93,11.11,11.4,17.62l-12.03-16.08c-5.19,1.94-16.55.11-19.17,5.33-1.85,3.69-1.84,15.79-8.76,9.8l3.4-.89.4-4.83-6.51-.16-1.69-5.49-8.93.88v3.82s-4.75-3.8-4.75-3.8v7.6c-5.43-.29-2.95-8.09-8.57-7.6l2.33,12.41,6.22.92-3.81,2.38,3.83,7.12c3.68.62.92-2.86.94-4.75,2.94-2.6,6.6,6.74,6.57,9.06-.02,1.97-2.48,4.2-.77,7.02,2.93.29,6.29.28,9.07-.76,1.01-.38,1.65.47,1.26-1.47-2.06-3.33-4.2-6.64-6.16-10.03-2.79-4.85-1.53-8.99-9.02-7.64,2.27-3.43,8.55-1.25,12.37-2.84l-3.82,2.35-.82,1.79,9.49,17.69,9.94-1.8c-.18-1.97.43-3.95.23-5.93-.28-2.7-3.37-11.12-3.32-11.73.48-5.24,10.09,1.09,10.93,3.93-1.01,3.07-.21,6.79-1.43,9.66-1.5,3.54-5.03-.27-5,4.02l31.4-3.8c1.55,1.18-.02,1.72-1.41,1.9-2.94.38-6.27-.24-9.41.12-10.07,1.16-20.06,3.82-30.13,5.08-1.49,1.16-.49,1.11-.14,2.08,1.14,3.14,3.56,6.09,3.01,9.85l-5.7-11.96-9.52,1.5c-.27,6.59,5.09,6.15,9.51,8.09-3.66,1.33-2.97,3.69-2.85,7.13l26.65-3.81-3.82-1.9,3.74-11.8c4.09-2.48,5.64,4.64,5.78,7.67.07,1.37-3.28,1.84-1.91,5.08l9.52-.94c-.16,2.05-3.21,1.47-3.67,2.03-.33.41-1.06,8.65-1.58,10.34.81,1.15,1.44.94,2.64.78,3.35-.44,8.29-2.62,12.12-2.69.45,2.71-.56,1.59-2.19,2.03-3.14.85-6.71.83-9.73,1.74-1.38.42-1.66-.54-1.39,1.93,3.8-.03,5.58,2.62,9.52.96l-1.9,5.7,4.74,1.02c-.83,1.19.72,8.14,1.04,8.44.41.39,2.86-.2,4.09.2,1.37.45,1.25,2.59,2.2,2.79,3.81.82,16.42-2.04,21.47-.23l11.19-4.11c-3.32-2.35-6.32-5.09-9.05-8.09-3.09-3.4-3.53-8.11-9.03-6.68l.04-5.27-8.6-.45c.19-2.31,6.63-.6,5.65-3.25l-24.68-40.5c5.78.64,5.61,5.11,7.57,8.13,5.38,8.31,10.99,16.96,15.91,24.99,1.66,2.7,3.53,5.44,4.25,8.6,6.22,1.85,6.03-4.57,8.59-8.78.79-1.31,2.96-1.52,3.27-3.37l-3.41-13.39,1.85,3.41,2.89-.56-.94,4.75,3.79-.95c-.25,7.04,2.8,7.26-.77,13.97-1,1.88-4.55,5.72-4.8,6.7-.46,1.8.78,3.45.63,5.28-.13,1.54-1.73,3.18-1.49,4.81s5.2,7.77,7.34,6.3c1.57-4.27,3.88-9.31,6.54-12.97.85-1.18.99-2.65,3.02-2.21l-1.9,9.5c.93.68,6.56-1.38,5.7,1.42-1.48,4.78-6.25,7.56-10.44,9.53l10.45,6.18-10.47-3.79c4.1,7.86-1.45,15.79-4.75,22.82,8.25,1.12,7.99-9.68,9.8-15.42.31-1,.25-2.87,1.61-2.65,1.43,3.37-3.17,13.75-2.73,15.5.63,2.45,7.2,5.19,4.64,11.14l5.7-.94c-1.73,3.63-6.1,3.9-9.51,4.76-.17,2.83,4.88-.29,3.8,2.35-1.38,3.37-4.56-.8-4.74-.46,2.38,6.76-7.63,6.86-6.19,12.38l3.31-2.86c1.35,4.45-2.94,5.58-2.84,9.51,6.44-.52,4.29-5.19,5.18-6.62,2.42-3.89,9.76-9,12.79-12.04,3.49-3.51,5.71-11.29,8.65-14.88,2.31-2.82,10.82-7.11,12.39-10.72,1.26-2.91-4.27.19-5.8-.01-1.62-.21-3.8-1.56-4.25-3.21-.48-1.73-2.34-11.38,1.49-10.56.2,6.15-2.16,13.57,6.66,12.36.69-2.98-2.52-1.35-2.91-4.28-.44-3.31,2.88-8.06,1.86-11.27l-2.19-1.54-4.36.91c.9-3.55,3.13-8.59,7.6-7.6.46,1.9-1.93,2.62-1.94,4.29,0,1.77,2.78,2.54,2.98,5.68s-2.09,6.69-1.98,10.01l8.51-2.43c10.48-15.89,27-27.53,20.71-49.14-2.14-7.34-4.33-18.49-7.14-25.22-1.47-3.5-4.44-5.01-5.38-6.99-2.78-5.84-3.64-11.33-8.14-17.56-.81-1.12-3.25-3.85-4.76-3.8l4.76,9.98c-2.65.67-1.65-1.71-3.45-2.69-3-1.63-7.17.37-7.01-4.92,1.84-.51,2.24,1.18,3.33,1.9,3.84,2.53.65-4.63-.42-5.99s-3.39-1.45-4.87-3c-6.03-6.32-6.61-8.41-10-15.69-1.58-3.4-6.58-6.57-8.09-9.08-.93-1.55.5-5.47-3.73-5.25v3.8s-2.43-.93-2.43-.93l.52-6.67-2.87.63-.95,5.08-3.31-3.81-2.89,5.72-5.21-1.91,1.91,7.6c2.43.8,2.29-2.68,3.5-2.92,1.83-.37,4.81,1.46,6.96,1.03-1.34,9.58-13.63,5.19-14.27-2.47-.18-2.1,1.04-3.89.95-5.62-.25-4.72-2.87-11.66.47-15.68,2.39,0,1.14,10.96,1.43,13.3,2.35,3.1,2.53-7.6.95-8.55l2.85,2.37v6.18c7.56-5.32,2.09-8.26-1.42-13.32-.53-.77-2.56-1.85-.96-2.85,3.7,1.38,11.8,9.53,14.48,10.27,6.16,1.7,12.11,3.21,18.62,4.21,1.31.2,2.61,1.64,4.11,1.72,2.18.11,3.23-1.99,5.51-1.93,3.75.1,8.61,4.65,12.96,3.79-1.06-3.34-15.12-6.49-15.21-8.08-.17-3.11,8.09,1.52,9.5.47-3.3-4.41-10.61-4.02-15.69-4.77-1.3-.19-2.87-.36-1.43-1.86,6.74-3.93,5.83-.19,8.46.53,2.91.8,5.87-.07,8.74.81,1.13,4.27,1.01,5.34,6.05,5.38.89-5.04,4.25-3.93,7.53-5.93l6.32-5.56c-6.39-.11-10.89,6.93-17.12,7.6-.57-2.74.89-1.5,2.06-2.18,2.51-1.47,7.29-3.46,9.14-5.13,2.86-2.56.4-4.49-2.15-3.22-3.76,1.86-7.82,6.48-12.86,5.78l12.37-7.59c-2.76-1.33-11.01,5.88-12.37,4.74-1.77-1.48,1.33-2.05,1.87-2.36,1.59-.93,6.14-2.39,6.58-3.96-1.26-3.59-.58-15.22-5.92-14.46-.96.14-2.37,2.09-4.17,2.51-1.19.28-11.11.73-7.9-1.7l30.5-8.05,2.4-5.18c3.23,1.21,5.78,1.01,8.97-.1-.37-1.94-2.03-1.53-3.33-1.89-7.03-1.91-11.68-1.08-18.09-1.91-1.31-.17-2.98-.71-1.41-1.9,3.86.24,8.03-.39,11.84.05,2.22.25,7.08,3.96,9.09.91ZM243.27,179.9c-2.36-7.1-17.09,6.11-17.11,7.15-.08,4.02,13.1-2.21,10.45-7.14h6.66ZM610.62,179.9c-1.52-4.81-12.2,1.7-12.35,3.34-.31,3.45,5.77-1.82,6.43-2.12,1.69-.76,4.07-.97,5.93-1.22ZM382.21,178.97c-.99-.95-13.93,7.83-12.36,9.51,1.18-1.2,14.21-7.74,12.36-9.51ZM553.52,178.97c-4.02-.82-4.54,2.58-6.89,4.02-2.03,1.25-5.24,1.59-6.84,2.73-1.37.98-1.39,2.65-1.51,2.75-2.13,1.73-1.23-2.94-3.78-1.89-3.26,3.21,5.72,5.71,8.36,6.38,1.73.44,8.68,1.94,9.61,1.11.18-1.57,1.96-4.7-.38-5.59-2.73-1.03-2.45,3.68-5.22,1.42l6.65-10.94ZM63.27,180.06l-6.53-.15c-.77,3.93,1.2,2.45,3.14,3.79,1.49,1.03.73,3.36,5.45,1.45,2.49-1-3.25-2.96-2.06-5.1ZM213.78,188.47c2.61-.36,6.54.66,8.88-.15,1.29-.44,4.55-6.31,7.27-6.98-1.98-2.87-4.93-.45-7.6-.47l.96,2.84c-3.34.33-9.29.33-9.51,4.76ZM358.43,180.87c-3.89.27-8.74,3.42-11.73,5.86-1.24,1.02-2.91,1.62-2.53,3.64.75.76,13.46-7.22,14.27-9.51ZM473.58,183.71c-.16-1.22-1.33-1.78-2.44-1.91-4.56-.54-21.61,3.78-21.1,10.02.68,8.4,19.49-9.2,23.53-8.11ZM251.84,182.78c-3.86.55-9.24-1.47-12.35,1.42,0,2.18,11.76,1.98,12.35-1.42ZM477.39,194.18c3.86,2.63,19.56-7.46,19.02-9.97-9.19-5.01-16.35,1.2-19.02,9.97ZM445.98,183.73c-5.94-.04-19.33-.66-19.02,7.6l2.84-.96c.52.57-1.16,3.41,1.39,2.83,2.75-.63,7.14-4.76,10.7-5.01l4.09-4.46ZM288,184.68c-11.75,6.16-26.47,10.88-37.22,18.47-.51.36-3.48,1.09-1.79,2.46,1.27,1.03,22.4-9.56,25.4-11.23,3.43-1.91,8.76-4.98,11.81-7.25,1.06-.79,2.38.02,1.8-2.45ZM504.04,185.64l-3.84-.43c-6.36,5.36-14.03,8.73-20.92,13.29-1.1.73-2.46-.24-1.89,2.35,9.74-.79,16.87-11.68,26.65-12.37v-2.83ZM577.31,187.52l-1.49-2.82c-7.88,2.15-7.06,4.7-4.69,11.39l2.48-8.45,3.7-.11ZM160,193.24h-14.28c-.24,0-3.64.8-4.73,1-1.54.28-1.67-.69-1.46,1.85l8.57.97-1.89,2.84c4.68.45,10.13.42,14.7,1,1.42.18,2.63,1.61,4.75,1.91,10.63,1.48,24.43-2.23,34.23-.92,6.33.85,14.01,5.53,20.34,7.26,7.84,2.14,16.28,1.63,23.51,5.6l2.13-.84,2.15-4.48c-5.82-1.61-12.28.97-18.51-.06-3.1-.51-7.14-3.94-9.43-4.87-1.83-.75-5-.34-6.09-1.04-.54-.35-.57-2.05-1.77-2.48-2.72-.98-5.7,1.16-7.47.83-2.99-.56,1.96-5,.45-6.66l-7.6,3.8,4.75-5.25-1.42-2.36h-16.18c-.17,0-1.5,1.28-1.43,1.9h15.23v1.9h-18.56c-1.09,0-6.05-5.31-9.04-3.81l.95-3.79-4.62.86-1.6-2.76-5.18,1.94.89,4.12-1.37,1.54ZM298.47,185.63c-2.97-2.62-33.3,18.92-38.17,21.3-2.71,1.32-5.77,1.74-8.46,3-1.42.66-2.36-.15-1.89,2.34,1.61.21,3.06-.22,4.58-.65,8.8-2.47,33.82-17.23,41.74-22.97,1.18-.85,2.65-.99,2.21-3.02ZM324.17,186.58l-33.31,18.06c11.76-4.14,24.22-9.29,33.31-18.06ZM303.23,188.49c-7.85,2.35-16.48,7.01-22.84,12.35,8.26-2.5,15.92-7.24,22.84-12.35ZM342.25,188.49c-5.45.45-12.1,4.01-16.18,7.59,5.93-.07,11.92-3.71,16.18-7.59ZM515.45,189.44c-4.84-2.83-7.63,2.74-9.51,6.65,1.69-.54,10.93-4.71,9.51-6.65ZM652.49,193.23l5.07.59,13.94-2.01c-3.2-4.57-7.7-2.58-12.35-3.32l.95,2.84c-.57.46-8.27-2.74-7.62,1.91ZM367.94,189.44c-5.43.06-8.12,6.81-13.58,6.68l-.69,2.82,14.27-9.5ZM420.28,190.39c-6.05,1.94-13.34,1.07-19.04,2.36-13.49,3.06-32.06,18.97-46.61,22.86l-18.11,5.68c-2.19,1.5-1.83,7.29-2.34,8.07-2.16,3.31-4.38.02-5.54.2-1.09.16-2.51,2.46-4.47,1.75.75-6.59-6.17-5.92-10.46-2.84l1.89,2.82-9.49,4.29c1.56,2.29,4.45,3.31,6.21,5.2,2.31,2.48,7.14,10.58,9.26,11.75,8.02,4.42,23.28,5.62,32.35,7.54,2.46.52,5.52,2.69,8.26,3.17,2.21.39,5.02-1.09,7.65.41.13-3.06.17-8.41-2.32-10.51-1.03-.87-3.26-.92-3.9-1.79-.45-.62,1.22-8.98-4.22-10.05l2.82-2.86c-1.55-2.1-4.77-1.62-6.61-2.89-5.37-3.69-1.65-19.24-.04-17.57l4.76,13.32c.96-10.36,12.6-16.79,18.57-24.72,4.89,3.74,1.01,10.62.6,15.62,6.26,3.6,13.78,1.61,10.35,11.95,3.72-.47,15.49,1.61,16.73-2.78,2-7.11-5.96-5.56-8.62-8.65-1.69-1.96-2.98-9.26-2.22-11.7.94-3.01,8.84-6.69,11.23-3.04-12.11,15.27,3.42,7.7,4.77,9.05,2.15,4.88-4.73,6.73-4.82,7.23-.64,3.58,4.43,5.11,4.8,8.56l20.92-2.51c.03-5.32,1.83-10.42-.9-15.43-.82-1.51-3.55-1.27-4.37-2.6s1.43-3.14-.33-6.24c-2.35-4.13-10.07-4.71-10.39-8.69l3.66-6.96ZM455.49,207.51c-3.35-.31-4.58,6.33-7.59,2.37l2.81-2.86c-5.26-2.78-3.57-17.09-10.76-16.44-.56.05-9.55,4.57-10.12,5.04-4.39,3.63,4.15,7.91,7.58,7.12l-1.91,7.61-5.7-.95c.11,4.57,3.58,1.66,6.18,1.81,2.73.15,5.3,1.36,8.09,1.05-1.63,4.61-9.45-1.15-10.41,2.49-.16.62.73,4.04.91,4.16,2.76,1.92,4.06-4.69,5.69-2.85.2,2.87-1.81,3.84-3.79,5.23l4.24,3.32c6.96-2.64,14.22-6.21,21.41-8.1,3.22-.85,18.59-2.76,19.6-4.21.65-.94.38-2.69.43-3.85,3.25-.71,1.55,2.81,1.89,4.77.51.52,12.92-.65,14.55-1.16,1.16-.37,7.7-5.66,6.38-7.42l-3.8-.93c1.67-.15,6.24-1.58,6.42-3.32.06-.56-.43-2.69-1.98-2.27-5.06,1.39-12.6,9-16.42,9.38-2.79.28-7.6-1.84-11.31-1.66s-7.32,1.69-10.97,1.65l8.56-5.24c.34-1.92-.53-1.68-1.98-1.02-2.94,1.33-5.64,4.76-9.43,4.36.77-2.49,13.42-6.54,10.46-9.5-7.84,1.56-17.26,6.97-17.14,16.17l-1.89-4.75ZM232.16,197.36c1.34-1.09,3.37-1.12,4.43-2.7-5.5-5.61-9.48-3.54-13.3,2.37h4.28s.46,1.89.46,1.89l-5.69,3.82c5.21,1.26,6.86-2.97,9.82-5.38ZM471.67,191.34c-7.71,1.7-13.33,11.54-21.88,8.56v3.8c2.27,2.37,17.64-6.64,20.32-8.7,1.6-1.23,1.87-1.48,1.56-3.66ZM508.8,200.84l17.11-7.13c-2.18-2.44-4.54-2.74-7.61-1.95-2.41.62-12.11,6.07-9.49,9.08ZM225.19,192.29c-5.14-.47-9.15-.12-12.35,4.27,4.28,3.93,9.98-.2,12.35-4.27ZM247.08,193.24c-4-.48-7.8,1.31-10.44,4.28,3.38,3.54,10.48.52,10.44-4.28ZM527.83,204.66c1.8.61,3.46,2.21,5.72,1.91l-.96,2.84c1.59.5,5.46-.7,5.51-2.37.02-.74-2.33-1.65-1.7-3.33,3.17.18,6.26-1.15,8.54-3.34l-3.79-1.44.96-3.79-7.91-1.79-8.27,7.97c2.49.92,1.78,1.14,1.9,3.33-1.97-.67-3.52-1.32-5.71-.96l.96-4.75c-2.3-2.25-12.97,2.87-13.33,4.29-.28,1.14,6.79,5.86,7.25,5.95,1.94.37,7.97-1.72,10.84-.72-.03-1.26.06-2.55,0-3.81ZM303.23,194.19c-1.66-.28-2.97.22-4.48.74-4.46,1.54-19.27,9.11-23.44,11.77-1.33.85-2.83,1.82-2.51,3.67,9.3-4.42,19.11-8.23,28.11-13.28,1.3-.73,2.76-.8,2.33-2.89ZM498.67,198.33c.76-.87,2.84-.95,2.51-2.7-.57-3-7.95.51-8.91,1.35s-.19,2.41-1.22,2.96c-1.37.72-4.63.37-6.03,1.41-3.64,2.71,1.47,4.99,4.97,4.08,2.85-.75,6.77-4.92,8.68-7.1ZM255.65,197.05l-12.37,4.74c5.05.44,9.74.21,12.37-4.74ZM652.5,198.01c-.74,3.74,3.45,4.11,5.23,6.63,5.49-5.35,1.66-9.67-5.23-6.63ZM656.11,212.06c-1.15.67-11.86.54-12.71-.68l.58-12.94c-3.15-1.82-9.03.91-12.41,1.47l4.77,12.36c4.67.77-.9-9.35,3.79-8.56.09,3.73-1.5,5.92.56,9.42,1.38,2.34,7.84,6.69,10.39,6.69,1.07,0,12.06-6.14,12.75-7.17,1.4-2.11,2.86-10.06,1.04-11.79-1.68-1.59-1.97,1.32-2.34,1.89-.95,1.44-5.7,8.91-6.41,9.32ZM666.92,228.26l1.27.18c1.55-.56,11.73-19.34,11.93-21.48.22-2.34-6.72-10.22-9.54-8.49,6.72,2.59,5.28,17.4.94,20.04-.99.6-2.6-.5-3.81-.09-2.03.69-4.54,2.93-6.38,3.18-1.66.22-3.08-.96-5.05-.4-2.22.64-9.47,9.67-9.49,4.41l4.74-1.94c.45-2.03-.47-2.46-2.24-1.75s-5.6,5.18-8.22,6.07l9.04,5.2,1.42-1.87-4.76-2.86,9.02,2.85c3.5-2.75-2.2-1.55-1.4-4.76l11.79-.06.72,1.78ZM379.36,199.91c-3.77-.04-8.24,3.79-11.54,6.09-.54.37-3.43,1.06-1.78,2.46.87.74,12.92-5.61,13.32-8.55ZM235.66,203.71l-6.05-.88-1.13.84c-1.95,4.39,3.09,4.08,5.96,2.18.9-.6,1.71.1,1.22-2.13ZM364.13,202.76c-4.19-.21-6.84,3.62-10.03,5.68l-1.84-1.89c-1.22,1.3-3.07,1.4-4.53,2.16-1.27.66-5,2.55-4.53,4.51l7.12-3.81-2.36,4.76c1.61.17,3.02-.05,4.51-.72.56-.25,9-6.61,9.79-7.34,1.03-.96,2.19-1.74,1.87-3.35ZM322.26,206.56c-1.99-.15-3.93,0-5.92.26-5.18.67-19.12,3.85-24.01,5.49-1.56.52-2.77.72-2.42,2.8l28.45.87,1.03-2.3-4.73-1.89c2.11-2.41,7.58-.97,7.6-5.24ZM331.78,209.42c-2.12-.18-14.17,3.21-11.41,6.65,2.56.77,1.43-1.36,2.6-1.86,2.14-.91,4.2-.81,6.93-2.44,1.22-.72,2.41.19,1.88-2.36ZM264.21,210.37c-3.05.42-5.43,2.64-8.51,3.38s-6.38-.55-8.6,1.85l8.8.25c2.55-2.25,6.82-2.27,8.31-5.48ZM345.1,217.01c-.99-2.96-7.95-3.02-8.56-.45-.99,4.17,7.01.89,8.56.45ZM284,216.36c-2.65.03-16.77.71-17.42,1.62.17,3.73,5.01.94,7.39,1.17,6.88.67,14.93,3.12,22.13,3.58,3.73.24,21.09.62,22.84-.93,1.98-1.76,2.22-4.5-1.42-4.35-11.15.43-22.29-1.19-33.52-1.08ZM466.92,217.03c-1.23-1.09-21.02,6.81-22.82,9.99.04,3.98,15.97.08,18.96.42.25-.23.48-5.5,1.03-6.81.65-1.54,3.39-1.12,2.82-3.59ZM315.6,224.64l-46.61-2.38c6.82,4.3,15.52,6.69,23.41,7.97,2.74.44,5.62-.12,8.4.16,1.75.18,3.23,1.78,4.81,1.8s11.35-6.35,9.99-7.55ZM674.39,226.53c7.09-.58,12.18,4.98,17.45,6.85,1.07.38,2.2,1.01,2.53-.67.42-2.12-5.28-4.77-6.96-5.4-4.61-1.72-11.31-.38-10.18-6.49-1.76.15-3.53,4.92-2.85,5.7ZM366.97,222.74c-2.28-1.9-4.87,7.73-3.63,9.36,5.45,3.47,8.96,2.68,15.06,2.05-.81-4.14-5.41-5.34-8.96-3.83l-2.47-7.58ZM466.65,230.62c-2.72-4.2-17.8,1.37-22.85-.11l-1.61,2.68,25.68,3.81c.23-.22-.78-5.71-1.22-6.38ZM687.58,232.38c-4.5-1.59-9.28-4.62-14.15-2.97,1.29.66,5.04,5.63,5.42,5.72,2.35.57,6.23-.42,8.85-.03l-.13-2.73ZM644.88,231.3c-3.55.71-7.47-1.82-10.46.47,2.29,2.77,10.22,4.33,10.46-.47ZM433.61,232.26c-2.63-.8-21.91,1.62-21.87,3.32,4.79,4.59,1.84,12.16,10.77,10.03.43-.1,4.76-7.35,4.43-7.65-4.21.15-8.48,2.38-12.36-.48,1.26-1.99,2.47-1.1,4-1.16,5.19-.21,11.71,1.09,15.03-4.07ZM675.33,233.21c-4.08.36-7.27-.01-10.89-1.9l-1.48,2.83c3.9,1.38,6.96,3.03,11.19,1.21,1.35-.58,1.44-.24,1.17-2.14ZM360.34,232.26c-.8.75,6.78,8.22,7.31,8.38,2.57.8,16.45-.82,16.46-3.15-3.63-3.42-9.39-.37-13.5-.67-4.47-.33-6.52-3.12-10.27-4.56ZM226.13,242.72l-1.85-7.22c-3.25-.66-4.76,1.11-3.69,4.22l5.54,3ZM369.85,242.73c-1.08,1.46,6.33,8.28,8.99,8.62,4.4.56,23.4-2.69,28.54-3.92,1.06-.25,1.84-.32,2.43-1.41-1.88-2.88-1.16-6.48-2.03-9.36-1.13-3.74-16.2.82-19.85-.6l.94,3.79c-6.17-.67-12.33,3.09-19.02,2.87ZM446.94,244.62c.4-3.05-2.13-9.2-5.25-9.56h-.92c-.96,3.63-3.02,1.06-5.79.94-4.95-.22-7,4.97-9.92,8.15,1.1,1.64,1.48,1.24,3.04,1.18,6.2-.22,12.55-1.3,18.83-.71ZM449.97,244.44l8.85,1.22,20.45-2.46c-4.55-5.4-10.22-3.37-15.59-4.38-3.07-.58-13.54-4.05-15.31-3.71-.24.05-1.92,1.41-.92,1.89l2.51,7.44ZM598.25,237.96c-3.08-.55-1.9,1.73-1.17,3.55,1.72,4.32,5.74,7.87,8.32,11.67l2.34-5.29,3.72.66.12,8.44c5.66-2.4,4.75-.78,8.98,1.01,2.89,1.22,6.8.58,4.33-1.48-2.1-1.75-7.06-1.07-6.65-4.29l13.31,2.85c.43-2.43-.38-1.71-1.9-2.33-2.77-1.12-6.47-1.69-9.4-2.53l-.1-3.7c3.41,1.07,6.1,1.34,9.5-.02l-6.2-4.73c-2.53-.62-.91,2.35-1.43,2.81-1.02.91-6.39-1.48-8.14-1.8-1.08-.2-2.57.85-3.62.65-2.26-.41-5.71-6.26-11.52-2.61l-.49-2.87ZM484.86,247.28c-4.02-2.62-26.74-1.29-29.35.67-1.07.81-1.03,2.73-1.85,3.82.28,3.7,15.93-.01,18.61-.38,2.17-.3,4.43.17,6.5-.17,2.32-.38,4.51-2.35,6.74-2.39,3.14-.06,3.49,5.66,7.11,5.29l-7.14-8.58-.62,1.74ZM442.18,246.53h-17.61c-.32,0-1.1.93-1.79.92l-.1,1.94,12.25-1.08,7.25-1.79ZM414.2,255.48c-2.74-2.68-2.61-4.25-5-6.95l-15.55,2.76,5.94,11.18c1.74,1.64,19.88,3.67,21.69,2.64,1.43-1.03-2.69-7.78-3.07-8-.97-.57-.59,1.7-4-1.63ZM445.03,252.23c1.33-3.45.3-3.93-3.29-3.83-3.4.09-12.67,1.36-15.97,2.2-5.41,1.38-4.41,5,1.17,4.5.23,1.58-2.42,1.05-2.84,2.4-.78,2.48,4.52,4.95,5.34,7.94,2.42.87,24.94.06,27.03-1.29,2.95-1.91-2.18-6.17-3.35-8.09-1.86.77-3.75,6-5.7,5.69-2.54-.41-.34-2.26-.08-2.91.98-2.45,2.72-4.67,2.44-7.55l-4.75.94ZM502.13,268.41l-6.63-9.07-10.49-8.05c-2.69,8.4,2,7.03,4.22,10.52.78,1.23.36,3.03,1.46,4.25,1.74,1.9,8.63,1.42,11.43,2.36ZM478.34,263.64c1.89-3.96,3.51-8.18-.65-11.31l-22.19,2.76c-.81,2.59,3.11,3.18,3.58,4.01.82,1.45-.54,4.74,2.13,6.02,7.99-.91,16.15.4,24.16,1.2l1.52-1.71-8.56-.97ZM426.17,279.72c-.79-2.84-1.45-11.49-3.96-12.75-3.11-1.55-14.57.76-19.51.48-6.57-.38-10.77-2.49-16.66-4.74-1.53,1.46,6.68,10,7.47,11.08,1.4,1.92,2.24,4.42,3.97,6.5,10,12.01,20.34,10.5,34.74,9.07l1.82-.91,1.06-3.85c-1.62-3.4-9.14-.33-12.45-.04-5.83.52-11.68,1.04-17.54.94.4-6.23-6.52-8.37-4.8-15.19,10.93-2.04,9.55,5.08,10.48,13.32,4.31-1.17,13,0,16.48-1.11,1.27-.4,1.84-1.37,1.6-2.69l-2.69-.12ZM439.8,280.78c4.76-.09,9.52.06,14.28,0l.95-1.87-2.37-4.79c2.52-.52,1.65.61,2.37,1.87,2.3,3.99,3.06,7.66,8.08,2.41-5.77-2.68-4.5-6.79-6.24-11.95l-27.05,1.01c1.08,3.69,2.09,13.01,6.41,14.15,2.02.53,3.02-.83,3.58-.84ZM489.92,270.21c-.53-.37-.56-3.01-2.51-2.77l-24.3-.92c-.56.5,5.98,12.25,6.93,13.06,1.84,1.58,3.98-.2,5.44,1.69-.82,1.42-4.14-.99-3.81,1.89.37,3.21,4.07,6.55,5.01,9.77l16.83-.77c2.01-6.38-3.86-3.27-3.64-8.04.42-8.77,5.79.13,9.25.62l.16,6.52,21.82-1.95c.04-1.32.47-3.43-.14-4.51-.39-.7-11.11-7.09-13.15-9.2-1.58-1.63-2.51-4.59-3.06-5.04-1.19-.96-6.04-1.13-7.84-2.15l-.49,2.87c-1.7.54-2.24-1.46-3.47-1.66-1.01-.17-2.46,1-3.02.6ZM417.46,298.83l15.26-1.34c.76-1.41,2.59-5.69.9-6.74-14.72,1.75-28.13,3.11-38.06-9.97-.77,6.77,2.76,5.18,6.19,7.6,3.83,2.71,6.1,6.67,6.18,11.43,3.36-2.99,4.32-2.98,2.85-7.61,3.39,2.61,7.55,1.04,6.68,6.63ZM457.27,281.87c-2.78.89-19.85.05-19.83,2.24l3.48,4.19,6.97-.85-5.69,3.32,1.94,5.18c3.12-.53,18.35-.21,18.97-2.37.16-.58-.02-1.1-.16-1.65-.62-2.45-5.48-6.55-5.68-10.06ZM469.63,281.87c-1.01-.64-10.2-.5-10.3,1.29,3.44,3.47,3.71,12.19,9.49,10.94.29-1.76-1.13-3.6-.97-5.21s4.81-5.09,1.78-7.02ZM465.88,296.1l-20.83,1.84,2.88,9.46,6.62-.92-5.71,4.74,19.07-2.35c2.07-1.22-2-10.35-2.03-12.78ZM440.27,297.91l-20.31,2.06-1.57,2.22c.95,4.52,21.83,7.33,26.02,6.05,3.81-1.16-.63-7.06-4.1-5.6l-.04-4.73ZM480.24,329.31c-.98-7.3-5.9-13.19-10.17-18.91-5.31.7-10.72,1.1-16.04,1.76-6.57.81-4.62,3.45.5,1.94.44.48-.41,5.38,0,6.93.23.89,1.85.99,2.26,1.72,1.03,1.82,3.44,7.83,5.06,8.37l18.39-1.8ZM445.99,321.7l1.89-9.51c-3.69,2.48-21.7.73-22.83,3.33,4.99.82,8.17,9.83,4.79,13.32,6.08,5.07,15.44,3.34,22.82,2.86l2.84-6.19-5.15.92c-3.37-2.13.45-3.02.39-5.67l-4.75.94ZM484.82,346.26c2.36-5.3.32-9.66-1.66-14.63l-20.59,1.44c-.96,6.07,7.05,6.9,7.15,13.91l15.1-.71ZM460.13,333.26l-22.75,1.25.05,13.84c6.32-5.1,3.93,1.12,6.29,1.84l18.45-1.85c-1.37-3.01.88-13.22-2.03-15.08ZM517.3,344.64c-1.45-1.44-10.95,2.22-12.91,2.48-2.69.36-7.57-.29-11.3.3-3.54.55.67,5.28.5,7.59l4.27-1.87c1.4.9,2.03,4.06,3.75,4.36,1.11.19,21.58-2.68,22.34-3.52l1.03-6.58-7,.04-.67-2.8ZM494.52,357.85c-2.9-1.85-2.98-7.02-4.26-8.57-2.42-2.92-14.6.88-18.57.02,1.36,3.13-1.91,4.08-1.92,4.35-.06,1.23,1.47,3.45.97,5.16,4.08.66-.24-3.14,1.42-4.76l2.88,6.66c6.14-3.63,12.99-.59,19.49-2.87ZM559.23,377.86l-7.66-.53c-1.97,1.29.29,3.93-.09,5.57s-3.22,2.72-3.67,4.46c1.69.01,5.51-.35,6.68-1.4,1.64-1.46.36-3.62,1.15-5.05.35-.64,3.53-1.29,3.59-3.05ZM534.77,386.12c-2.05-2.35-.09-3.58,1.14-5.44.56-.85,2.47-2.46,0-2.83-4.33-.65-7.4,20.02,3.33,11.89-.86-1.74-3.53-2.55-4.46-3.61ZM449.78,381.66c-1.09-1.13-10.34,7.97-9.51,10.46,2.15,2.02,10.27-9.67,9.51-10.46ZM453.59,382.61c-1.03-1.11-5.05,4.47-5.67,5.27-.7.9-4.58,5.48-3.84,6.14.93.83,2.23.15,3.09-1.2.97-1.51,7.07-9.51,6.41-10.21ZM461.21,384.51c-2.44-.52-2.4.39-3.65,1.57-2.57,2.42-5.96,6.71-7.76,9.83l3.15-1.17,8.27-10.23ZM573.5,384.51l-8.1,2.83-.45,7.63c5.92.61,8.4-5.32,8.56-10.47ZM514.49,385.46l-9.49,7.14c2.7,4.75,10.09-6.5,9.49-7.14ZM477.38,387.37c-3.72-.52-12.66,11.34-13.79,11.4-1.6,0,.34-3.93-1.89-2.83-1.75.86-2.7,4.21-5.24,3.8-.22-10.31-7.73.54.52,1.92,3.05.51,5.54-1.16,8.27-2.16l12.14-12.12ZM433.61,388.32c-2.23-.48-1.53.29-2.13,1.22-.9,1.41-2.5,4.78-3.08,6.41-2.39,6.69-4.22,15.86-5.25,22.81,2.84.5,1.5-.76,2-2.23,2.28-6.74,4.13-13.76,6.08-20.61l1.43-.94-.94,5.7c7.99.07.3-7.88,1.9-12.36ZM536.39,394.03l-4.54.21c-1.44,2.08.07,5.95-1.06,7.7-.98,1.51-3.63.93-3.96,2.23-.69,2.72.32,6.61,3.54,6.86,3.61.28,1.24-4.07,1.45-5.85s4.95-10.62,4.57-11.14ZM550.66,395.93c-4.33.26-6.94,4.68-7.6,8.55,5.71.33,8.62-2.77,7.6-8.55ZM493.57,399.74l1.52,2.76,7.97-3.24c.14-2.48-8.34.88-9.49.48ZM567.79,397.83l-4.74,1.43,1.81,1.91-3.66,2.93.86,2.79,4.77.46.95-9.51ZM583.97,408.3l-.46-10.46c-3.22,2.85-3.41,8.26.46,10.46ZM509.74,398.78c-1.26-1.23-8.48,3.39-10.64,4.1-2.58.85-8.74-.07-8.38,3.5,5.31-1.4,13.09-1.94,17.84-4.5,1.51-.82,1.86-2.44,1.19-3.1ZM446.93,401.64l-9.51-1.91c0,9.1-8.22,16.88-9.51,25.69,4.01-2.49,9-19.51,11.9-20.93,1.57-.77,1.62.43.93,1.89-1.39,2.93-10.51,17.36-9.03,19.04,3.86,0,3.92-4.75,5.5-7.33s10.88-14.72,9.72-16.44ZM580.17,399.74c-3.41-1.58-5.87,5.33-4.73,6.63.46.52,3.43-1.1,2.82,1.44-3.51,4.14-7.76,4.31-6.45,10.71l4.08,4.03,7.9-8.2c-.66-5.08-6.54-9.25-3.61-14.61ZM490.71,401.64c-3.98-.32-9.73-.68-10.46,4.75.33.3,7.37-1.87,8.57-2.41,1.45-.65,2.34.11,1.89-2.34ZM451.69,403.54c-.99-.99-2.78.41-3.66,1.56-2.08,2.71-6.82,9.66-8.36,12.57-.49.93-2.1,2.92-1.29,3.93,1.38,1.73,2.11-1.33,2.45-1.79,2.88-3.91,7.16-8.49,9.48-12.44.49-.84,2.35-2.87,1.39-3.84ZM461.2,404.49c-1.66-.34-2.35.86-3.34,1.88-1.75,1.82-5.68,6.44-7,8.45-.43.66-1.85.69-1.07,2.98,1.9-.73,12.59-12.16,11.41-13.32ZM455.49,405.45c-1.05-1.13-5,4.46-5.66,5.27-2.07,2.52-4.86,5.84-5.74,9,1.63-1.3,12.42-13.18,11.41-14.27ZM512.6,407.35c-1.8-.26-17.85,4.27-15.22,6.65,5-.99,11.69-2.88,15.22-6.65ZM532.58,412.11l-7.19.88c-1.09,1.58.11,5.07-.56,7.06-.58,1.72-5.48,2.51-3.66,7.28l5.28-.91c.85-2.93.77-6.52,2.13-9.28,1.46-2.98,4.17-2.15,4.01-5.03ZM545.9,412.1c-3.49-1.45-5.78,3.65-7.15,6.66s3.65,3.66,5.12,2.72c.7-.44,2.72-8.72,2.02-9.38ZM563.03,413.06c-3.46.58-8.88,2.87-3.77,5.24-5.62,11.46,6.25,2.12,3.77-5.24ZM483.09,417.79c.51-.7-.65-2.64-1.4-2.73-1.89-.25-14.04,9.96-13.82,13.21,1.26,1.26,11.36-8.17,12.88-9.53.83-.74,2.27-.85,2.34-.95ZM506.89,418.77c-1.12-1.04-11.75,3.81-10.46,7.6,1.26,1.18,12.13-6.05,10.46-7.6ZM422.18,419.72c-1.51-1.12-8.38,8.59-9.34,10.15-.81,1.32-6.42,11.73-6.62,12.4-.39,1.35-.56,5-.22,6.28.28,1.04,2.36.92,2.77,2.22s-1.53,3.06.61,4.15l4.25-.96c1.13-1.66-4.79-7.53-4.54-10.77.19-2.44,4.43-6.81,5.86-9.31,1.14-1.99,2.48-9.55,4.87-7.51,3.17,2.71-2.35,4.93.97,5.71,2.63.62,5.53-1.37,7.11-3.34,1.24-3.02-4.32-.04-4.75-.47,1.42-3.26-.27-5.42-.97-8.56ZM465.96,420.67l-12.15,4.97-2.11,8.35c3.77-2.2,6.19-7.41,9.58-9.88,1.88-1.37,5.31-.5,4.68-3.44ZM492.61,425.43c-.67-.62-14.17,4.19-15.28,5.23-.98.92.11,2.91-.82,4.53-.45.78-6.98,5.28-5.77,6.41l12.86-10.46,1.89,1.89c.56-1.2,8.83-6.03,7.14-7.6ZM451.69,427.33c-5.44-.66-5.7,4.36-8.15,7.54-2.53,3.28-5.5,6.29-8.02,9.57,4.34,1.38,17.41-15.95,16.17-17.11ZM574.46,427.33c-3.46.56-3.49,4.07-7.6,1.89l-.95,5.71c.76.75,9.62-6.61,8.56-7.6ZM525.93,429.23l-7.61-.95c1.31,2.11.13,5.3.48,6.77.31,1.29,2.21,2.68,2.21,3.22,0,1.23-6.49,4.81-5.62,7.58.38,4.05,7.83,4.27,9.52.88-4.17-6.37.6-11.06,1.02-17.5ZM559.91,428.42c-1.34.38-5.33,4.65-5.48,6.09-.85,7.92,16.14,1.9,8.63-5.78-1-.67-2.05-.62-3.15-.3ZM535.45,441.6c6.97-.65,9.06-8,3.31-12.36-5.53,1.51-1.43,6.91-1.57,7.9-.15,1.06-2.48,2.51-1.74,4.46ZM475.48,431.14l-14.82,6.58c-4.11,9.83-13.85,15.46-20.39,23.39-.89,1.07-2.31,1.54-1.9,3.33,5.58-.01,6.15-4.67,8.53-7.17,5.79-6.07,12.62-11.57,17.64-18.52l1.88,3.79,9.05-11.41ZM443.13,432.09l-4.63.11c-1.34,6.84-8.35,10.05-11.55,16.04,6.95-1.65,11.37-11.1,16.18-16.16ZM435.51,433.99c-1.79-1.75-9.2,10.16-10.46,11.4,1.04.99,4.44-2.94,5.25-3.78.73-.77,5.87-6.99,5.22-7.62ZM428.85,436.85c-1.57-1.55-10.94,11.26-11.9,12.36-1.78.94-1.48-4.01-3.32-1.89-1.18,1.37,2.86,6.35,5.74,4.35l9.48-14.82ZM572.55,438.75c-1.53-1.58-10.13,9.72-8.56,11.41,1.49.17,3.21-.85,2.87,1.44-.26,1.79-6.29,8.58-5.73,9.02,1.77.31,2.62-.3,3.89-1.36,2.22-1.84,8.32-8.82,9.61-11.3.45-.87,2.14-4.96,1.72-5.41l-5.7,3.8,1.89-7.61ZM562.09,439.71l-8.57.95c1.57,4.1-.96,5.07-1.89,8.56,3.54-3.08,7.86-5.47,10.46-9.51ZM456.45,441.61c-3.07.6-12.35,4.28-14.24,6.21-3.74,3.8-9.97,12.24-14.28,17.12-1.88,2.13-4.81,5.4-5.73,8.06l18.6-16.12c2.59-1.77,5.84-8.07,7.58-9.55,1.91-1.62,6.89-1.66,8.07-5.72ZM563.99,441.61c-4.54.2-4.26,5.14-6.02,7.77-2.17,3.25-5.23,6.01-7.3,9.35,3,2.34,15.17-15,13.32-17.11ZM513.55,445.41c-1.58-1.55-8.2,4.38-4.74,7.6,1.76,1.64,4.63-6.4,4.74-7.6ZM536.26,447.45c-11.53-6.04-6.7,14.84-1.29,8.43,1-1.18,2.06-7.21,1.29-8.43ZM404.83,452.81c1.12-1.93-.59-6.25-1.66-5.5l-6.66,13.32,8.32-7.82ZM438.37,450.18l-7.09,1.94-17.65,25.64c1.94.24,3.11-1.62,4.29-2.84,7.11-7.37,13.41-17.1,20.45-24.74ZM518.31,467.28c-3.29-5.74.68-9.12,1.85-14.62l-5.07-2.3c-4.36.85-11.7,26.47,3.21,16.93ZM426.94,454.93c-5.13-.02-4.7,4.88-6.81,7.93-1.37,1.99-15.16,18.6-14.12,19.65,2.17.08,3.97-2.35,5.17-3.86,3.98-5.01,9.65-12.91,13.12-18.28.64-.98,3.41-4.68,2.64-5.44ZM475.48,455.88c-1.79-.41-2.26,1.01-3.33,1.9-4.65,3.86-8.71,8.92-12.85,13.31,5.15.13,10.99-7.84,14.28-11.88.87-1.07,2.31-1.53,1.89-3.33ZM420.28,457.78l-5.45,1.2-19.28,29.24c1.92.41,2.54-.42,3.84-1.38,3.61-2.65,13.63-17.42,16.93-22.09.71-1.01,4.62-6.37,3.96-6.97ZM535.44,469.19c4.39.44,7.38-3.87,7.93-7.8.18-1.31,1.02-1.41-.82-2.66-5.28.87-5.59,6.45-7.12,10.46ZM559.23,459.69l-4.39,2.79-2.29-1.35c-4.1.5-.65,4.76.04,7.12l6.64-8.56ZM493.56,460.64c-1.06-1.12-9.37,7-8.56,7.6,3.26,1.96,9.82-6.26,8.56-7.6ZM508.03,488.04c-2.83-3.81,1.19-12.52,2.48-16.34l-4.58-2.96c-8.3,4.89-2.78,4.44-1.92,8.57.4,1.95,1.27,10.64.51,11.88-.9,1.47-5.73,2.54-7.62,3.8-10.6,7.02-25.75,17.95-35.9,25.73-1.55,1.19-9.25,7.63-9.8,8.5-.42.67-1.07,1.65.04,1.92.84.14,1.47.76,2.37.44,3.51-1.25,9.69-7.64,13.74-9.99,5.39-3.13,12.9-5.44,18.53-9.07,1.57-1.02,12.08-9.68,12.44-10.4,1.7-3.36-6,1.06-5.69,1.44-1.79-2.2,10.67-7.33,12.94-7.55,5.03-.49,5.5.71,5.14,5.65l3.79-.95c.2,2.06.16,3.43-.89,5.28-3.01,5.29-23.81,18.46-30,22.34-7.25,4.54-17.26,7.24-22.39,15.19,5.49-2.33,12.34-3.89,17.44-6.82,6.05-3.47,17.99-13.72,23.55-18.33,6.04-5.01,18.74-7.67,17.94-18.54-7.07-.24-5.13-4.95-7.07-7.69-1.08-1.52-4.36-1.19-5.04-2.1ZM520.21,469.2c-.68-.72-7.71,3.34-8.07,3.82-1.32,1.74-2.33,13.24-.87,14.34,2.85,2.16,3.87-.95,5.13-1.37,2.61-.86,5.87-1.17,8.57-2.53.81-3.82-4.49-.22-5.57-3.45l.81-10.81ZM491.66,470.15c-1.61-1.66-8.95,6.87-7.6,8.56,1.83-.71,9.45-6.65,7.6-8.56ZM548.76,474.91c-3.97-1.62-13.81,10.53-12.36,12.37,2.26-1,4.37-2.06,6.22-3.76.83-.76,6.85-7.98,6.14-8.6ZM460.26,494.89c6.51-1.62,9.08-7.19,12.81-11.45,1.95-2.22,5.97-2.66,5.26-6.63-.7-.89-15.03,13.37-16.17,14.75-.89,1.07-2.31,1.54-1.9,3.33ZM387.93,477.77c-1.1-1.17-8.49,5.9-6.65,8.55,2.39,2.45,7.25-7.92,6.65-8.55ZM429.8,484.43c-4.93-1.03-3.36,1.49-5.26,3.75-3.96,4.72-8.68,8.95-11.86,14.31,6.64-.93,10.92-7.7,14.42-12.73,1.27-1.82,3.82-1.3,2.7-5.34ZM386.02,493c-3.94-.53-4.57-5.22-7.14-7.63-4.53,1.11-1.02,2.88-.74,4.42s-1.41,4.03-.57,5.93c2.92,1.68,8.16,1.4,8.45-2.72ZM387.46,485.39l-3.28,4.28,4.1,2.21,2.36-2.21-3.18-4.27ZM516.58,494.73c8.62,5.35,11.24-2.52,6.98-9.34-4.34,2.7-8.78,2.77-6.98,9.34ZM462.16,487.28c-1.01-.94-9.14,4.81-10.16,6-.74.86-6.7,10.41-6,11.12l5.27-2.81,10.9-14.31ZM458.98,512.64c2.02-1.52,3.86-6.23,7.88-6.87l17.17-14.21c-1.24-1.71-1.95-1.64-3.84-1.01s-8.49,4.99-10.71,6.43c-31.72,20.5-60.69,45.67-92.9,66.98-8.99,5.95-18.04,13.74-27.55,17.7l-.22,2.54-2.3.13.49,2.86-3.32-1.89c-5.52,3.93-11.27,10.07-16.73,13.73-4.99,3.34-14.07,5.42-17.43,8.08-.9.71-.79,2.7-.59,2.92,2.99,3.16,22.3-13.56,25.75-14.72,13.42-4.54,32.64-18.38,45.29-27,15.16-10.33,28.57-22.37,43.22-32.91,11.4-8.2,24.55-14.3,35.77-22.75ZM406.01,495.85c-1.24-1.3-6.1,4.64-5.76,6.18l1.95.95c-5.44,2.33-6.24,7.15-9.1,10.89-.89,1.16-8.92,9.75-8.02,10.52,1.35,1.17,2.38-.49,3.13-1.17,3.71-3.35,15.06-15.75,16.4-19.82.61-1.86-.45-3.02-.23-4.09.26-1.28,2.14-1.74,1.63-3.46ZM371.57,507.05c.73-.47,2.89-6.12,4.91-6.93-1.82-1.94-2.69-3.71-4.61-.84-.92,1.37-5.21,10.94-.3,7.76ZM385.08,500.6c-1.38.09-2.97-.27-4.28,0-2.54.51-11.54,14.02-13.36,17.1-.74,1.25-1.93,1.86-1.39,3.84l5.69-5.25c1.71-2.11,5.1-9.55,8.59-8.06l.93,1.89c.23-3.93,4.76-5.29,3.82-9.51ZM437.41,501.56c-4.44-1.97-25.96,17.09-24.74,18.07,5.1-.64,8.63-6.03,13.25-8.16l11.49-9.91ZM389.83,506.32c-1.12-1-7.22,5.89-8.2,7.01-7.03,8.04-14.47,19.78-19.98,29.04-.92,1.54-2.08,1.25.1,2.93l28.07-38.99ZM393.64,508.22c-1.79-.38-2.31.87-3.26,1.97-5.34,6.17-13.02,15.77-17.48,22.48-.88,1.32-2.34,2.35-2.09,4.08,1.86.43,2.25-.98,3.24-1.99,7.7-7.86,13.52-17.45,19.6-26.55ZM354.63,547.22c1.81,1.79,6.75-7.96,8-8.64l15.78-26.56-23.78,35.2ZM487.76,520.49l-1.35-4.67-5.21,3.35,1.55,2.3,5.02-.98ZM423.14,519.64c-1.14-.92-7.39,3.29-8.68,4.19-.54.38-3.42,1.05-1.78,2.46.86.74,7.31-3.47,8.57-4.3.46-.3,3.74-.86,1.89-2.35ZM348.92,548.17c2.02.27,3.1-1.62,4.2-2.93,3.47-4.15,9.65-13.33,12.36-18.09.68-1.2,1.85-2.1,1.51-3.71l-4.21,3.87-13.85,20.87ZM439.32,528.21c-1.8.1-15.52,8.19-15.22,9.03.87,2.43,2.06.49,2.92.09,4.15-1.92,9.57-5.48,12.3-9.11ZM461.21,528.21c-15.68,5.99-27.65,19.34-41.62,28.29-1.35.87-2.04,2.16-1.2,3.09,1.29,1.46,25.63-19.15,29.42-19.58l13.4-11.8ZM355.57,532.96l-3.28,1.95c.19,2.21-8.72,12.74-8.14,13.26.93.84,2.22.14,3.09-1.21,2.94-4.55,5.91-9.15,8.32-14.01ZM388.88,532.96c-.83-.86-9.71,7.46-11.09,8.41-6.9,4.75-10.86,8.71-16.58,12.92-2.05,1.51-6.11,2.16-8.72,4.34-1.49,1.24-4.92,5.56-5.48,7.63,2.42,2.16,17.66-13.29,20.43-15.24,7.39-5.22,12.67-7.29,19.55-14.7.97-1.04,2.23-1.65,1.88-3.35ZM348.91,534.86c-5.64.22-7.54,5.49-6.65,10.46,1.52,1.76,8.19-8.07,6.65-10.46ZM459.3,539.62c-3.18-2.49-22.21,13.72-26.95,14.43l-6.34,5.54c11.18-4.46,21.87-10.37,31.5-17.52,1.06-.79,2.37.02,1.8-2.45ZM356.52,549.14l-10.97,2.59-5.68-7.36c-9.01,19.35,8.41,13.74,16.65,4.76ZM335.58,558.64l-2.37-8.55c-4.84,3.67-3.6,8.16,2.37,8.55ZM403.16,576.72l33.03-15.97c2.64-2.43,5.93-4.27,8.57-6.66,1.03-.93,2.66-1.03,2.16-3.06-7.9,4.17-15.73,9.03-23.83,12.8-1.73.8-3.74.28-5.62,1.04-.7.28-10.65,7.62-12.15,8.79-1.16.9-2.58,1.1-2.16,3.07ZM409.81,565.31c-1.54-.23-2.57.73-3.73,1.5-13.72,9.13-29.2,19.35-43.41,26.11-3.85,1.83-3.2,3.84,1.13,3.01,14.24-2.72,26.4-16.92,39.29-23.55l6.72-7.07ZM318.44,569.12c-6.37,1.4-4.83,6.61-5.7,11.41l3.77-1.53-.92-3.22,8.56,2.84c.29-2.56-2.07-2.17-3.66-4.41-.98-1.38-1.75-3.42-2.06-5.1ZM327.79,573.61l-6.47-1.64c-.55,2.44.67,1.66,1.78,2.46,2.17,1.55,5.5,4.27,7.78,1.69l-1.02-4.15c-2.26-.89-1.77,1.48-2.07,1.64ZM400.3,578.64c-6.92,2.05-14.63,8.45-19.98,13.3,7.19-2.49,14.79-7.87,19.98-13.3ZM304.18,591.96l-5.59,5.44,2.31,6.01c2.85.68,2.44-1.97,4.21-3.37l-3.79-1.44,2.86-6.64ZM319.4,592.91c-5.12,1.08-7.09,8.61-12.37,7.07-1.59,1.98-3.02,4.43.61,3.56,5.61-1.34,9.49-5.38,11.75-10.63ZM350.81,599.58c-2-.28-3.57.12-5.44.73-3.44,1.13-16.45,9.63-20.19,12.17-3.32,2.26-15.35,10.8-17.21,13.21-.97,1.26-1.2,2.93-1.89,4.32l44.73-30.43ZM300.37,607.17c.54-3.15-2.45-4.62-4.28-6.63-3.05,2.09-2.69,4.45-1.33,7.51l5.61-.88ZM360.33,606.23c-1.66-.32-2.75.43-4.12,1.11-5.83,2.85-20.63,13.38-26.06,17.71-1.12.9-2.61,1.08-2.16,3.06,6.65-.53,10.51-6.45,15.48-9.73,3.54-2.34,7.95-4,11.08-6.05,1.64-1.07,5.58-3.95,5.79-6.1ZM284.19,619.55c-1.3-1.37-6.29,5.71-6.59,7,7.39,12.82,26.17,1.84,32.29-7-.53-.48-7.96,3.68-8.57,4.31-.94.97-.57,2.66-1.62,3.32-2.68,1.68-14.22.73-16.47-1.44-3.16-3.03,2.91-4.13.96-6.2ZM305.13,630.03c-12.34,2.73-26.98,25.48-37.59,8.57-2.05,1.29-.79,1.65-.76,2.62.12,3.72-.5,10.23,3.83,11.47,5.38,1.54,12.8-7.22,17.08-10.14,5.9-4.04,12.96-6.76,17.45-12.52ZM310.84,632.88c-9.97,3.88-20.19,8.56-28.27,15.97-1.03.94-2.65,1-2.17,3.05,1.49,1.4,25.51-13.75,28.28-15.96,1.12-.9,2.61-1.08,2.16-3.06ZM264.2,642.39c-2.58.8-3.99,8-1.4,8.56,3.88.83,1.36-6.85,1.4-8.56ZM256.46,666.3l-4.63-2.53c-2.74,3.01-3.32,5.99-2.84,10.01.64.74,9.21-4.52,7.48-7.49Z"/>
        <path class="cls-1" d="M274.56,242.6c1.31-.75,1.1-6.42,3.92-5.58l-3.58,8.09,10.93,9.85c6.06,1.67,18.91-11.53,22.14-1.77-6.11-4.52-14.38,2.86-21.01,4.34l-13.9-10.34c-3.72-7.59-14.39-13.25-22.65-14-1.31.68,1.23,1.86,1.71,2.1,3.02,1.5,6.92,2.14,9.13,5.21l-1.75,11.68,7.56,1.01c.69,3.99-7.29-.53-9.42-.1l1.4-12.27-13.87-6.68c2.23-3.96,7.36-3.1,11-1.95,1.57.5,8.86,4.05,10.27,4.95,2.17,1.37,5.64,6.87,8.11,5.45Z"/>
        <path class="cls-1" d="M495.24,101.16c.21.3,2.57,6.5,1.21,6.93l-17.16,1.39c-.09-3.91,3.81-2.62,6.18-2.84l.47-1.89c-2.39-.15-3.7-2.83-5.67-3.46-2.6-.84-5.33,1.83-5.74-1.78,1.95-4.85,19.43-.18,20.71,1.65Z"/>
        <path class="cls-1" d="M476.38,78.03c-2.84.09-3.16,4.01-5.37,4.67-2.53.76-7.4-.87-10.76,1.1,2.5-4.75-.27-8.29,4.37-12.45,1.55.86,13.89,3.68,11.75,6.68Z"/>
        <path class="cls-1" d="M523.91,101.09c.32.54-1.11,3.27.12,4.59l-3.78.09-.51,2.77c-1.25-1.65-8.36-3.05-8.88-3.96s.1-2.75-.31-3.97c-.48-1.44-4.41-1.76-2.7-6.33,1.12-1.16,15.62,6.06,16.07,6.82Z"/>
        <path class="cls-1" d="M465.97,61.91l3.83-5.29-.98-3.26c7.05-.86,8.77,3.35,12.35,8.08-1.19,1.83-1.5,1.04-2.83.98-4.14-.19-8.27-.33-12.37-.52Z"/>
        <path class="cls-1" d="M499.07,87.82c.25.15,2.19,3.59,2.11,4.04-.45,2.61-7.68,1.15-9.52.5v3.8c-1.67,1.96-7.47-8.41-3.26-9.4.52-.12,10.2.78,10.66,1.05Z"/>
        <path class="cls-1" d="M243.27,249.37l-2.87.02.49,3.79c-6.14-5.61-6.93-12.86-.95-19.02,2.05,4.92,0,10.99,3.33,15.21Z"/>
        <path class="cls-1" d="M444.92,372.02l-3.7.11c2.14-5.48-4.28-19.71,6.44-13.83l-2.74,13.72Z"/>
        <path class="cls-1" d="M271.82,253.19v11.41c-7.37-1.04-12.03-7.37-19.98-5.71-2.94-2.21,4.97-2.06,6.13-1.85,3.78.68,7.36,5.3,11.94,4.7.33-.34-.9-12.24,1.9-8.56Z"/>
        <path class="cls-1" d="M524.71,81.2c2.04,2.49-.08,5.81-3.04,6.41l-7.17-8.56c2.53-.3,8.57.16,10.21,2.15Z"/>
        <polygon class="cls-1" points="542.1 120.91 533.2 121.95 531.69 117.7 537.7 114.34 542.1 120.91"/>
        <path class="cls-1" d="M449.31,366.45c1.69.88,4.56,2.94,4.15,5.08-.24,1.28-4.41,3.48-5.11,3.43-2.32-.17-.28-8.47.96-8.51Z"/>
        <path class="cls-1" d="M345.09,91.42l.76,6.89-4.55,5.47c1.35-4.48,4.81-7.24,1.9-12.36h1.89Z"/>
        <path class="cls-1" d="M520.21,237.97l-.84,8.93c1.56,1.06,3.04,2.24,4.54,3.33.88.64,5.09.27.03,2.56l1.99,7.07,3.79-.95c.63,2.76-1.79,1.25-2.43,3.7-.58,2.23-.47,4.49-.41,6.75,2.91.65,1.85-2.33,3.34-3.78.24-.24,5.36-3.79,5.7-3.81,1.05-.04,1.31,1.61,1,2.87-.39,1.61-2.12,7.63-2.61,8.86-.76,1.9-3.17.8-2.67,2.99,3.91,2.21,8.91,4.1,11.4-.46,1.01,7.92-2.39,14.61-4.83,21.81l-1.34.08c-3.6.15.54-3.2,1.01-4.7,1.08-3.42.25-7.64,3.24-11.01-4.69-4.06-10.28.48-15.19,1.43,1.28-6.04-.23-11.15-.96-17.12l-4.29.96-.47-5.72c-2.44-3.19-3.44,10.18-6.65,8.55-.43-.49,1.84-10.71,1.52-12.89-.19-1.27-3.41-2.66-2.46-5.18l2.83,1.9,2.88-11.88h-4.77c2.82-1.15,3.27-5,6.65-4.29Z"/>
        <path class="cls-1" d="M556.38,217.5l2.37-1.42c3.76,1.9,1.25,4.56,1.61,6.1.74,3.14,8.46,3.1,8.47,14.37,0,1.59-.01,7.86-2.92,7.12-.17-2.44.89-4.68.99-7.1.51-11.62-5.93-3.35-2.91,3.29-3.7.73-7.6-2.19-8.17-5.72-.25-1.5.57-2.07.57-2.36v-14.27Z"/>
        <path class="cls-1" d="M560.24,281.63l-.06-2.76-4.75,1.9c-.47-1.9,1.97-2.63,1.93-4.27-.04-1.37-2.04-2.51-1.85-3.69.34-2.09,6.64-7.67,9.76-6.2,3.93,3.6,1.58,9.46,5.29,12.74-2.24,3.58-6.79,2.31-10.31,2.27Z"/>
        <path class="cls-1" d="M547.44,281.82c10.59-3.73-2.53,16.31-2.49,17.57,1.42,2.88,3.77,2.94,4.95,6.46,1.75,5.21-3.09-.38-4.45-.36l-2.87,1.92c-5.41-3.18,1.99-24.58,4.86-25.59Z"/>
        <path class="cls-1" d="M599.19,305.52l3.08,9.31,6.91,2.17c.9-1.43-.05-2.45,2.39-1.95l.89,6.25c3.62,2.61,7.25-4.92,8.63-3.39l-.95,9.51c-3.53.99-1.18-3.9-1.91-4.75l-7.17.24-1.24,1.33c.53,4.48-2.87,10.82-.9,14.85,1.46,3,5.23,1.67,6.47,4.5-16.15-1.08-5.7-14.7-6.85-23.1-.66-4.8-5.87-2.04-9.16-7.03-.95-1.45-4.47-8.35-.18-7.92Z"/>
        <path class="cls-1" d="M562.09,296.97c-2.64,6.61-1.05,18.61-10.47,19.02-.41-2.57,1.75-4.87,1.84-7.2.08-2.08-1.18-3.97-.89-6.51.06-.48,3.06-8.73,3.31-9.15,1.69-2.86,2.86,5.77,6.2,3.83Z"/>
        <path class="cls-1" d="M554.47,254.15c-3.25,6.16-10.37,3.07-15.23.44,1.72-2.34,3.88-11.92,7.11-11.91,5.2.01,6.42,6.54,3.36,10.01l4.76,1.46Z"/>
        <path class="cls-1" d="M569.7,311.24l-3.81,7.59,4.74,2.39c-3.73,3.11-4.53,8.18-6.65,12.36l5.71.96c-2.93,2.76-7.78.97-11.41,1.43-.25-2.37,2.41-4.29,2.67-6.39.24-1.99-1.15-3.39-.39-6,.15-.51,4.43-8.76,4.89-9.45.55-.8,3.24-3.83,4.24-2.89Z"/>
        <path class="cls-1" d="M580.17,288.4c-1.28,5.37,3.53,9.6,1.91,14.26,1.95.19,4.46-1.09,3.8,1.9-6.69.84-10.82-2.8-15.21-7.13,1.41-.63,7.96-10.86,9.5-9.04Z"/>
        <path class="cls-1" d="M590.63,315.99c-.91,4.76,5.35,5.72.98,10,1.81,2.71,3.51.45,5.68-.48.88,3.64-8.79,6.2-10.82,5.63-3.54-1-1.59-16.65,4.16-15.15Z"/>
        <path class="cls-1" d="M606.58,347.63c.8.81,1.46,6.66,2.14,8.32l-5.77-4.21-.89-3.39-5.7,2.85c-.62-2.16,2.58-3.08,2.77-4.4.16-1.1-1.61-2.17-1.76-3.67-.56-5.49,10.61-6.3,4.76,1.78.51,2.12,3.76,2.01,4.46,2.72Z"/>
        <path class="cls-1" d="M514.51,212.27l6.64,4.27c-4.79,4.2-2.68,9.66-.15,14.45l-2.26,3.13c-4.77,1.09-3.39-18.68-4.23-21.86Z"/>
        <path class="cls-1" d="M592.3,262.98c.51.69.32,2.12,1.18,3.02,2.63,2.75,6.99-.09,7.62.51-.47,5.18-4.98,7.32-9.63,6.14-5.39-1.37-2.73-14.53.83-9.68Z"/>
        <path class="cls-1" d="M604.91,228.43c-1.48,2.22-6.7-1.7-8.17-1.9-2.12-.28-4,1.11-6.1.96v-2.86c-.18-.21-5.24,2.83-4.75-.45,1.14-2.21,7.62-2.74,9.92-2.34,2.05.36,11.12,3.58,9.1,6.6Z"/>
        <path class="cls-1" d="M597.3,377.85c.41,1.57-1.68.44-1.93,1.55-.29,1.3-.88,7.73-.94,9.42-.12,3.82.56,7.42,2.85,10.5l7.63-1.48c-12.42,11.7-13.97-9.78-11.24-18.39.6-1.91,2.01-1.73,3.63-1.59Z"/>
        <path class="cls-1" d="M615.38,214.16c-4.99,2.5-12.12,4.86-17.12,1.43.78-4.44,4.38-.67,7.11-.61,3.53.08,8.29-4.56,10.01-.82Z"/>
        <path class="cls-1" d="M629.93,317.59c2.7,2.27,4.49-.67,6.37,1.73-4.83,2.25,3.06,8.81,1.92,9.99-5.1-.06-4.81-6.64-6.19-8.55-1.13-1.56-8.11-2.06-3.8-5.7.63.03,1.12,2.04,1.7,2.53Z"/>
        <path class="cls-1" d="M623.07,343.51c.84.74,3.87-1.24,5.97.14,2.66,1.75,4.03,6.57-.33,6.59v-4.76c-4.87,1.33-9.84-2.57-9.05-7.6,2.4.64,3.16,5.4,3.41,5.63Z"/>
        <path class="cls-1" d="M580.17,276.02c-2.53.52-1.64-.64-2.36-1.87-.54-.92-7.12-12.56-2.87-12.38,1.77.08,4.85,11.89,5.23,14.25Z"/>
        <path class="cls-1" d="M606.82,200.85l-.56,2.94c-3.94.59-10.55,4.37-9.91-1.99,3.8,1.78,6.2-2.1,10.47-.95Z"/>
        <path class="cls-1" d="M597.31,280.79c1.06-1.15,7.15,5.09,6.24,6.68l-4.37,1.45-1.87-8.12Z"/>
        <path class="cls-1" d="M643.93,348.34c-1.11.85-2.25.11-3.1-1.2-2.28-3.51-5.69-7.27-6.41-11.16l7.08,7.66,2.43,4.69Z"/>
        <path class="cls-1" d="M592.53,205.6l-1.91-.49.97-3.3-3.8.94c-.74-3.56,2.24-4.02,5.15-4.7,3.32,2.09-.14,4.86-.42,7.55Z"/>
        <path class="cls-1" d="M610.62,298.87c.57.66-1.33,6.65-2.37,6.64l-4.28-8.54c3.1.16,3.12,3.74,6.65,1.9Z"/>
        <path class="cls-1" d="M602.06,377.85c-2.92,6.65,1.36,7.8,4.76,12.36-5.44.03-11.73-10.39-4.76-12.36Z"/>
        <path class="cls-1" d="M635.37,303.63c-.65,3.76-16.5,1.99-13.32-.96,4.33,1.38,8.83.92,13.32.96Z"/>
        <path class="cls-1" d="M592.54,213.22c1.96,1.64-7.15,5.23-7.6,4.75-.65-4.52,4.24-4.99,7.6-4.75Z"/>
        <path class="cls-1" d="M626.8,210.37c-.24,4.13-5.52,3.97-8.56,3.8-1-3.04,8.16-4.14,8.56-3.8Z"/>
        <path class="cls-1" d="M354.4,245.76c.47.82.16,1.79.22,2.66-3.61.77-6.76-1.8-10.02-1.95-2.61-.12-9,2.45-9.68-2.31-.33-2.33,8.08-5.38,9.71-8.08.44,4.28,8.7,7.86,9.76,9.68Z"/>
        <path class="cls-1" d="M120.03,161.83c1.38.35,2.36,1.97-.42,2.28-3.78.42-9.26-1.08-13.38-.36,2.35,3.68,8.66,1.21,12.37,1.9,3.18,2.41-7.16,1.99-8.13,1.94-3.67-.17-7.17-1.44-10.89-1l4.75-1.9-5.24-2.85.95-1.87c1.34.35,4.77,1.87,5.73,1.87,3.49,0,11.59-.68,14.28,0Z"/>
        <path class="cls-1" d="M159.53,174.2c.15,1.44-2.47,1.74-3.42,1.8-5.25.36-11.47-.24-16.85.12l-3.07-3.83c-1.24-2.85,3.7-.97,4.78-.95,3.33.06,6.67-.03,9.99.02l-5.71,2.85h14.28Z"/>
        <path class="cls-1" d="M188.08,197.99c-.35,1.74-1.87,1.78-3.3,1.94-5.18.58-10.33-.41-15.36-.9-2.58-.25-7.6,2.3-4.16-5.07,2.58-5.52,7.52,4.03,8.07,4.03h14.75Z"/>
      </g>
    </g>
  </g>
</svg>