<?xml version="1.0" encoding="UTF-8"?>
<svg id="Layer_2" data-name="Layer 2" xmlns="http://www.w3.org/2000/svg" viewBox="0 0 645.29 975.05">
  <defs>
    <style>
      .cls-1 {
        fill: #c0bebe;
      }
    </style>
  </defs>
  <g id="Layer_1-2" data-name="Layer 1">
    <g id="d3Gfrz">
      <g>
        <path class="cls-1" d="M48.26,757.54c.27-11.72,7.86-26.01,9.62-38.08l48.82-156.63-23.22-46.01c-1.51-1.93-6.65,2.18-8.4,2.85l-1.67-2.99,2.34-3.06,1.12-9.64,6.56,10.08-3.84-9.28c4.14-.27,3.11,7.87,7.35,7.41-3.5-4.61-5.84-18.23-11.41-8.63-1.14-4.2-4.45-7.76-3.28-12.44,2.17-4.21,10.29,10.17,10.97,10.62,2.45,1.65,8.03,2.97,11.02,2.76l2.01,3.85-5.54,3.13c-1.7,1.75-.13,5.33,2.68,4.62l17,33.45c2.08-2.52-.35-6.21-1.5-8.76-3.58-7.96-8.78-18.57-15.1-24.31,1.82-1.8,3.21.37,4.24,1.78,4.63,6.36,6.11,14.76,12.92,19.64l-5.41-17.49,3.2,2.81-2.23.04,7.15,15.46c4.62-3.51-3.2-10.69-5.32-14.15,2.4-1.8,1.81-.24,2.92,1.28,1.59,2.18,2.51,5.78,5.36,6.75-.11-5.48-5.02-10.15-.89-15.4l3.32,6.16c2.97-4.55-3.8-10.05-4.68-15.02l-1.97,2.69-2.42-.4c.22-2.55.39-5.71,3.03-6.84l-1.79-2.4-7.43,2.92c-4.48-3-.18-4.92.87-7.83,2.15-5.92-4.47-13.18-4.77-19.55l2.53-1.28,4.16,3.31-3.81,1.41,1.3,4.48,2.98-4.99c1.77,5.24,5.55,8.25,10.77,9.65,3.09.83,4.01-1.91,7.26,2.83l-7.7,4.66,6.15,11.45,4.63-11.5c.52-4.91,5.21-13.25,5.19-17.67,0-2.73-4.45-11.28-5.88-14.28-12.55-26.36-24.2-51.67-30-80.76-1.78-8.93-.95-21.2-3.05-28.67-2.59-9.2-15.56-28.95-20.14-39.29-1.44-3.25-9.01-22.1-8.33-24.26,1.92-6.16,25.67-13.8,31.18-19,12.21,12.95,19.45,29.2,28.38,44.35.62,1.05,1.09,3.63,2.52,2.6L55.93,181.14l-4.7,1.86-1.41-2.64,4.42-2.37c-1.86-5.6-6.8-10-9.21-14.93-5.07-10.37-11.1-24.85-15.7-35.81C12.29,86.68,1.09,44.63,0,.58c1.82-1.34,3.73-.07,5.19,1.11,9.32,7.49,21.43,19.84,29.74,28.71,28,29.91,47.07,65.5,69.98,98.67,3.91,5.66,3.5,12.39,8.79,17.12l4.46-1.31c2.51,2.45-3.56,3.95-3.85,5.51,25.25,43.59,48.67,88.99,72.16,133.68l5.14,6.37c-6.58-12.81-14.24-25.53-19.64-38.88-1.94-4.8-3.91-8.38-2.87-13.72-.48,1.95.91,1.58,2.25,1.06,9.36-3.58,19.21-11.36,28.65-15.36.82-1.8-.84-1.62-2.24-1.07-9.73,3.82-19.35,10.57-28.66,15.37.06-.29-1.37-1.34-.41-2.1l29.71-15.93c.98-.26,3,2.13,3.71,2.83,15.75,15.4,22.9,41.34,35.1,57.48,3.73,4.93,13.35,10.39,18.46,16.72,4.8,5.96,7.7,16.51,12.82,22.73l-2.68-.82c.96,2.61,2.92,4.63,5.92,3.66l3.01-3.91c11.57,14.11,22.26,29.17,31.88,44.66,3.07,4.95,6.55,14.95,10.88,17.93l50.72,15.5c2.28-.74.62-1.55.09-2.92-.88-2.29-2.01-4.37-2.7-6.73-.16-.54-1.96-5.68-.28-5.26l3.61,2.64-1.01,2.22-1.82-1.29c3.68,4,2.87,13.42,9.3,13.16-1.42-3.47-3.85-6.53-5.62-9.75-.63-1.15-1.82-1.52-.12-3.06l8.65,14.09,230.37,68.59,5.3-2.61,14.01,14.77c6.73,9.75,6.72,26.24,6.27,37.96-.03.67.98,3.85-1.26,2.91-1.74-.73.47-13-.77-16.08-2.32-.03-3.36-1.83-5.48.16,2.35,2.87-2,3.73,1.94,5.75l-2.65,1.43c.89,3.62,2.75,1.52,5,2.98l-6.48.62c.62-2.93-2.18-8.42,1.13-8.49l.4-1.38c-.02-.26-4.66,1.48-1.66-3.08l1.82,1.29-2.81-5.29,5.34-.61-19.14-25.85c-3.72-3.68-6.9-1.05-8.88-2.19-.62-.36-.3-1.92-2.76-3.14-3.32-1.65-19.84-6.46-23.76-7.1-1.25-.21-2.03-1.11-3.35.11l54.85,104.48c1.24-.58,2.45-1.26,3.37-2.3,3.72-4.21,1.93-28.24,3.23-35.22.35-1.86.65-2.25,1.52-.28l-1.8,35.28c-4.93,3.86-6.46,10.9-13.16,6.23-29.5,10.49-63.89,15.47-92.01,28.83-24.8,11.78-48.36,26.39-73.19,38.1l22.69,45.69,4.07,3.92,47.72,20.53-6.23-14.8c.57-2.61,10.08,3.15,10.94,3.48,34.58,12.78,68.93,26.73,103.19,40.46,5.29,3.71,7.29,8.88,9.2,14.76-1.03.89-2.07-.73-2.48-1.49-3.09-5.62-4.47-14.42-13.11-12.84l2.48,40.64c-2.41-2.91.46-10.57-2.54-12.26-2.82-1.58-16.97,1.55-20.66-1.38l21.02.04-.47-16.38-7.24-3.27,6.24.05c.64-.56,1.16-9.53-1.39-9.82l-101.09-39.62c-.84,1.53-.31,2.34.26,3.76,1.75,4.35,9.42,20.14,12.29,23.67.7.86,1.95,1.04,2.58,1.87-.32,1.04-5.17-.49-6.03-.69-6.35-1.48-12.5-3.49-18.74-5.31.4.06,1.47-.54,2.66-.35,2.94.48,14.94,4.49,16.67,3.62l-4.87-10.68-43.64-19.47-9.22-2.47,7.86,21.08c9.81,2.3,19.83,4.16,29.48,6.95.67.19.89,1.26,1.06,1.31-1.41-.2-2.96.12-4.74-.24-2.36-.47-3.1-3.16-5.14-1.27,4.98,4.47.54,11-1.79,15.7-1.92-.58,2.93-8.99,2.79-10.59-.2-2.2-1.28-4.1-2.69-5.74l-19.03-4.15,12.06,30.97,5.45-4.63c.54,3.19-5.09,6.29-5.12,7.47-.04,1.52,5.05,14.25,6.31,15.5l38.22,1.86-37.1.61,29.74,56.68c1.27.55,2.48.18,3.74-.05,16.32-2.97,35.92-11.54,51.69-17.06,11.31-3.96,28.43-8.38,38.72-12.98,1.61-.72,2.38-1.5,3.37-2.88l.13,4.46c10.06-1.43,7.8-9.74,9.74-17.36.36-1.42-.39-2.95,1.75-3.53,1,.32.28,3.89.12,4.86-.37,2.19-3.03,13.73-4.26,14.8l-103.92,32.62c.79,1.76,1.64,4.08-.82,4.92l-51.44-46.12-10.82-19.21,7.37,30.48c-.41,2.59-30.77,16.68-35.29,19.14l-21.88-22.94c.36,5.5,11.36,22.36,11.62,26.35s-4.72,5.15-7.9,5.82l-17.42-25.98,7,30.93-34.14,19.77c-3.03.51-15.73-16.69-18.5-19.42l6.06,14.33,8.36,68.7-5.26-.57-81.42,66.36c-1.4.63-2.8,1.1-4.36.81s-16.22-6.75-17.93-7.83c-1.95-1.23-2.88-2.39-4.44-3.66,2.73,1.3,23.86,10.42,25.12,9.94,1.03-.39,2.25-2.36,3.72-2.71l-5.06-5.22,5.26,2.56,26.37-22.17c9.72-5.97,22.45-14.65,29.34-22.54.22-.25-.33-1.34.23-1.91,5.9-6.15,15.73-12.28,22.48-17.82l-30.64-55.05-10.32,14.6,9.77-17.06-10.25-15.58c-2.76,3.78-5.03,1.75-8.7.69l7.34-1.1-18.64-26.31c-3.4,7.8-4.82,16.25-9.17,23.07-2.04-.73,4.15-12.68,4.75-14.44.63-1.88,2.85-8.17,2.56-9.56-.47-2.32-9.89-15.78-12.07-17.71-.84-.75-2.25-.65-1.43,1.06l-10.91,52.11,7.04,12.1,3.37-7.47,1.35,1.52-4.17,10.19c-2.58,1.67-.94-.73-1.13-1.08l-15.35-28.65-25.58,108.6,7.82,6.43,5.5-10.88-3.68,11.76,12.38,10.8,25.01-37.87,2.94-.96-26.61,39.25c-.2,1.35,6.45,3.51,4.19,5.67l-27.89-21.34c-.8,4.8-.01,9.85,2.35,14.07s8.96,9.95,12.72,13.02c-11.13-5.3-19.72-15.99-17.11-29.1l25.64-112.75,2.9.14,6.85,12.78,11.14-52.46-27.96-46.89-66.44,36.15-5.6,4.26c-27.92,14.05-49.69,39.63-75.22,57.77-2.19,2.28,1.22,6.69-4.36,8.62l-1.43-2.61c-5.55,5.9-8.97,1.41-14.58-1.86-12.73-7.42-46.22-28.21-53.03-39.67-4.61-7.76-2.08-9.6-3.28-15.74-.54-2.75-2.97-5.36-2.66-8.19.37-3.33,2.98-2.1,3.84-3.34.4-.57,3.54-11.05,4.31-13.03-.06,2.7,1.45,8.27,1.39,8.71-.18,1.38-3.43,2.99-3.19,5.89.23,2.94,3.33,8.17,4.32,11.28-.54.1-3.31-.53-3.44-.64-.82-.7-.1-5.78-2.92-3.87-1.42,3.06,1.93,5.23,2.03,8.01.06,1.51-1.88,2.86-1.89,3.47-.07,3.56,2.96,4.34,4.91,1.12,1.03-1.7-1.13-4.31.49-5.38l4.92,15.5,4.84-2.61,26.75,18.02.67,2.47-1.8-1.29-1.85,2.66,8.38,7.44-9.97-4.86c-.74.22-.11,1.15.27,1.53,1.23,1.2,16.51,10.82,18.01,11.32,1.89.63,3.62-.32,4.79.03,2.06.62,3.53,4.69,6.86,1.71l-55.32-105.36c-3.44,7.35-4.14,16.31-6.88,23.76-.27.74-1.28.89-1.36,1.08ZM2.79,20.63l12.34-6.61L2.71,2.51c-2.04.58-.78,1.42-.81,2.68-.13,5.17.61,10.31.88,15.44ZM76.28,87.9c-10.94-16.99-22.5-33.72-35.82-48.92-4.86-5.55-11.46-12.71-16.82-17.66-1.45-1.34-5.09-4.71-6.5-5.46-2.35-1.26-11.9,4.88-13.14,6.99-2.39,4.08,6.65,44.4,8.55,51.33,3.71,13.53,8.22,27.52,14.37,40.17l49.36-26.45ZM96.84,134.74l-27.13-41.15-36.14,18.33,19.14,45.36,44.12-22.54ZM27.48,117.47c8.15,17.12,14.75,37.01,24.95,53.03.96,1.51,1.28,2.98,3.46,3.18,1.67-.94-2.9-11.77-3.62-13.66-5.68-14.93-12.56-29.47-18.23-44.38-1.79-1.73-4.78.98-6.55,1.83ZM77.65,90.69l-5.25,2.69,34.03,52.53,4.13-.37-32.91-54.85ZM99.93,148.97c-1.79.46-3.71.3-5.12,1.05l22.07,28.44,1.68-3.17c3,9.4,9.87,17.02,14.84,25.47,2.2,3.73,12.6,25.02,14.06,25.75.36.18,1.16-.38,1.61-.61l.73,1.28-1.2,1.93c3.53,5.96,6.78,12.16,9.84,18.43.54,1.1,2.42,2.92.76,3.55l-27.4-51.12c-.05-.09-1.35,1.19-2.09.38-2.41-2.62-3.59-8.32-8.18-10.41-.85-.39-2.25.09-3.23-.24-7.53-2.58-6.41-1.1-13.87-.12-1.05.14-2.62-2.19-5.11.59l1.85,2.39-3.2-1.7c-1.93.45-.65,2.77-1.06,3.68-.36.8-12.28,7.49-10.98,12.98,4.7-6.53,8.99-11.02,16.55-14.38.95-.42,5.1-2.2,5.83-1.01-2.83,1.66-6.27,2.51-9.01,4.24-4.8,3.04-14.5,11.35-12.69,17.49,1.97,6.69,8.97,19.79,12.53,26.79,6.42,12.64,13.64,24.92,20.12,37.52,11.51-10.13,23.56-17.69,38.77-20.78l-11.39-23.4c1.03-.89,2.07.73,2.48,1.48,8.08,14.75,13.72,30.85,21.65,45.71-1.97.57-2.11-.71-2.85-1.88-2.07-3.27-5.01-16.18-9.07-16.09-2.72.06-13.36,4-16.23,5.37-3.38,1.62-20.69,12.44-19.64,16.19,7.1,10,12.69,21.19,19.98,31.03,5.67,7.66,10.63,12.34,18.17,18.1,1.45,1.11,2.28,2.41-.44,1.45-11.49-7.17-18.98-18.9-26.41-29.88-15.65-23.1-28.96-50.91-42.19-75.78-.75-1.42-.98-4.21-1.49-4.76-.88-.94-2.76.22-3.37-.53-1.36-1.67-3.86-10.33-5.15-13.25-4.87-11.08-8.81-21.06-12.41-32.73-1.31-4.23-1.3-10.13-3.51-14.18-.72-1.33-2.06,3.74-3.12.54l8.31-14.1-10.5,3.81c-1.28,2.36,4.19,6.29,1.47,8.95l-2.9-7.52-6.13,3.32,5.69,12.79,3.74-1.45c-.72,3.06-5.56,2.54-7.69,4.7l37.6,72.39,4.15,3.37-2,.5c11.89,22.09,22.18,46.4,35.22,67.99,1.05,1.74,2.86,1.96,3.49,2.8,1.52,2.05,1.65,7.34,4.69,9.28l7.1-2.75c.17-.52-6.25-7.14-3.84-9.28,3.3,4.76,6.89,13.84,11.36,17.45,4.17,3.37,13.8,3.91,18.72,1.65,4.37-2.01-4.28-.44-3.61-1.51,20.96-3.9,13.18-30.36,6.14-43.57.04-1.79,1.61.01,1.92.53,4.55,7.6,9.68,26.16,5.68,34.43-1.48,3.07-1.88,5.41-5.75,6.59,5.42,3.68,11.69-12.71,12.61-12.44,2.04,2.25-1.18,2.82-1.16,5.1.02,1.66,5.5,8.19,4.58,9.54l-3.38,2.35c-4.58-9.66-4.05-5.83-9.86-2.61-4.19,2.32-9.78,3.29-11.48,7.24l-1.9-3.51-2.57,3.64c.58-2.47-9.48-5.8-10.47-5.72-2.97.24,2.49,5.29-.23,6.92l-7.19-15.37-5.24,2.75c3.64,3.84,11.16,25.73,15.6,14.34,1.78,2.68-1.02,3.97-2.92,5.02l3.86,5.33,43.7-23.08c3.22-3.38-7.66-10.63-4.7-14.34l3.35,6.03c6.76-.97,1.64-5.35-2.24-6.07l1.31-1.83-1.99.52-1.89-3.53c1.75-1.68,1.78-.25,2.61.05,6.37,2.3,5.52,8.76,9.42,13.93l4.39-2.35c.47-1.64-14.17-29.33-15.6-30.24-2.38-1.52-1.6,2.24-1.41,3.28.88,4.83,5.35,10.41,6.4,15.62l-3.23-3.94-4.46,3.5,2.03,5.74-2.33-3.28-2.16,2.29-10.11-25.21,1.97-.51c-.14,2.23,1.44,5.94,2.85,7.41.69.72,1.98-.4,2.07-.36.4.17-1.1,4.18.6,5.32l5.66-2.96c.75-.7-1.53-10.1-4.85-8.24,1.21-2.97.56-4.81-.6-7.57-9.41-22.33-26.02-44.63-35.92-67.12l-2.75-.69-.57-5.36-36.64-68.33-7.06,3.78c3.66,7.75,9.4,15.28,12.88,22.99.52,1.15,1.45,1.81-.05,3.04-5.01-7.51-8.39-18-13.43-25.2-.6-.86-1.85-.7-3.46-2.05,2.07-.54,4.92.14,4.92-3.35l-7.27-9.64c-3.09-.22-4.8,2.97-6.52,4-.4.24-1.08-1.35-1.85-1.14-1.25.34-5.72,2.73-6.17,3.6-.3.58,1.54,1.69-.68,2.34-3.55-2.89-9.44,3.82-13.73,5.09,1.09,1.14,5.21-1.11,6.55-1.72,1.51-.69,4.39-3.1,4.81-3.21.79-.21,1.41,1.08,2.14,1.06,4.67-.12,7.63-1.08,11.94,1.57l.77-3.81c.71,3.39,3.32,3.75,5.08,5.22ZM85.02,147.02c-3.13-.81-9.79,3.8-12.23,5.95-1.54,1.36-7.39,11.29-5.05,12.12l3.1-5.73,16.62-8.24c-.43-1.48-.7-3.64-2.44-4.1ZM93.23,151.62c-5.83.72-22.09,8.08-23.65,13.66-.6,2.12,2.45,12.43,3.24,15.02.98,3.24,8.26,24.05,9.48,24.65,6.3-10.11,15.57-18.01,27.75-19.74,3.39-.48,6.16.82,9.25-.1l-26.06-33.49ZM97.24,275.21l-28.65,15.35c-.15.08-.75,1.94-.38,2.47l29.97-16.06-.94-1.76ZM98.95,351.44l33.05-17.71c-8.42-19.95-20.38-38.32-32.47-56.34-4.36,3.97-30.33,14.36-30.84,17.63-.15.96.85,3.57,1.22,4.8,2.12,6.96,7.74,18.84,11.02,25.5,4.93,10,10.9,19.57,15.88,29.54,2.03-.29,1.55-2.84,2.14-3.41ZM201.8,224.95l-31.55,16.93c-.99,2.38,18.21,40.8,21.49,46.72,1.59,2.88,3.98,9.63,7.42,9.62,10.38-3.71,21.59-12.98,31.61-16.34,2.07-.69,2.85-.52,4.88-.3-9.79-19.72-21.29-38.56-33.85-56.64ZM157.62,258.75c-10.62,3.03-19.8,7.55-29.15,13.35,1.54,1.7,1.91.52,3.06-.12,4.86-2.67,9.49-5.91,14.59-8.2,2.78-1.25,6.15-1.54,8.94-2.67,1.03-.42,3.6-.91,2.56-2.36ZM131.88,329.26l16.06,29.97c1.43-.74,4.99-2.12,4.38-4l-17.8-27.39-2.64,1.42ZM111.61,419.53l14.1-7.56-24.76-45.14.14-2.9c6.17.41,11.04-4.12,16.36-6.53.8,1.21,1.64,1.15-.07,1.95-2,.94-9.51,4.42-10.14,6.02l1.84,12.38c5.99-2.65,11.72-5.53,17.67-8.28,2.37-1.09,2.84-3.36,6.17-2.23.08-.15-.97-1.34-.45-1.88.79-.82,10.86-4.84,12.63-6.15,1.74-1.76-3.48-10.83-5.28-11.04l-10.84,5.3c-.9-1.09.73-1.92,1.5-2.52,1.55-1.22,8.5-3.91,8.62-5.13-2.3-4.11-5.04-14.32-10.42-7.93l4.02,9.7-6.9,4.2-6.29-9.72c-4.89,3.47-20.04,7.99-21.1,13.63-.63,3.38,3.16,5.32,1.79,8.66l-3.19-2.82c1.63,19.58,5.87,38.03,12.35,56.6l2.25,1.38ZM238.69,293.58l2.98-2.79c-1.35-2.13-2.57-6.47-4.63-7.67-.22-.13-4.72-.88-4.94-.76l-20.71,11.1,5.18,10.9-6.83,3.1-6.28-9.76-5.3,2.84,6.15,11.47c6.99-3.6,13.81-7.58,20.79-11.22,1.58-.83,3.33-.57,3.49-.65-5.35,2.84-16.17,8.16-20.56,11.18-.87.6-1.61,1.31-2.3,2.09l5.22,10.95,35.25-18.89c-.72-1.04-1.15-2.63-1.9-3.53.09.07,2.21.09,2.23-.06l-1.54-7.11c1.63,5.57,5.1,10.59,7.31,15.9.42,1.01.19,2.22.38,2.67-1.51-2.33-4.02-4.93-5.13-7.46l-19.39,10.39.47.87,6.17-3.28.47.87-15.87,8.5c1.18,2.72,4.11,5.44,2.92,8.64-.57-2.07-4.51-6.74-4.86-8.04-.31-1.16,2.16-1.07.99-2.35l-6.16,3.3,4.45-.14-4.4,2.37,1.51,6-2.97-4.67-5.59,2.45,3.3,6.17-2.81-2.86-48.9,24.9,20.19,31.11,7.68-4.75-13.09-30.38c1.7-3.36,6.34-2.16,8.3-2.96,2.88-1.19,7.92-8.15,13.24-6.88,3.41,4.28,2.19,8.21,8.58,9.6l8.71,17.51,9.7-5.21c-3.82-7.71-8.66-17.03-11.22-25.17-.45-1.42-1.46-2.74.09-4.03l11.9,30.55-15.6,7.78-.06,2.25c-7.31.62-17.98,7.02-24.82,10.97-1.66.96-2.8,2.38-4.3,3.5-6.88-10.19-13.56-24.08-21.32-33.37-1.58-1.89-4.78-.89-5.38.52-1.23,2.9,12.09,22.25,14.04,27.17l-.87,1.6-1.94-2.45-7.88,3.18,7.92-4.26-12.75-23.8-4.87,2.55,4.69,11.8c-6.64,5.43-14.16,8.5-21.85,12.08l-9.07-10.41-5.33,2.93.1,2.2,13.6,21.17,26.66-13.79-.82,2.68,4.41-2.36,14.2,28.68-6.03,2.2-.29,2.96c7.58,12.38,14.82,25.01,21.86,37.86.63,1.16,1.82,1.53.11,3.07l-6.85-12.78c-1.01-1.88-12.01,4.54-12.19,5.95,3.53,5.39,6.82,11.07,9.82,16.8.62,1.18,2.29,1.46,1.09,3.46-3.07-2.71-9.72-18.83-13.32-19.6-.42-.09-6.47,2.62-6.41,4.06l7.18,12.48-3.93,5.09,2.52-5.31-7.03-11.56-2.64,1.43c8.69,11.08-8.41,20.29-13.2,7.08l-3.54,1.88c-.59-1.88,1.94-2.25,1.54-4.94-.2-1.31-4.79-10.18-5.77-11.57-.12-.16-2.86-1.72-3.45-2.05l19.04-6.8c-5.8-11.92-8.95-3.47-17.69-.57l-.05,5.54-4.67-8.79,6.11-3.31c.48,2.51-6.13,3.3-3.4,6.35l14.54-7.79,2.03.61,8.97,16.75c.64,1.19,1.91,3.12,3.45,3.26l19.83-10.63-15.53-26.84-14.03,5.68c-1.09-5.53-5.83-7.9-8.29-11.26-2.87-3.93-4.62-9.99-7.57-14.1l1.97-2.8-9.69,5.19,17.49,29.26c-4.21,6.43-10.72,5.26-16.42,8.73l-1.01-3.98c.33.76,2.36,2.13,2.75,1.92l12.78-6.85-11.79-21.98-11.8,5.6c-1.27,2.37,4.19,6.28,1.47,8.95l-3.38-8.4-3.45,1.9,12.08,29.16,3.43-.09-2.79,3.21c2.95-.17,3.62.94,5.63,2.09l-4.46.13c4.24,5.33,5.59,15.29,11.03,18.48.68.52-1.76.72-.95,2.69,1.21,2.92,6.45,11.69,9.86,11.82-2.48,2.22-.03,3.28,1.29,5.6l18.11-7.49c.11-1.57-4.91-5.22-1.06-6.23l2.55,4.86,6.45-2.88c10.08,19.6,22.32,37.95,32.56,57.43.68,1.29,1.68,1.89.04,3.37l-28.05-50.21c-2.04-2.95-4.93-.08-7.35,1.1l8.5,15.87-3.7-3.7c-2.64,4.61-12.78,9.21-9.88,14.38l-2.3-2.18-1.93,2.38c2.64,4.31,4.48,14.51,9.82,8.1l-1.42-3.72,2.31,2.19c5.4-2.66,8.35-9.77,13.99-10.91,1.08,1.32-1.75,2.03-1.29,3.43.23.69,2.33,1.94,2.61,3.16l9.22,18.38-12.2-20.73c-2.86-1-11.55,6.65-10.29,9.51l42.32,47.12,1.68-3.17c2.41,6.54,8.56,13.63,11.12,19.61.88,2.06.8,5.79,2.19,9.11,2.19,5.22,7.32,10.37,9.42,15.83-2.55-.12-5.54-6.09-6.72-8.25-3.74-6.87-4.26-10.58-6.69-16.86-4.09-10.57-24.89-28.72-33.56-38.21-7.18-7.86-14.12-16.03-20.69-24.42l-1.97-.89-3.88,4.35-7.32-13.66,2.58-3.7-5.8-7.67-1.42-.25c-.86.16-1.36,1.8-1.68,1.95.04-.15-.6-.82-.52-1.63.05-.52,1.17-1.19,1.05-2.32-.3-2.69-12.56-19.33-15.42-23.84-.58-.91-1.08-3.2-2.47-1.48-1.16,1.43-2.62,6.98.2,7.82-1.77.53-3.1-.01-3.28,2.35,4.96,2.81-.57,4.7-2.76,7.86-.61.89-.62,2.42-1.42,3.46,4.35,1.84,21.18,9.44,24.63,7.77-.41,1.78-.59,3.16-2.1,4.53-4.96-7.38-9.56-5.62-12.47,2.14l1.68-7.24c-.14-.62-.42-1.18-.77-1.7s-10.54-2.57-11.98-3.27c1.08,4.35-5.95,13.32-3.44,17.02l10.43,2.59,3.48-4.25c-.85,1.65-2.88,12.66-4.8,12.21l1.22-5.73c-.72-.53-1.59-.8-2.37-1.24-.6-.34-7.73-2.81-8.15-2.71-1.71.38-2.4,2.57-3.09,3.94l-23.46,74.32c2.86.54,4.01,1.17,6.11,2.97-1.33-.16-6.9-1.91-7.17-.69l3.78,7.05,5.69-4.19c-.38-1.13-1.5-1.48-2.3-2.16.08.01.75-.47,1.64-.48.36,0,1.06,1.29,1.58,1.09,2.39-.91,1.69-4.24,4.06-3.94l-.05,6.27c-4.34-1.38-6.09,3.01-10.17,4.31l6.16,11.45,3.28-2.33c-2.3,5.22-2.65,10.06-3.61,15.57l40.93,77.33,5.69-4.2-29.67-54.62-.15-3.13,30.23,56.41c1.77-.32,4.29-5.28,6.16-3.31l-8.98,8.38,1.71,3.47-2.29-2.18c-1.85-.63-12.96,16.97-14.45,19.65-.85,1.52.27,2.68-2.6,1.41l13.66-21.13c-13.26-22.63-24-46.89-36.89-69.67-1.43-2.53-3.17-6.71-5.92-5.9,2.08-6.89,1.24-12.28-2.97-18.27,2.94-.58,2.59,7.71,5.93,4.75l-10.39-19.38-34.56,108.47c-.7,3.68,5.37,19.09,9.73,10.35.31.72.99,1.46,1.17,2.14.45,1.77-8.9,15.16-5.64,21.25l24.8,46.27,12.5-16.9-8.04,12.38,4.6,8.74-1.96.51-3.17-7.97c-4.26,3.99-3.96,7.67,1.86,9.79l-.58,3.14,3.92-3.24,1.9,3.54,13.03-13.79c-1.49,5.44-7.24,9.6-10.53,14.2-.93,1.29-2.32.99-.61,3.1,5.41-1.82,7.77-9.07,11.46-12.46,1.46-1.35,2.04-1.89,4.04-.94l-13.01,15.64,10.67,20.22,64.72-52.84-18.42-34.38-5.22,5.06-1.42-2.63,6.16-3.32-2.69-.8c.98-2.08,3.34-2.91,4.49-4.17.73-.8.84-3.24,1.1-3.38l53.33-28.58-2.86,3.39-49.54,25.83,2.24,1.06,73.73-38.96,2.06-2.78c-4.06,1.27-9,7.04-13.28,4.85,2.79-.09,11.11-6.42,12.64-6.78,1.04-.24,1.89,1.67,3.35,1.44,2.11-.33,8.23-3.22,6.95-5.84l1.06.91c.61.92,1.97,0,2.45-.58,2.44-2.87-12.7-49.07-12.57-56.18l-2.36-.41,8.1,34.22c-1.38,1.04-2.08-1.6-2.41-2.57-1.43-4.24-1.06-9.39-3.84-13.36l-16.28,9.87,9.41,15.37,12.31-6.56,2.36,4.36-2.76-3.06-13.28,6.06-8.93-15.71-10.91,9.25,14.17,26.44c-2.03,1.43-18.36,11.3-19.73,9.88-4.43-7.19-7.11-15.87-12.44-22.15.15-3.02,2.68-2.37,4.48-3.78,2.61-2.05,4.79-4.68,7.82-6.19l-9.17,9.41,9.62,20.44,1.76.72,16.31-8.74-13.22-24.69-4.87,1.49c10.71-9.03,21.05-17.77,33.58-24.24l-5.74-19.05c-.94-.29-13.18,10.21-15.89,11.77-1.03.59-2.77,2.56-3.43.86,6.69-5.45,13.93-10.22,20.75-15.48,2.66-2.05,3.97-5.07,8.61-5.95l-36.7-64.27c1.43-1.03,1.9,1.56,2.52,2.6,11.93,20.22,22.7,41.23,35.15,60.97l6.97-3.55-27.08-45.07.2-2.92,27.61,46.85,1.75.59,9.44-4.69c-9.18-17.12-19.23-33.53-28.77-50.46-.65-1.15-1.31-1.56-.47-3.07l31.05,52.57,28.92-15.63c1.44-2.36-8.52-11.87-5.66-15l7.56,14.1,16.75-8.97-11.37-22.28c2.41-1.37,10.65,21.38,12.25,21.81l29.39-15.13-14.16-31.62c.71-.39,2.24,1.87,2.62,2.56,4.84,8.79,8.99,18.43,13,27.65l11.93-5.24-25.88-53.17.12-3.37,27.57,55.57,5.25-3.87-29.29-59.88.15-4.01,31.03,62.28,4.55-2.05-5.62-13.88c5.07.34,4.32,12.52,6.67,13.39,24.85-9.63,51.59-12.25,77.3-18.67,1.06,1.44-1.52,1.92-2.51,2.2-2.34.67-5.23.9-7.68,1.03l-.16,2.86,3.62,8.83c-2.76-2.53-3.93-11.02-8.21-10.62l-57.01,13.82c-.4,1.77,11.15,14.59,13.4,15.51s5.01-1.87,7.08-2.65l-5.69,4.18,4.82,4.8-1.51,1.36-16.17-17.43c-2.57,1.01-1.45.98-.81,2.7-2.62-1.43-5.84-.45-6.76-.89-1.77-.83-1.42-4.64-4.06-2.38l4.73,8.75,6.47-3.37c.98-.72-.12-1.41-.38-2.12l10.6,11.33-2.39-1.01-8.96,5.33,2.66,6.45c2.18,1.94,7.32-2.28,9.82-3.43,1.82-.84,2.18-2.06,3.12.6l-12.8,5.73-14.65-27.32-48.43,25.05-.44,1.68c.12,1.27,3.77,3.6,1.49,5.46l-3.32-6.16c-3.8,4.1-12.48,5.67-16.29,8.7-3.56,2.83,1.97,6.9.66,7.63l-5.07-5.23-48.48,25.98-.12,2.31,14.8,26.13-11.23,6.21,2.79,11.93,14.1-7.56,7.56,14.1-9.05,4.28,7.69-4.69-6.55-11.3c-1.85-.93-11.3,6-13.55,7.44l3.36,12.83c1.35.14,5.95-4.26,8-2.02-2.78,1.21-5.54,2.37-8.27,3.65-1.71.81-.83.74-.07,1.96l27.32-14.64c.74,1.2,1.64,1.21-.09,1.95-8.96,3.86-17.13,9.58-26.12,13.47-1.08,1.22.19,6.34.49,8.57-4.01-2.01-6.91,2.01-10.65,3.43,1.42,2.82,3.11,5.54,4.5,8.39.53,1.08,2.42,2.92.77,3.54-1.24.2-8.77-16.9-9.32-13.15l3.53,6.61-1.46,3.61c1.07-4.25-1.58-7.02-3.43-10.64-9.93,5.32-19.99,10.25-29.94,15.32-1.91.97-3.44,2.98-5.74,3.91-1.94.79-4.5-.04-5.2.52-.78.62-.59,2.88-1.66,3.96-1.16,1.17-5.16,3.31-6.8,3.94s-4.36-2.18-6.68.1l2.29,2.2c-3.43-.69-4.56,2.5-6.71.17l-.87.47,1.38,1.52-3.17-.6-2.54,3.71-1.87-1.35-2.54,3.71c-2.27-2.59-4.49-.74-1.34.67-.15.6-5.73,3.04-6.07,2.98-.65-.11-.95-2.41-2.8-.47l1.4,1.51-.86,1.6-2.3-2.17c5.38,10.09,9.72,20.99,15.39,30.89,5.11,8.91,3.36,5.26,9.99,2.59,2.02-.81,5.64-.65,7.56-2.31.62-.54-.39-2.15.08-2.41,2.03-1.12,7.22-.29,7.56-.49,1.19-.68,2.08-2.2,3.28-2.82,11.88-6.14,23.57-12.87,35.5-19.2l-1.83-1.27c1.12-2.15,3.61-1.28,4.23-1.64,5.59-3.24,10.74-4.15,14.77-6.44.4-.23-.42-1.59.2-2.16,1.14-1.04,3.84-2.22,4.34-3.07,2.19-3.72-5.64-11.95-7.13-16-.45-1.23-1.45-2.12.11-3.38l11.81,22.04c1.42-.51.38-2.19.17-3.26-1.56-7.96-6.72-19.93-6.4-27.43.04.1.99.6,1.42,1.6.77,1.82.16,4.93,1.95,6.81l23.8-12.75-5.67-10.58c-.91-.27-6.51,5.25-8.87,2.5l8.81-4.73,7.09,13.22-25.46,13.73,7.21,28.4c2.57-.59,5.58-2.12,7.78-3.56,1.62-1.05,2.07-2.95,2.71-3.34.73-.45,6.62-1.08,8.06-.79l-2.87.97c-.18,1.19,12.47,12.61,14.37,14.75s13.77,16.65,13.86,17.78c.04.49-.56,1.75-.87,1.59-6.9-11.11-16.17-20.26-25.02-29.7l-2.57,3.64-4.18-5.69,4.72,8.82,1.27-1.83c1.85,3.06,4.63,7.16-.68,7.18l9.21,17.19c.06.1-.54,2.94-1.3,1.82l-14.52-31.36-8.82,4.73,22.14,38.46,18.58,24.8c1.08-.36,1.65-.89,1.74-2.05.19-2.47-15.13-25.74-17.27-31.07-.56-1.4-1.27-2.82.15-4.01l25.93,46.23c1.21-.76-.6-4.89-1.04-5.86-1.36-2.96-5.24-5.56-3.65-9.21-2.97.85-4.86-6.09-4.74-8.85l-2.22.13,1.47-3.64,12.46,21.1-2,.51,3.13,9.21c.58.99,1.52,1.16,2.54,1.38-.16.44-.36,2.5-.19,2.88l17.85,32.27c1.88.73,4.72.31,4.27-2.24-.28-1.59-6.84-11.48-8.16-14.29-.7-1.48-2.36-1.23.55-2.47l8.03,14.98,3.56-2.93-3.98-11.6,5.71,11.69-.06-2.23c3.21.71,5.28-.19,7.99-2.01l-6.85-12.78c-.11-.2.65-2.43,1.05-2.26,1.4,4.32,3.65,8.3,5.61,12.37.77,1.6,1.98,1.8,2.36.38-2.69-7.77-6.88-15.91-11.14-23.02-3.02-5.06-6.08-8.84-9.8-12.02-3.73-3.19-4.44-9.07-8.16-12.89l-4.41,2.34c-.29.94,8.19,14.35,9.32,17.25.54,1.41.15,2.49.2,2.61-3.57-5.87-6.56-11.72-9.74-17.88-1.93-1.85-5.63,1.19-7.61,2.3-.38,1,3.13,4.69.99,6.2l-7.81-14.53,1.74-.95,4.08,7.39,6.87-3.72c.15-3.34-7.71-8.99-5.58-12.78l6.61,12.34,61.77-34.17-12.89-24.93-10.57,5.69,5.18,8.6c3.66.71,5.88-1.62,8.5-3.34,1.68-1.11,1.27-.71,2.15.99l-10.99,4.6c-2.2-2.14-4.12-10.82-7.55-10.34l-51.03,27.13c-1.87,1.34,9.74,11.27,7.07,14.38l-9.39-15.39,64.86-34.72c-1.62-1.82-2.07-4.85-3.27-6.52-.76-1.06-2.51-1.6-3.53-3.01-2.82-3.91-15.57-23.5-18.63-24.01l-52.2,27.47-4-5.26.38-2.85c3.76-3.95,12.3-4.62,12.83,2.02l43.2-23.14c-4.73-10.28-11.38-19.69-16.62-29.61-.79-1.5-3.02-4.77-1.4-6.12l15.11,28.21,15.87-8.5-9.45-17.63.87-.46c1.5.85,1.27,2.35,1.66,3.07l11.57,21.59c2.04-.3,6.79-5.8,7.99-2.01l-7.32,3.27,2.8,10.49c-3.7-.4-2.44-6.45-4.31-7.97-12.13-1.1,3.2,9.43.47,14.57l-6.61-12.34-1.76.94c1.28,1.5,1.08,3.33,1.48,4.89-2.73-3.56-2.23-6.44-8.12-2.46l15.88,23.26c1.06-.26.49-2.78.34-3.58l23.61,44.08,4.41-2.37-27.16-50.68c-.27-.51-2.41-.7-.31-2.67l5.68,10.56-1-3.99c1.01-.89,2.12.76,2.5,1.49,1.32,2.54,4.52,15.64,6.68,15.76,11.79-5.65,23.31-11.68,35.11-17.15-5.87,4.12-12.14,7.45-18.49,11.13-1.2.69-2.59.91-3.92,1.11l-.46,1.85,4.67,11.09-10.43,6.05,6.85,12.78,3.77-.26,59.11-30.6c-2.48-2.55-2.84-7.01-3.85-9.29l4.78,8.68c2-.32,8.82-2.93,8.34-5.07-1.06-4.76-8.6-16.43-11.24-22.14-1.85-4-8.94-19.29-8.84-21.99l24.16,49.78-.76,2.35-2.59-4.88-8.18,3.84,12.99,24.24c.22.41,2.73,2.42,3.44,3.26-.03-2.61,4.07-5.65,4.37-7.18.24-1.25-1.48-3.11.23-4.35l3.31,6.16-1.8.42c-.12-4.84-5.11,6.21-5.14,6.72-.12,2.19,2.02,4.42,2.84,6.4l-2.77-3.06-1.27,1.83-1.91-3.53c-1.17.18-3.32,2.27-2.81,3.21l6.85,12.78c-1.13.91-1.93-.76-2.49-1.55-1.23-1.74-6.03-11.73-6.38-13.31-.17-.78.16-2.4.77-2.33.38,2.74,5.05-.25,4.55-1.95l-11.16-16.7c-.96-1.63-3.29-10.39-5.83-9.85l-1.87,3.87c3.37,5.45,8.97,12.2,11.48,17.83.41.91,2.6,7.63.83,7.29l-9.28-19.41,4.83,15.11,14.27,26.83.74-4.93,1.47,4.84c.58.17,5.44-1.73,5.62-2.35.49-1.74-1.63-3.31.03-4.03,1.28,4.68,6.78.65,9.83-.73l-8.27-15.42c-.53-.98-4.51-2.3-1.72-5.31l11.03,18.46c1.5.75,1.03-2.05.78-2.71-10.74-28.02-24.17-54.99-37.99-81.65l.78-2.71c5.39,9.87,9.68,23.17,16.11,32.21.81,1.14,1.85,2.3,2.45.37-4.66-10.44-7.13-22.86-11.42-33.26-3.48-8.43-10.83-24.48-15.63-32.2-.71-1.14-1.28-2.95-2.81-3.13l-7.32,3.42,16.76,29.02-.15,4.07-12.08-22.54-7.63-10.01,39.78,78.51-2.13-.24-29.04-57.93c-1.8.78.71,2.43.85,3.96.02.24-.72.42-.72.5l-1.86-2.55c-2.09-5.56-4.03-12-6.49-17.35-2.31-5.01.27,7.67-.96,6.73l-2.49-8.86-50.24,26.9c-.91-1.18,1.11-2.27,1.92-2.81,6.24-4.16,15.12-7.06,21.71-11.1l.63-1.88-1.96-2.96,4.35,1.92c3.21-2.88,5.37-2.68,5.77-7.34l1.49,4.87c4.33-3.41,11.13-4.88,15.36-8.28,1.79-1.44,2.22-4.65,3.87-5.5.71-.37,1.76,1.86,3.32,1.59,2.05-.35,4.71-3.67,7.41-3.87l-10.44-13.11c1.6-1.93,4.25,3.8,4.85,4.76l.78-2.07c-7.35-10.26-10.76-23.49-18.53-33.26-1.2-.32-4.22,3.94-6.02,1.57l5.72-3.07c.44-5.97-10.45.7-11.31,3.24l15.49,18.33c-3.38-.04-8.25-10.06-10.2-10.38l-21.08,12.38-1.36-1.52,20.71-11.1c1.71-1.88-4.84-7.65-5.8-7.74l-69.89,36.94c-.28.94,5.28,6.54,2.5,8.87l-3.38-8.4-16.31,8.74-.31,4.7-1.9-3.52-21.59,11.57c-.2.11-2.43-.65-2.26-1.05l23.38-11.41-24.8-46.27c-.23-.43-2.98-1.58-.06-2.23l25.74,48.03,17.63-9.44-6.61-12.34.87-.46,6.62,12.33,69.63-37.32-4,1c1.4-4.49-3.75-4.84.21-8.04l4.7,6.47,3.49-1.78-9.71-11.8,11.54,10.66c.89.07,4.74-2.14,5.52-2.95,1.23-1.28-.08-3.2.06-3.28l26.44-14.17.47.88-25.56,13.7.94,1.76,17.19-9.21c1.15-.61,3.55,1.25.23,2.97-2.56,1.33-8.57-.56-7.61,4.39-7.51-1.46-7.91,7.22-3.16,11.66l42.27,2.57,7.4,1.67-17.23-.94c-7.74-.51-26.1.17-32.33-1.89-1.73-.57-1.41-2.98-2.91-1.94,2.74,4.03,4.51,9.95,7.28,13.74,1.31,1.79,3.64,2.42,4.15,3.39.75,1.42-.85,3.21.61,5.02.8.99,3.74,1.84,4.42,4,3.94.06,6.25-5.65,9.28-2.45l2.5-3.39,27.42-13.83-1.39-1.53c6,.38,9.2-2.17,14.35-4.68,7.37-3.59,16.57-8.95,24.98-13.04,2.03-.99,4.21-1.09,6.18-2.13l-19.8-35.92-3.55.8c3.45,1.27,4.54,3.77,6,6.98l-3.52-4.2c-.58-.69-1.21-.7-2.04-.57-2.08.35-17.26,8.22-19.48,9.75-1.6,1.11-3.17,2.21-4.22,3.89.04-.28-.62-.72-.57-1.17.16-1.36,1.93-1.21.91-2.4-4.69,1.94-5.72,6.42-10.93,8.07-2.98.95-1.92-.89-5.35,1.77s-6.68,5.28-10.99,7.01l8.33-5.6-4.05-1.21c12.64-7.14,29.83-12.81,41.47-21.1,1.5-1.07,1.58-.46.36-2.46l-26,13.93c-.62.33-2.08.13-2.63,1.41l-.96-1.77,30.36-15.2,1.96,2.27,3.08-1.46-.6-5.35c3.3.24,12.88.62,15.1-1.23.89-.74-1.23-2.18.44-2.58l2.3,6.03c.95,1.1,13.68-.21,13.94-1.14,1.15-4.04-10.1-1.31-11.65-.57l.39-2.44c1.59-1.01,16.44.42,19.98-.15,3.28-.52,4.8-.97,7.93-1.33,6.73-.76,13.53-2.15,20.29-2.81,1.08,1.69-1.47,1.54-2.47,1.84-5.5,1.63-13.07,1.08-18.9,1.68-.9,2.24-.87,2.18,1.47,2.44,8.03.87,22.13-2.9,31.24-3.17,2.42-.07,3.85.02,6.2.28-4.36,1.54-10.52,2.14-15.22,2.71-19.25,2.34-44.87,1.9-63.04,5.74-1.37.29-2.62.66-3.77,1.49l19.5,34.38,78.81-22.39c.47-1.02-8.45-18.72-9.74-20.31-1.39-1.72-4.08-1.33-6.53-1.6,1.35-.48,4.43-.81,4.16-2.8l-6.71.2,5.53-2.4-2.35-4.41,2.64-1.4-1.05,2.25,5.58-.15c-.36-3.03-3.88.43-3.59-2.58.03-.35,2.94-.7.77-2.7l-5.53,2.38,4.04-3.2-1.89-5.16-5.28.38.54,3.12c-1.09-5.2-6.89-2.35-11.08-3.7,1.42-3.12,14.45.25,14.94-1.77l-23.87-46.68-7.51-3.42,5.35-.61-6.85-12.78-11.94-3.25c4.14,4.59,4.42,13.3,10.49,15.37l-1.08,1.13-23.46-5.49-4.53-3.31c1.61-3.63,22.78,5.75,23.35,3.35l-7.7-12.38c-33.87-10.27-67.82-19.6-101.47-30.3-1.63-.52-3.34-1.85-4.79-.62l9.92,18.51c2.28-.55,13.27,1.85,12.65,4.56l-4.87,1.48,10.63,19.83c.11.2-.65,2.43-1.05,2.26l-11.26-22.73-8.68-1.75,14.17,26.44c-1.22.76-1.15,1.64-1.96-.07-4.17-8.85-9.38-17.24-13.28-26.34l-6.17-2.95,9.4.61-9.71-3.3,4.22-.56-5.67-10.53-9.07,3.84.65,3.3c.41.94,8.84.78,5.6,3.38l-6.78-2.03.64,2.21-1.42,1.58-15.13-4.92,2.17-.43,11.97,2.49,1.03-5.61-6.18-2.96,8.04.21,1.75-9.44-9.46-2.92-2.8,3.25.1-4.01-65.69-19.82-2.98,12.2,45.79,13.62-64.09-16.61-2.56,8.49,12.41,4.28-18.87-3.49c1.5,2.46,1.46,5.58,3.05,8.02,1.5,2.3,3.65,2.32,5.19,4,.94,1.03,5.63,11.01,4.81,12.21-4.77.97-3.1,2.95-4.57,6.4l-1.48-4.86-4.47.12,3.81-1.41-.43-4.95,2.8,4.2,3.56-.81-6.15-11.4-19.09,4.51c1.1,2.23,2.45,4.38,3.55,6.63.53,1.09,2.42,2.92.77,3.53-4.6-5.88-6.65-14.21-10.37-20.44-.77-1.29-2.48-1.43-2.54-1.56-.87-1.72,3.36-4.26,3.33-.08l15.87-8.5-4.93-.74,1.42-1.48-5.33-10.05c4.02-.29,3.09,8.44,6.93,8.75l-5.95-13.17.64-1c.7,1.24,2.03,2.27,2.76,3.77,2.61,5.35,4.4,21.2,11.71,15.81l2.82-9.54,17.13,4.45,3.28-10.88-15.47-5.23-2.86,5.99.9-6.72-2.73-.88c-1.04-.06-3.44,3.23-3.66,3.74-.11-.89-6.64-7.64-7.8-7.14-1.36.58,2.45,7.11,2.87,7.54,1.88,1.91,5.21,1.9,4.93-.39-.1.23.8,1.8.37,2.67-1.66,3.29-5.38.14-6.86-1.97-3.68-5.27-2.09-9.94-10.79-10.71l4.04,8.51-.64,1c-7.47-13.21-15.57-26.7-23.93-39.37-.44-.26-3.35-.47-3.59-.34l-17.19,9.21,12.41,27.39c-9.78-18.33-18.24-37.09-26.64-56.06l3.31,3.72,5.28-.39-4.31,1.49-.53,1.84,9.95,20.09,19.92-8.45-13.56-21.1c-2.44,1.13-4.86,3.63-7.76,2.46.85-1.53,6.84-2.36,5.24-5.04-1.2-2.02-3.44-4.06-4.92-5.98-1.31-.87-4.31,3.72-9.28-.85-7.93-10.53-11.33-27.12-22.99-33.95l.66,7.57-2.34-3.3c-.65,1.38-1.81,1.06-2.63,1.43ZM187.18,307.56l3.25,5.14,5.21-2.24-2.88-5.36-5.58,2.46ZM146.62,375.82l-6.79-10.62-20.91,11.85,7.59,8.53c7.4-2.4,13.23-6.59,20.11-9.77ZM200.63,355.95c-6.57,4.66-14.43,7.05-21.39,10.8-1.03.55-1.11.67-1.29,1.92l8.74,16.31,22.92-12.28-8.97-16.75ZM154.24,392.16l-21.15,11.34,9.38,15.39,20.27-10.86-8.5-15.87ZM145.07,451.87c-2.89-.56-5.85,1.73-8.29,2.97.98,3.34,3.35,3.43,5.95,4.74l-6.06-.72c-3.02.26,2.66,10.01,3.22,10.16,1.26.34,5.52-4.67,7.5,3.8l-2.85,2.85c3.74,4.14,8.78.51,10.38-3.9-.27-2.09-2.11-.2-2.77-.94-1.42-1.6-2.12-4.62-3.46-6.48l3.98-1.01c-3.4-2.86-.73-5.4-.89-5.68-.75-1.32-5.1-5.48-6.7-5.79ZM108.07,483.84l-4.41,2.37,4.58,6.57c-4.1,1-1.18,4.11-1.82,5.35-.15.29-6,4.14-2.09,4.19,3.36.04,6.25-2.6,6.82-5.68l-2.96-8.31c1.69,2.55,2.77,5.95,4.5,8.38.85,1.2,2.14,2.37,2.46.36l-7.08-13.22ZM123.08,492.8l-11.29-4.16,4.24,7.94,7.05-3.79ZM88.73,511.14c2.18-1,5.01-1.81,5.42-4.53l-8.77-2.65c-1.87.84,2.84,6.33,3.35,7.18ZM84.6,516.27l8.74,16.31,4.41-2.36c-2.64-2.51-7.54-17.52-10.78-16.9-1.24.24-2.61,1.85-2.37,2.95ZM121.07,516.57c1.29-1.75,1.85-4.26,1.59-6.41-.19-1.56-5.32-11.29-7.05-10.96l-3.04,1.5,8.5,15.87ZM170.71,484.3l-22.92,12.28,4.22,5.67c6.79-4.66,14.8-7.76,21.81-12.2l-3.12-5.75ZM167.44,495.13l-14.98,8.03,2.23-.06.93,1.75-1.52,1.52,8.18,9.72c1.67-.58,10.76-10.16,10.83-11.49.2-4.37-4.99-6-5.66-9.47ZM109.8,555.28c.05-1.16-9.26-20.24-10.16-20.99-1.64-1.37-3.31.05-4.88.92l12.76,23.8c.41-.86,2.26-3.33,2.28-3.73ZM334.05,425.06l-6.32-11.92-14.32,7.17,3.83,9.26c2.97-1.57,16.06-1.59,16.82-4.51ZM441.82,420.71c-1.46-.58-4.41,9.1-2.86,9.46l6.17-3.3-3.32-6.17ZM455.33,439.56l-9.21-17.19c-.08-.15-1.93-.75-2.47-.38l9.92,18.51,1.76-.94ZM67.74,734.62l-7.56-14.1-2.83,9.12,5.45,12.71c3.27-.3,2.54-6.21,4.94-7.73ZM248.46,623.03l-.05,4.4c-3.24,2.45-2.74,4.13-1.4,7.71l5.93-3.38-4.48-8.73ZM258.78,640.18l-4.18-6.83-5.66,3.13c1.76,2.89,1.48,5.29,1.03,8.43l8.81-4.72ZM388.82,571.63c-2.78-5.22-5.59-7.64-10.69-3.22,1.62,8.85,4.64,5.48,10.69,3.22ZM259.26,641.07l-7.8,4.66,1.26,8.49c1.19,1.94,9.04-4.16,11.26-4.34l-4.72-8.8ZM617.27,470.76c-.52-1.76-4.16-5.06-5.9-3.63l1.49,6,4.41-2.37ZM622.63,480.15c-2.29-.28-3.98-4.93-4.23-7.07l-5.05.93,7.99,10.92,5.67-2.37c-1.9-5.34-2.61-2.2-4.38-2.42ZM628.5,487.45c.45-5.16-5.9-2.46-5.42.21l7.97,10.89c1.85.38-.27-10.58-.62-11.63-.81-2.47-1.2-.23-1.93.53ZM530.43,547.95c-4.82,1.52-10.26-.69-14.7,2.2,3.62,2.09,10.39.98,14.37.11,1.9-.41,1.06-1.11.33-2.31ZM260.09,693.77c-.14-2.04.05-4.21-2.65-3.92l-9.19,4.76,2.37,4.41,9.47-5.25ZM73.95,811.85c-.88-.31-4.8,5.5-2.03,6.76.74-.96,5.18-5.67,2.03-6.76ZM116.65,834.35l-14.88-27.76-2.02-.6-1.74,2.04,15.11,28.21,3.53-1.89ZM609.23,536.51l-4.82,1.28,16.47,28.6,2.63-1.4-14.29-28.48ZM368.76,684.49l-14.1,7.57,3.74,4.73,13.2-7.01-2.83-5.29ZM304.19,724.6c1.86.39,9.27-2.83,7.17-5.32-3.65-1.95-6.28-1.22-9.59,1.11l2.42,4.21ZM400.36,726.56l-9.51,5.59c-1.07,1.99,3.6,8.21,4.64,10.54l10.55-5.56-5.68-10.57ZM318.52,806.71c-2.8.83-1.19,2.19-.1,4,3.21,5.32,9.59,13.5,13.63,18.48.71.88,2.05,3.4,3.28,2.54l-16.81-25.02ZM345.05,794.77l-1.82-1.29c2.22,3.14,2.98,8.51,6.98,9.86l-1.91-4.64,2.77,3.06,1.75-.96-.54-3.1,1.79,2.33,6.69-3.47-5.19-9.7-2.65,1.41,4.27,9.06-5.16-8.58-4.4,2.36,3.76,7.06-4.61-5.48-1.73,2.08ZM365.16,794.2c4.41-1.64-1.89-10.97-3.89-10.38-4.07,1.2,3.06,8.46,3.89,10.38ZM366.12,781.2l-2.64,1.41,5.2,9.71,2.64-1.41-.6-5.35,2,3.88,3.01-.89-5.2-9.7-3.51,1.89c-.34,1.13,4.55,3.75,1.95,5.75l-2.85-5.29ZM374.05,776.95l-2.64,1.41c2.05,2.86,2.69,7.94,6.51,8.98,2.03-1.09-3.12-8.7-3.87-10.39ZM377.57,775.07l-2.63,1.41c1.41,1.2,4.53,9.99,6.5,8.97l1.38-2.57-5.26-7.82ZM381.99,772.7l-2.64,1.41,4.73,8.82,2.64-1.41-4.73-8.82ZM385.52,770.82l-2.65,1.41,4.71,8.81,2.65-1.4-4.72-8.82ZM389.05,768.93l-2.65,1.4,4.72,8.81c4.51-2.67-2.53-6.5-2.08-10.21ZM393.45,766.58l-1.76.94,5.61,8.32.79-3.82,2.25,1.05-4.25-7.93-1.68,3.17-.95-1.75ZM404.48,761.87l-4.26,2.32,5.07,9.65,3.33-2.48-4.15-9.49ZM414.61,755.22l-4.42,2.37,4.74,8.81,1.22-4.05,3.18,1.7-4.72-8.83ZM418.13,753.34l-2.64,1.41,5.18,8.68c.94.58,6.21-2.25,5.69-4.29,1.82,1.33,1.81,1.7,4.02.12l-5.2-9.7-3.52,1.88,1.45,3.78-4.09-2.35,3.8,8.18c-2.13,1.45-1.19-.12-1.72-1.28-.99-2.12-1.65-4.44-2.97-6.43ZM433.9,757.37c-2.14-2.82-3.31-10.47-7.83-8.28l5.2,9.7,2.64-1.41ZM432.23,745.79l-1.7,2.8,4.26,8.3,14.11-7.55-3.31-6.17,1.97-.51c-.21,2.65,1.08,5.88,4,6.37l-.55-4.22,2.29,2.17,3.05-2.79-5.13-7.44-13.25,5.95,1.01,4.03-2.86-2.35-3,.94c-.54,1.7,5.92,6.1,3.38,8.41l-4.26-7.92ZM459.35,739.19l-2.85-5.27c-2.3,3.23,2.2,7.3,3.45,10.63l.31-4.7,2.77,3.04-1.44-3.76,2.77,3.05c2.3,1.08-2.43-10.14-3.45-10.63l-.37,2.47-3.15-.59,1.95,5.75ZM370.63,798.08l-18.51,9.92.94,1.76,15.42-8.27c.21-.11.23-1.25,1.07-1.18l1.61.88-17.63,9.45c5.47,3.5,5.88-1.27,8.3-2.9,10.48-7.1,24.69-12.74,35.79-19.6,2.58-1.59,4.67-4.4,7.91-5.37-1.85-2.09-4.92,1.51-6.19,2.2l-22.04,11.81c-.21.11-.23,1.25-1.07,1.18l-1.61-.88,18.07-9.68c2.54-1.36,7.73-4.86,10.11-6.57,1.47-1.05,1.64-.42.37-2.45-1.96.57-3.49,2.72-5.2,3.34s-2.48-1.01-3.11-.9c-.45.08-8.33,2.51-8.74,2.7-6.18,2.85-12.95,8.5-19.61,11.11l4.12,3.46ZM468.06,747l-16.75,8.97c.04-4.61,8.72-2.78,8.28-7.84l-27.32,14.64-.51-1.97c9.27-3.17,18.13-8.73,26.94-13.37,2.22-1.17,7.31-1.24,7.01-4.83l-52.94,26.09c.95,2.65,1.3,1.43,3.12.6,3.77-1.73,7.33-5.04,11.74-4.59-1.77,3.92-7.42,5.8-10.79,8.08-1,.68-2.26.62-1.66,2.56,12.54-5.84,24.62-12.65,37.06-18.72,1.09-.53,2.92-2.42,3.54-.77-11.48,7.49-25,12.61-37.16,19.03-1.76.93-2.79.26-1.14,2.64l50.56-25.29.56-2.09c-3.78,1.2-8.4,6.62-12.4,4.38,3.29-3.03,11.02-2.3,11.86-7.5ZM415.31,779.81c-4.15-10.05-13.68-5.08-6.14,3.19l6.14-3.19ZM363.73,811.12c-8.37.92-4.32,7.63-.27,11.46,3.65,3.45,8.66,8,12.48,10.99,1.39,1.09,5.54,4.87,1.19,4.13l1.89,3.53,1.68-3.17c.33.04,4.89,5.13,5.9,2.5-1.25-.91-3.63-4.35-1.95-5.74l3.72,4.8,4.41-2.36c-2.7-3.34-6.35-8.12-8.08-11.93-.52-1.15-1.46-1.82.05-3.04,2.87,4.49,4.02,10.99,9.97,12.25l-1.05,2.25,5.28-2.83-3.34.1c2.36-5.14-2.23-8.88-3.3-13.56,1.57-.86,5.14,11.27,9.47,10.26l-1.05,2.25,5.29-2.83-16.19-34.44c-2.9,1.72-6.85,2.47-7.44,6.26-2.71-2.85-6.03,1.63-9.32,2.72l3.34,7.29-4.85-6-6.81,4.32c-.33.63,9.39,8.61,7.92,11.62l-8.92-10.84ZM396.86,791.96l-6.18,3.31,15.34,30.88c1.03,1.12,2.77-2.34,3.67.34.3.91-2.98.5-1.94,2.74l3.23-2.46-6.91-17.12c4.1.65,4.6,8.4,6.71,12.04.94,1.63.12,2.83,2.6,1.13-3.36-2.61-.73-5.62-.86-5.94-.41-1.02-1.99-1.75-2.42-2.97-2.29-6.49-3.17-14.73-6.06-21.26,1.44-1.05,1.94,1.53,2.36,2.56,1.61,3.99,2.2,9,3.82,12.99.42,1.03.91,3.6,2.36,2.56-3.01-6.57-2.86-16.33-5.35-22.69-.95-2.41-2.16-.26-3.33.11l1.45,3.76-2.32-3.28c-9.32,2.68.53,7.85-1.86,13.47l-4.32-10.17ZM431.27,790.54l-10.19-11.55c-1.53.61-1.52.64-.6,1.95,6.56,9.33,16.72,17.24,23.35,26.69,2.59-3.52-5.08-6.25-4.77-9.93l6.94,7.63c2.75-3.69-5.94-6.38-2.98-9.75.68,2.39,7.2,11.69,9.6,7.33,1.04-1.9-13.51-27.78-17.02-31.6l-7.03,3.64,3.36,7.29-4.17-5.78-4.46,1.33c-.67,2.12,10.71,9.22,7.97,12.74ZM437.4,770.24l15.82,29.53c.17.32,1.66.95,2.13,1.51l4.14-2.2c1.58-2.69-7.06-11.11-4.25-14.57,1.92,5.62,3.48,11.26,8.93,14.49l2.3-3.71-.7-2.81,6.09,1.84-2.82,3.19,4.35-2.37-4.84-15.5c.95-.89,2.32.85,2.58,1.48,1.11,2.69,1.04,8.59,3.78,10.4.72.85,1.46-.08,1.79-.92,2.04-5.08-7.26-27.62-7.28-34.62l-5.93,1.45,1.97,7.96-3.84-6.9-5.96,3.21,8.09,22.75c-2.41-.21-1.93-1.48-2.57-2.94-2.53-5.82-4.2-12.41-6.51-18.34-2.26-1.44-6.96,2.33-8.78,3.7-.39,1.7,6.72,8.45,3.82,11.49l-5.26-11.93-7.05,3.79ZM418.07,782.87l-7.93,4.24c1.99,3.68,16.07,28.3,17.88,27.92,1.27-.27,4.33-2.49,4.04-3.93l-2.11.1-11.88-28.33ZM358.26,851.23l-3.52,1.88c1.52,5.95,13.29,15.29,2.81,16.97l-.53,1.82,17.48,30.75-16.23-51.43ZM368.84,845.56c-2.05,1.59-9.38,3.51-8.8,6.57l13.66,38.47-4.86-45.03ZM522.18,809.9l-24.12-31.39c-1.97-1.04-6.68,2.88-8.86,3.69,9,7.73,18.95,19.63,28.68,26.08,1.29.85,2.58,2.07,4.3,1.62ZM527.47,807.06l-12.75-23.8-.32,4.69c-2.53,1.34-8.61-13.6-10.25-13.65-1.42.88-6.29,1.82-4.58,4.04l22.86,29.53,2.01.69,3.04-1.5ZM355.27,856.23l-2.91,1.7c-2.25,2.01,5.56,11.31,6.86,10.92,3.94-1.16-3.31-10.6-3.95-12.63ZM527.95,807.94l-3.3,2.35,10.38,10.87-7.09-13.22Z"/>
        <path class="cls-1" d="M261.72,696.47c.35.18.36,2,1.49,1.53l12.03-5.94c-3.63,5.82-11.62,3.05-11.97,11.53-1.46-4-1.07-3.63-1.54-7.11Z"/>
        <path class="cls-1" d="M331.91,821.1c.7-1.87,2.21-2.07,1.98-2.85l-5.81-6.42c.77-1.89,5.75,1.85,6.71,3.07,4.21,5.39,2.51,12.35,13.4,12.22,1.4-3.1-1.75-5.44-2.66-8.19-.29-.87.19-1.68.15-1.79,1.82,2.99,3.56,6.28,5.19,9.7l4.8-2.51-3.84-10.48c1.86,1.8,7.82,10.68,6.17,12.56-2.12-2.59-4.19.62-6.48,1.74-.87,1.43,3.97,6.71,1.43,8.91-1.53-7.44-4.59-9.39-11.9-9.5l4.23,7.94c-5.29-1.16-6.16-10.04-9.91-14.32-.88-1.01-2.8.08-3.47-.07Z"/>
        <path class="cls-1" d="M445.32,702.46c-7.82,5.28-11.99,7.02-20.27,10.86,5.9-4.14,13.25-8.4,20.27-10.86Z"/>
        <path class="cls-1" d="M281.4,474.9c1.73,1.7,4.67,4.32,2.18,6.21.39.89,1.34-.61,2.06-.03,2.25,1.85,8.85,17.72,9.87,18.03l15.87-8.51c.23-.79-4.69-5.81-2.03-7.99l3.82,6.93,9.92-5.38c1.71-1.74-3.39-9.21-4.32-11.67-.38-1.02-.2-2.23-.38-2.67l17.53,34.85c-1.43,1.03-1.9-1.56-2.52-2.6-1.44-2.44-2.61-5.06-4.02-7.5l-9.98,4.78-4.91-9.28c-.6.24-1.13,2.11-1.05,2.26l11.34,21.15c.59,1.1,1.8,3.88.37,4.91l-13.3-26.91-14.54,7.79c-.03,8.83,6.43,17.9,8.27,26.31.34,1.55,1.29,4.54-1.12,5.02-1.11-1.18,0-2.73-.37-3.79-2.7-7.76-7.18-18.59-10.63-26.12-3.81-8.31-9.31-16.84-13.82-24.86.46-.43,1.5-.6,1.76-.95ZM328.01,494.16l-4.16-6.84-8.01,3.16,4.26,7.94,7.92-4.26Z"/>
        <path class="cls-1" d="M241.18,365.98l22.51-10.93-3.78-7.06c4.53.1,4.43,7.12,5.5,10.15.95,2.68,3.17,4.83,3.58,7.74l-13.23,8.2c5.23,6.96,7.69,18.83,12.48,25.57.69.96,1.12,1.45,2.4,1.2.88-.17,14.57-7.41,15.86-8.27,1.04-.69,1.83-1.68,2.78-2.47,3.09,5.79,6.76,11.49,9.44,17.63-3.36.64-2.17-1.95-2.53-2.62l-6.85-12.78-6.18,3.3,13.52,27.35c6.8,15.75,15.25,30.94,21.69,46.82l-21.37-41.77c-2.92.74-11.39,3.5-11.92,6.23,2.88,5.41,5.65,10.98,8.37,16.57.54,1.1,2.42,2.92.76,3.55l-10.86-20.27-12.34,6.61,9.68,18.07c.36,2.31-3.7,3.72-3.7,4.73-.02,3.68,3.56,7.22,4.96,10.43.07.39-.38.66-.58.92-.32-.32-1.86.23-2.28-.47l-14.45-28.41-2.05-.6c-2.08.99-6.89,2.35-6.51,5.18l50.14,95.55c7.12,2.19,1.79-6.34.54-9.65-.65-1.73-.49-2.62,1.32-3.3,1.18,3.11,4.16,8.07,4.31,11.29s-6.8,4.15-8.67,6.77l.55,5.53-1.92-4.08-1.83-.53-16.17,8.57c-1.02,1.89,6.75,9.72,4.29,12.36l-6.15-11.46-9.68,5.16c-.95-2.41-4.5-4.39-3.35-7.24l4.62,5.45c3.99-1.74-.33-5.24,1.56-7.64l4.16,4.58,26-13.93-51.79-98.62,9.46-5.76-2.35-4.41c1.66-.75,1.93,1.95,4.09,2.49,1.48.38,2.85-1.46,4.43-1.39l-13.93-26c-.11-.2.65-2.43,1.05-2.26,1.88,4.33,11.95,26.68,14.39,26.96l11.73-6.89c-2.28-5.17-6.51-11.36-8.28-16.54-.39-1.13-.59-2.37.52-3.16,1.41,1.09.89,3.75,1.25,4.43l8.27,15.42,11.46-7.22-14.41-28.1-11.76,5.76c-.23.79,4.69,5.81,2.03,7.99l-2.9-7.51c-4.28,3.13-11.97,4.2-13.61,9.55-3.79-3.2-9.02,3.2-12.84,4.62l6.95,8.75-5.93-4.75,4.81,12.18c-2.36,1.3-6.07-15.24-8.07-16.11l-1.72,1.86-1.84-.52-6.11-10.9c-3.78,4.86,3.38,8.92,2.95,13.81-.52,1.02-15.79,9.38-17.92,10.1-.98.33-1.9.65-2.66-.27l-8.41-11.95c-1.62,4.49,4.02,9.51,4.49,13.15.18,1.37.37,1.93-1.38,2.19-1.56-4.84-3.87-7.23-5.04-10.38-.6-1.6,1.25-5.68-1.29-7.78l-3.57,2.97c.35,3.38,2.28,5.12,5.18,6.36l-2.65,1.44c1.53,1.07,1.4,2.39,1.9,3.52l-24.77-37.77,6.69,8.34,10.59,17.56c.59.27,9.38-6.03,11.11-6.62,2.8-.96,5.56,4.67,5.93,7,.23,1.43-1.69,2.35-1.44,3.4.23.93,3.51,6.88,3.99,7.18l18.05-8.43-3.71-8.68-2.77.8c-.67-5.29-2.97-3.96-3.52-4.52-5.76-5.78,10.38-7.5,9.75-12.44l5.15,9.03-.42,1.87-3.5.93,4.72,8.81c4.19-1.14-2.19-7.89-.7-8.71l4.22,6.83,11.34-6.18c-2.34-5.19-4.66-10.3-7.03-15.42.07.11,1.19.36,2.06,1.61,1.72,2.48,4.78,11.95,6.59,12.49l12.48-5.38.58-1.77-12.49-25.89-8.34,2.67c-3.56-3.05-4.16-8.22-5.7-11.77ZM208.04,414.56l-3.92.79c1.2,2.73,2.88,5.21,5.97,5.85,1.12-2.48-.63-4.85-2.04-6.64ZM234.73,406.89c-1.86-4.17-1.42-8.39-6.25-3.38l3.66,4.71,2.6-1.34ZM265.75,443.58l9.92,18.51c1.6-.84,3.67-1.37,3.42-3.5-.1-.85-6.75-13.4-7.73-15.17-.4-.74-.79-1.48-1.21-2.2l-4.41,2.37Z"/>
        <path class="cls-1" d="M246,394.03c-1.56-2.59-2.41-4.67-3.96-7.45-7.53-13.54-14.97-27.23-21.6-41.27l.86-1.58,2.9,7.52c1.48.43,23.51-12.64,27.48-14.17,1.58-.61,2.87.05,3.44-.13,1.59,2.03,4.86,3.62,3.33,7.29l-3.76-5.9-20.99,11.76c2.23,5.46,5.14,10.46,7.48,15.89l-9.91-16.13-6.08,3.2c6.34,12.09,13.63,24.2,19.63,36.59.85,1.75.82,3.63,1.17,4.4Z"/>
        <path class="cls-1" d="M262.65,334.06c-2.97-.4-5.22,2.18-7.52,2.9-.38-.49-.6-1.21-.94-1.77l6.58-2.41c-1.45-6.07-5.45-11.22-7.72-16.8-.41-1.01-.2-2.22-.38-2.67,4.3,6.63,6.73,13.39,9.98,20.74Z"/>
        <path class="cls-1" d="M462.3,717.19c-.12-.28-1.23-.83-1.64-1.78-2.33-5.41-4.25-11.04-6.92-16.33-2.58,2.23-5.67,2.42-8.41,3.38,2.71-1.83,5.3-4.01,8.21-5.65-1.4-3.71-3-7.28-3.98-11.18-.35-1.41-1.8-4.65-.4-5.64l13.14,37.2Z"/>
        <path class="cls-1" d="M474.43,576.81c3.63,2.2,6.04,5.19,10.87,4.02,4.43-1.07,4.55-6.4,5.06-10.29,2.02,2.76-.51,5.6.3,8.58,1.06,3.93,4.53,7.96,6.09,11.82-2.22.59-2.08-.77-2.79-1.95-2.62-4.37-2.59-11.5-9.52-6.21l7.09,13.22c2.41-1.35,4.6-1.3,3.9-4.36,6.25,1.84-1.26,4.74-4.31,5.71l-7.32-13.66c-.75-1.4-9.21-2.75-9.37-6.89Z"/>
        <path class="cls-1" d="M207.79,434.93c.42,1.29-.04,3.07.77,4.67,1.14,2.27,4.83,6.33,6.46,9.14.58,1.01,2.61,2.7.88,3.4l-6.57-10.1-1.27,1.83c-.97-.46-.25-7.63-4.51-6.32-1.17.36-2.45,3.13-4.8,1.65l5.93-3.74c-1.56-1.36-1.7-2.93-2.36-4.4,2.55.91,2.46,4.32,5.48,3.87Z"/>
        <path class="cls-1" d="M238.69,293.58c-.39,1.37,4.5,7.43,5.6,8.34-1.36-1.63-5.95-3.59-6.93-6.51-1.68,1.59-4.25,3.35-6.28,4.41-1.2.63-2.39.25-2.5.31,2.77-1.44,6.05-4.77,10.1-6.55Z"/>
        <path class="cls-1" d="M375.53,718.3c-3.16-4.92-6.59-11.38-8.09-17.22,3.42,4.46,7.02,11.54,8.09,17.22Z"/>
        <polygon class="cls-1" points="116.21 581.59 112.13 596.24 102.87 592.68 102.6 591.15 111.45 593.12 116.21 581.59"/>
        <path class="cls-1" d="M208.71,578.52c-3.29-.33-3.44-3.35-7.02-.34-.66.56-6.72,7.81-6.88,8.33-.82,2.58,2.62,4.42.89,5.8l-2.24-6.2c3.79-4.12,9.77-16.05,15.25-7.58Z"/>
        <path class="cls-1" d="M147.67,633.93c1.71-.8,1.85,2.24,3.83,3.15,4.35,2,11.5-8.27,11.54-12.53,3.47,7.35-12.14,20.82-15.37,9.38Z"/>
        <polygon class="cls-1" points="132.64 561.44 130.84 568.65 125.14 581.32 127.34 572.76 132.64 561.44"/>
        <polygon class="cls-1" points="183.4 679.46 171.96 691.88 167.72 694.65 179.16 682.23 183.4 679.46"/>
        <path class="cls-1" d="M212.99,649.99l-19.01,19.36c-.28,1.3,4.56,5.58,1.9,7.96-1.15-1.48-1.07-4.01-2.44-5.24s-2.57.66-3.1-.86l22.65-21.22Z"/>
        <path class="cls-1" d="M482.42,543.03c8.13-2.86,16.18-4.93,24.39-7.4l-5.24-9.52-11.06,2.36,4.4-2.34c-5.81-14.53-14.92-28.08-21.58-42.41-.79-1.69-2.88-4.8-1.28-6.61l25.16,48.75c2.13-.15,6.04-.52,5.6-3.55-4.69-11.07-13.36-22.58-17.72-33.51-.56-1.4-1.28-2.82.15-4.01l19.27,37.7,34.64,1.47-9.38.51-.37,2.45c-.54-.94-.74-2.16-2.02-2.43-2.09-.43-20.44.07-22.22.73-.77.29-1.47.71-2.17,1.11-.3,1.03,8.15,11.35,7.11,14.34-1.47-.08-1.1-2.86-2.9-3.11-3.67-.51-14.96,4.1-19.41,4.87l8.03,14.98-16.34,7.62-9.92-18.51-19.51,5.92c-.32,1.06,5.77,7.22,2.97,9.76l-4.32-10.16-11.11,2.55c3.21-1.05,7.46-3.61,10.46-4.45,6.32-1.78,27.64-6.81,34.39-7.12-3.85,1.35-7.68,2.56-11.52,3.91l9.59,15.9,11.6-5.02c2.8-2.1-4.72-13.06-5.68-15.78-1.66,1.6-2.78.94-3.99.99Z"/>
        <path class="cls-1" d="M363.86,527.15l-1.83-.16c-.74-.4-.12-1.36-.24-1.58l-8.97-16.75c-1.15-2.15.22-4.54-.11-6.69-1.09-7.16-2.98-14.18-3.59-21.39-14.08,4.06,3.01,13.76.63,22.34l-8.57-18.1-4.42,2.37,1.97,5.75-8.5-15.85,6.67,8.34,3.62-1.89-1.33-5.59,3.29,5.06c3.88-3.69,6.27-1.75,5.1-8.42l-3.58-16.21c3.52,9.91,5.82,20.5,8.02,30.85.74,3.5,2.4,20.34,3.09,21.62l8.74,16.31Z"/>
        <path class="cls-1" d="M374.28,531.78c-.65,6.75,15.95,5.31,15.68.67-.12-2.02-2.62-4.12-1.04-5.1l2.82,4.1c.77,5.09-9.56,7.27-13.03,7.09-1.75-.09-8.72-5.09-4.42-6.76Z"/>
        <path class="cls-1" d="M369.67,422.43c3.31.79,6.86,2,10.1,3.15-6.1.66-12.58-2.27-18.45-3.72-1.96-1.72.82-1.16,1.77-.97,2.14.43,4.44,1.02,6.58,1.53Z"/>
        <path class="cls-1" d="M482.45,528.28l-2.58,2.45-16.04,3c4.86-3.97,12.97-2.59,18.62-5.45Z"/>
        <path class="cls-1" d="M183.83,426.21c1.45-1.03,1.9,1.55,2.53,2.6,1.85,3.13,4.59,10.17,6.54,12.23,1.08,1.14,2.18-2.74,2.36,4.51l14.9,25.56,2.7-2.51-3.34-19.84,5.93,19.5,8.36-4.53,11.09,17.41c8.57,20.6,24.88,41.25,33.04,61.72.56,1.4,1.28,2.82-.15,4.01l-43.93-81.97-8.34,5.62,3.4,2.2-.82,2.65,2-.52,1.47,3.78-3.08,1.64-4.32-10.16-3.53,1.88,9.68,18.07,2.25-.04,1.03-2.29,2.05,1.74c.29,2.47-4.46,2.9-5.69,1.77-3.34-3.08-7.07-14.31-11.09-18.3l-13.22,7.09,18.35,32.14c-1.43,1.03-1.9-1.56-2.52-2.6-5.69-9.66-10.82-19.55-16.71-29.07l-11.47,6.15c-.36,1.18,5.98,9.65,6.94,11.66.55,1.15,1.04,1.91-.25,2.92l-7.79-14.54c-.19-.36-2.06-.23-.73-2.44.68-.67.89,1.35,1.74,1.2,1.02-.18,10.14-5.28,10.29-6.45.32-2.48-6.48-8.66-5.36-11.94l7.67,11.27,12.64-7.38-14.8-26.53-6.35.95,5.05-3.27-8.5-15.87Z"/>
        <path class="cls-1" d="M207.75,528l7.08,13.22c2.51-.92,8.12-5.72,10.39-3.84l1.18,2.17-2.39-1.01-7.36,3.97,4.26,7.94c3.05-1.95,7.57-2.62,8.32-6.73,4.22,4.98-7.47,5.15-7.89,8.69-.48,4.01,7.35,8.21,4.91,12.19-4-7.12-7.59-14.52-11.58-21.66-2.26-4.04-5.58-7.67-7.51-11.8-.86-1.83-2.02-2.21.61-3.14Z"/>
        <path class="cls-1" d="M204.92,554.45c1.19-.71,2.78-1.15,3.83-2.02.79-.66-1.37-2.63,1.4-3.02l.85,3.55c-9.23,2.29-1.6,9.23,1.44,14.78.63,1.15,1.82,1.52.12,3.06-3.2-3.78-4.71-13.67-9.56-13.59,1.97-5.45-6.56-9.06-7.79-14.55,1.12-.92,1.79.7,2.45,1.46,2.54,2.95,4.98,7.07,7.28,10.32Z"/>
        <path class="cls-1" d="M227.17,534.6l10.82-5.23-9.32,6.06c-1.65,3.25,5.33,6.42,2.82,9.34-3.87-7.09-7.89-14.1-11.77-21.2-.63-1.16-1.82-1.53-.11-3.07l7.56,14.1Z"/>
        <path class="cls-1" d="M243.04,523.75l2.57-1.29,2.82,5.28c-4.76-3.21-4.85,2.17-9.58,1.16l4.18-2.79-5.66-10.58,5.67,8.23Z"/>
        <path class="cls-1" d="M423.19,576.47l-3.7,3.67,2.19-4.13-7.64-14.5c-1.15-.35-7.95,6.31-10.64,3.45,8.74-4.25,17.15-7.14,26.57-9.7.61.1-.28,1.59-.18,1.79l12.75,23.8,2.03.61,14.54-7.79c.26-.14-2.84-4.08-.61-5.35l1.96,5.76-17.63,9.45-14.16-25.33-13.77,2.86,8.27,15.42Z"/>
        <path class="cls-1" d="M358.55,608.29l2.06,3.96,9.49-5.67-.51-3.09c4.76,6.06-4.28,7.51-8.59,10.12l-1.44-.14c-1.15-1.26-4.39-4.28-1.01-5.19Z"/>
        <path class="cls-1" d="M323.63,591.82l1.77-.94c.61.12-.28,1.59-.18,1.79l11.57,21.59-1.77.94c-.19-.02-.46-2.96-.77-3.55l-10.63-19.83Z"/>
        <polygon class="cls-1" points="369.11 602.61 365.73 600.34 356.73 604.79 356.32 608.34 354.56 604.86 365.38 599.1 369.11 602.61"/>
        <path class="cls-1" d="M399.32,610.26l12.78-6.85c.2-.11,2.43.65,2.26,1.05l-14.84,6.87c-2.01-.39-3.52-2.07-1.63-3.71l1.43,2.64Z"/>
        <path class="cls-1" d="M297.54,634.17l5.09,9.65-11.41,5.14-4.54-9.63,10.86-5.16ZM287.44,640.72l4.87,7.06,8.21-4.97-4.03-6.45-9.04,4.36Z"/>
        <path class="cls-1" d="M295.11,683.24l2.91-.56c10.69,8.72-6.79,12.72-2.91.56Z"/>
        <path class="cls-1" d="M297.36,722.77l-1.45-3.77c9.3,3.56-8.5,10.43-9.34,8.97.23-2.83,1.48-1.57,2.9-2.15,2.63-1.07,5.13-2.44,7.89-3.06Z"/>
        <path class="cls-1" d="M305.13,665.26l-15.44,7.16c3.04-3.06,8.02-5.78,12.06-7.27,1.23-.45,2.12-1.44,3.38.1Z"/>
        <path class="cls-1" d="M428.37,641.19l-6.14,3.35c3.54,3.51,2.05,8.07,7.81,8.23l-3.51,1.9-5.32-10.84c.24-1.97,5.33-4.72,7.16-2.64Z"/>
        <path class="cls-1" d="M183.49,698.69c-.61-.16-2.46,2.42-3.11.54l13.8-10.24-9.24,7.93,8.8,20.16-15.27,8-8.09-14.83-15.73,14.08-2.29-3.28,3.05.65,21.49-18.33-5.05,5.63,7.85,14.41,13.22-7.09-9.45-17.63Z"/>
        <polygon class="cls-1" points="123.71 752.26 116.32 759.65 119.55 763.58 115.78 762.1 111.15 766.94 122.35 750.75 123.71 752.26"/>
        <polygon class="cls-1" points="132.17 770.66 132.33 772.61 137.69 772 132.89 775.73 131.01 773.31 126.23 778.14 130.11 772.66 127.35 769.62 132.17 770.66"/>
        <path class="cls-1" d="M148.3,751.59l-6.03,8.89,2.75,1.92-1.73,2.09-1.4-1.28-2.15,2.02c1.68-1.85.35-5.06.47-5.32,1.09-2.2,5.75-7.12,8.09-8.33Z"/>
        <path class="cls-1" d="M116.9,669.71c4.67,5.57,5.38,10.64-.91,15.22l-1.88-3.52,3.05.57c3.03-3.65,2.49-6.27-.2-10.04l-4.57,4.15,4.51-6.39Z"/>
        <path class="cls-1" d="M124.93,684.68c4.29,5.75,4.3,9.75-1.38,14.35-.32-3.07,3.95-5.08,3.33-8.23-.79-3.99-2.66-4.65-5.64-2.43l3.69-3.69Z"/>
        <path class="cls-1" d="M489.45,448.92c1.64.12,8.25,1.89,10.32,2.47,1.06.29,5.51,1.23,5.17,2.43-6.71-1.47-13.98-.7-20.23-3.9,1.51-1.13,2.97-1.12,4.74-1Z"/>
        <path class="cls-1" d="M509.65,509.15c-.57-4.03-3.52-5.17-7.26-4.05-1.81,2.49,3.47,6.18,3.31,7.3-3.23.63-6.3-6.09-4.52-8.42,3.51-1.81,11.51.13,8.47,5.16Z"/>
        <path class="cls-1" d="M208.7,400.24c.61.22,1.95-1.3,2.94-.72l3.39,6.59-2.63.22.02,2.3c-2.16.4-6.16-8.01-6.1-10.33,1.52-1.19,1.3,1.56,2.38,1.95Z"/>
        <path class="cls-1" d="M174.79,407.23c-2.14,1.81-1.21.76-2.11-.56-3.54-5.19-6.38-11.54-9.56-17.01,1.91-.6,2.1.73,2.87,1.78,3.11,4.25,5.21,11.48,8.8,15.79Z"/>
        <path class="cls-1" d="M184.24,424.86c-1.15.67-1.27,1.63-1.94-.08-2.05-5.2-5.26-8.82-7.64-13.48-.93-1.82-1.94-2.3.61-3.18-.31,2.22,1.59,2.96,2.12,3.96l6.85,12.78Z"/>
        <path class="cls-1" d="M589.27,761.48l-2.39,1.8-23.54-1.52c3.05-2.26,6.15-.24,9.29-.23,5.55.02,11.09-.45,16.64-.05Z"/>
        <path class="cls-1" d="M315.36,394.31l7.32,13.66c1.36,2.54-7.2,4.27-8.82,5.31-2.46.38-6.55-12.52-8.66-14.66l10.16-4.31Z"/>
        <path class="cls-1" d="M304.6,420.3c.4.15,1.18-.41,1.63-.67l-1.33,3.7c6.29,12.14,12.39,24.2,18.36,36.52.53,1.09,2.42,2.92.77,3.54l-21.07-41.45-2.77-10.43c1.95,1.51,2.33,7.98,4.41,8.79Z"/>
        <path class="cls-1" d="M566.2,727.78c2.36.56,4.8,1.33,7.17,1.94,1.62,2.07-.8,1.51-1.92,1.34-4.01-.59-10.44-3.27-14.5-4.47,2.64-.72,6.55.55,9.24,1.19Z"/>
        <path class="cls-1" d="M279.23,887.92l-3.14,10.66-7.69,17.81c1.94-7.54,4.69-16.22,7.71-23.32.74-1.73,1.4-4.27,3.12-5.15Z"/>
        <path class="cls-1" d="M199.44,732.68c-.54-.7-2.77-1.17-3.41-2.13l5.1,1.87,5.13-3.96,8.97,16.75-7.05,3.78c-3.25-4.71-5.4-11.93-8.74-16.31ZM208.17,746.63c8.58.14,2.47-9.81-.66-13.73-2.12-2.66-4.05-.65-6.47.63l7.14,13.1Z"/>
        <path class="cls-1" d="M46.22,116.49l7.94-4.24c.41,3.51-4.62,2.98-6.08,5.57,3.75,4.4,4.43,12.58,9.8,15.12l17.19-9.21-8.5-15.87-4.23.56c.59-1.88,4.21-2.34,5.51-1.31l9.45,16.54-19.52,11.27-1.86-.36-9.68-18.07Z"/>
        <path class="cls-1" d="M246.25,307.69c1.2,2.27-3.84,2.96-3.92,3.21l4.07,12.32-7.65,4.34,5.7-5.28-4.37-11.29,6.15-3.3Z"/>
        <path class="cls-1" d="M158.78,426.02l3.29,6.18-3.71-4.82-2.46,1.48c.13,3.06,2.13,6.49-1.75,7.61l3.41,2.14c-2.23,3.84-7-5.22-6.77-7.23l7.99-5.35Z"/>
        <path class="cls-1" d="M268.54,368.33l4.35,9.09-7.3,4.48c-3.72-1-3.88-5.09-5.9-7.73l8.85-5.83Z"/>
        <path class="cls-1" d="M308.89,481.73l-.87.46c-1.5-.85-1.27-2.35-1.66-3.07l-8.97-16.75c-.11-.2.66-2.43,1.05-2.26,1.04,1.08.74,3.48,1.25,4.43l9.21,17.19Z"/>
      </g>
    </g>
  </g>
</svg>