<?xml version="1.0" encoding="UTF-8"?>
<svg id="Layer_2" data-name="Layer 2" xmlns="http://www.w3.org/2000/svg" viewBox="0 0 1172.93 876.19">
  <defs>
    <style>
      .cls-1, .cls-2 {
        fill: none;
        stroke: #c0bebe;
        stroke-miterlimit: 10;
        stroke-width: 3px;
      }

      .cls-2 {
        stroke-dasharray: 12;
      }
    </style>
  </defs>
  <g id="Layer_1-2" data-name="Layer 1">
    <g>
      <path class="cls-2" d="M1126.64,26.01c-31.82-13.36-68.82-17.36-100.82-.36-1,1-3,0-4,1-11,6-21,13-30,21-34,32-66,61-95,100-13,19-24,37-31,58-6,19-11,37-17,56-10,29-27,56-54,72l-3,3c-5,3-10,6-16,8-33,10-62,26-90,47-36,28-62,61-94,93-4,4-8,7-13,11-9,5-16,11-25,15-7,3-15,6-22,9-35,11-72,4-108,5-13,1-25,4-34,14-8,11-14,22-20,34-8,16-25,25-43,23-15,3-27,13-36,25-16,24-32,44-56,59l-3,3c-18,11-36,18-57,22-22,3-42-1-64-4-11-1-21,0-31,4-15,6-26,17-35,30-19,31-25,67-16.59,100.91"/>
      <g>
        <line class="cls-1" x1="1171.87" y1="1.06" x2="1120.96" y2="51.97"/>
        <line class="cls-1" x1="1171.87" y1="51.97" x2="1120.96" y2="1.06"/>
      </g>
      <g>
        <line class="cls-1" x1="51.97" y1="824.21" x2="1.06" y2="875.13"/>
        <line class="cls-1" x1="51.97" y1="875.13" x2="1.06" y2="824.21"/>
      </g>
    </g>
  </g>
</svg>