<?xml version="1.0" encoding="UTF-8"?>
<svg id="Layer_2" data-name="Layer 2" xmlns="http://www.w3.org/2000/svg" viewBox="0 0 1256.97 1825.87">
  <defs>
    <style>
      .cls-1 {
        stroke-dasharray: 10.46 10.46;
      }

      .cls-1, .cls-2, .cls-3, .cls-4, .cls-5, .cls-6, .cls-7, .cls-8, .cls-9, .cls-10, .cls-11, .cls-12, .cls-13, .cls-14, .cls-15, .cls-16, .cls-17, .cls-18, .cls-19, .cls-20, .cls-21, .cls-22 {
        fill: none;
        stroke: #c0bebe;
        stroke-miterlimit: 10;
      }

      .cls-1, .cls-2, .cls-3, .cls-4, .cls-5, .cls-6, .cls-7, .cls-8, .cls-9, .cls-10, .cls-11, .cls-12, .cls-13, .cls-14, .cls-16, .cls-17, .cls-18, .cls-19, .cls-20, .cls-21, .cls-22 {
        stroke-width: 3px;
      }

      .cls-2 {
        stroke-dasharray: 12.2 12.2;
      }

      .cls-3 {
        stroke-dasharray: 12.39 12.39;
      }

      .cls-4 {
        stroke-dasharray: 11.86 11.86;
      }

      .cls-5 {
        stroke-dasharray: 12.83 12.83;
      }

      .cls-6 {
        stroke-dasharray: 12.07 12.07;
      }

      .cls-8 {
        stroke-dasharray: 12.55 12.55;
      }

      .cls-9 {
        stroke-dasharray: 11.97 11.97;
      }

      .cls-10 {
        stroke-dasharray: 13.35 13.35;
      }

      .cls-11 {
        stroke-dasharray: 11.99 11.99;
      }

      .cls-12 {
        stroke-dasharray: 11.86 11.86;
      }

      .cls-13 {
        stroke-dasharray: 11.87 11.87;
      }

      .cls-14 {
        stroke-dasharray: 11.71 11.71;
      }

      .cls-15 {
        stroke-width: 2px;
      }

      .cls-16 {
        stroke-dasharray: 10.88 10.88;
      }

      .cls-17 {
        stroke-dasharray: 12.08 12.08;
      }

      .cls-18 {
        stroke-dasharray: 12.49 12.49;
      }

      .cls-23 {
        fill: #c0bebe;
      }

      .cls-19 {
        stroke-dasharray: 10.02 10.02;
      }

      .cls-20 {
        stroke-dasharray: 12.19 12.19;
      }

      .cls-21 {
        stroke-dasharray: 11.92 11.92;
      }

      .cls-22 {
        stroke-dasharray: 11.92 11.92;
      }
    </style>
  </defs>
  <g id="Layer_1-2" data-name="Layer 1">
    <g>
      <g>
        <path class="cls-15" d="M125.49,409.57c1.13,1.25,1.38,2.36,2.77,3.33,2.16,1.48,4.01,1.09,6.64,1.1,3.3,0,5.09-.88,8.31-1.66,3.05-.75,4.93-.82,7.74-2.22,2.64-1.28,3.45-3.13,6.1-4.42,3-1.48,4.97-1.79,8.29-2.21,3.23-.42,5.47,1.56,8.32,0,3.05-1.68,3.21-4.49,4.42-7.75,1.09-2.89,1.23-4.69,1.67-7.74.33-2.37.52-3.71.56-6.09.03-2.21-.85-3.73-.81-5.6l.25.07c-.08-.07-.16-.12-.24-.18.03-.46.08-.95.24-1.48.59-1.95,1.37-2.95,2.77-4.43,1.61-1.68,4.52-1.03,4.98-3.33.46-2.29-2.03-3.02-3.32-4.98-1.3-1.94-1.8-3.2-3.32-4.99-.99-1.16-1.34-2.22-2.78-2.77-2.1-.78-3.28,1.82-5.53,1.68-.58-.04-1.05-.2-1.51-.4-.93-.43-1.68-1.07-2.93-1.28-1.48-.23-2.36-.11-3.87,0-2.87.23-4.43.89-7.19,1.68-3.75,1.05-6.71.52-9.41,3.31-1.08,1.13-2.12,1.77-2.21,3.33-.16,2.62,4.84,1.32,5.53,3.86.3,1.04.36,1.75,0,2.77-.61,1.75-2.02,2.6-3.86,2.77-1.93.18-2.83-1.14-4.44-2.21-1.15-.76-1.54-1.58-2.77-2.21-2.49-1.3-4.76-1.97-7.2-.56-1.46.85-2.65,1.64-2.76,3.33-.09,1.44.72,2.22,1.66,3.32,1.56,1.85,5.64.36,5.54,2.77-.06,1.25-.76,1.88-1.67,2.78-1.61,1.56-4.7-.43-5.53,1.65-.4,1.01-.4,1.77,0,2.76.83,2.09,3.44.84,5.53,1.67,2.26.88,5.89.38,5.54,2.77-.25,1.67-2.13,1.59-3.33,2.77-1.43,1.38-1.73,2.68-3.32,3.88-1.88,1.38-3.67.82-5.54,2.2-1.59,1.19-2.14,2.27-3.32,3.88-1.5,2.01-3.94,3.09-3.32,5.53.43,1.78,2.08,1.96,3.32,3.32Z"/>
        <path class="cls-15" d="M359.64,583.38c-1.09,1.14-1.93,2.55-1.11,3.89.71,1.15,2.52,0,3.32,1.1,1.06,1.44-1.25,2.65-1.11,4.43.1.89.14,1.43.56,2.21.87,1.52,3.32.56,3.89,2.21.45,1.23-.35,2.02-.56,3.33.43,1.5.43,1.67.56,2.76.14,1.29.33,2.08,0,3.32-.35,1.22-1.48,1.52-1.67,2.78-.16,1.08.03,1.8.56,2.76.66,1.21,2.08,1.01,2.76,2.21.54.96-.09,1.88.56,2.77,1.27,1.75,3.54.81,5.54,0,2.41-.97,2.14-3.76,4.45-4.98,1.39-.74,2.78.03,3.86-1.1,1.49-1.55.14-3.38,0-5.55-.1-1.94-.57-3.02-.56-4.97.03-1.74.43-2.7.56-4.45.24-3,.59-4.77,0-7.74-.47-2.48-.59-4.15-2.2-6.09-1.2-1.42-2.01-2.72-3.87-2.78-1.75-.04-2.28,1.51-3.87,2.21-2.08.93-3.33,1.34-5.54,1.66-2.36.36-4.45-1.69-6.09,0Z"/>
        <path class="cls-15" d="M456.5,638.19c1.28-1.54,2.74-1.97,3.33-3.88.57-1.87.16-3.15-.56-4.98-.68-1.73-.95-3.53-2.78-3.86-1.7-.33-2.29,1.5-3.86,2.2-2.28,1-3.65,1.4-6.09,1.66-1.72.19-2.69.11-4.43,0-1.74-.1-2.73-.18-4.43-.56-2.01-.43-2.93-1.79-5-1.65-1.34.09-1.96.86-3.3,1.1-1.7.3-2.71-.11-4.43,0-1.74.11-3-.44-4.43.55-1.84,1.31-2.05,3.32-1.67,5.54.24,1.43.73,2.22,1.67,3.33,1.79,2.14,4.27,1.24,6.62,2.76,1.95,1.24,2.17,3.86,4.45,3.87,1.75,0,2.28-2.87,3.89-2.21,1.63.67-.33,3.35,1.09,4.42,1.37,1.04,2.93-.85,4.43,0,1.35.78,1.09,2.25,2.21,3.33,2.59,2.47,5.68.62,8.87,2.21,1.11.56,1.55,1.39,2.74,1.66,2.01.44,3.72-.07,5-1.66,1.48-1.86,1.51-4.26,0-6.1-1.2-1.42-3.26-.24-4.45-1.66-.87-1.05-1.34-1.97-1.09-3.33.24-1.36,1.34-1.7,2.2-2.76Z"/>
        <path class="cls-15" d="M1031.09,813.11c-1.37-.17-2.14.4-3.33,1.09-1.7,1.03-3.37,1.89-3.32,3.89.07,1.55.82,2.62,2.22,3.32,1.55.78,2.85.17,4.43-.56,1.25-.56,2.08-1,2.76-2.22.54-.95.8-1.68.57-2.76-.37-1.64-1.65-2.55-3.33-2.76Z"/>
        <path class="cls-15" d="M696.74,687.44c2.86.34,4.53-.57,7.19-1.66,2.07-.82,3.2-1.47,5-2.75,2.47-1.8,4.9-2.55,5.52-5.55.45-2.15.8-4.43-1.09-5.53-1.74-1-3.18.3-4.98,1.1-2.26,1-2.67,3.06-4.98,3.88-2.45.86-4.15-.69-6.65,0-1.86.5-3.13.78-4.43,2.21-1.51,1.68-2.45,3.42-1.67,5.53.94,2.44,3.51,2.47,6.1,2.76Z"/>
        <path class="cls-15" d="M764.83,157.71c2.61,1,4.43.35,7.19,0,1.98-.26,3.11-.49,4.98-1.11,1.56-.52,3.51-.06,3.89-1.66.24-1.15-.45-1.81-1.11-2.77-1.7-2.48-4.38-1.69-7.21-2.77-1.72-.65-2.59-1.41-4.41-1.66-2.41-.3-4.32-.55-6.1,1.1-1.65,1.54-2.4,3.41-1.67,5.55.71,2.03,2.41,2.53,4.43,3.32Z"/>
        <path class="cls-15" d="M872.22,140c-1.93-.91-2-2.87-3.87-3.87-1.58-.85-2.66-1.11-4.43-1.11s-3.3-.27-4.43,1.11c-1.23,1.48-1.08,3.35,0,4.97,1.25,1.88,3.37,1.03,5.54,1.67,2.36.67,3.68,1.14,6.08,1.65,3,.64,6.62,3.94,7.74,1.11.78-1.89-.03-3.73-1.65-4.98-1.53-1.21-3.21.26-4.98-.55Z"/>
        <path class="cls-15" d="M780.89,120.63c2.47.84,4.41-.3,6.63,1.1,1.68,1.05,1.46,3.14,3.32,3.87,1.82.71,3.39.55,4.98-.56,1.27-.88.76-2.8,2.21-3.32,2.15-.79,3.13,1.99,4.43,3.87.83,1.17.64,2.3,1.67,3.32,1.86,1.86,4.03.88,6.65,1.1,2.78.25,4.5-.76,7.19,0,1.86.52,2.5,2.14,4.45,2.21,1.82.09,2.57-1.74,4.43-1.66,1.63.08,2.33,1.09,3.86,1.66,2.1.79,3.3,1.48,5.52,1.67,2.64.21,5.8,1.37,6.65-1.1.73-2.11-1.02-3.57-2.74-4.98-1.91-1.58-3.68-1.24-6.09-1.67-2.34-.43-4.03.61-6.1-.56-1.74-.98-1.79-2.61-3.32-3.87-1.72-1.42-3.33-1.27-4.97-2.78-1.74-1.57-1.65-3.39-3.35-4.98-1.48-1.39-3.33-1.03-4.43-2.75-1.49-2.38-.99-4.84.57-7.2.92-1.42,3.7-1.13,3.3-2.78-.33-1.41-2.69-.36-3.3-1.66-.7-1.42-.07-2.83,1.09-3.87,1.61-1.45,3.51,1.35,5.54.55,2.45-.95,2.1-3.59,3.86-5.53,1.56-1.69,3.02-2.06,4.45-3.87,1.48-1.9.75-4.18,2.76-5.53,1.98-1.35,3.73-.14,6.08-.55,1.77-.33,2.9-.21,4.45-1.12,1.72-1.02,1.89-2.5,3.32-3.87,1.58-1.48,2.54-2.3,4.43-3.33,2.93-1.59,5-1.57,8.28-2.21,3.66-.71,5.9-.02,9.45-1.1,2.5-.77,3.58-2.01,6.08-2.77,2.92-.89,4.81-.28,7.76-1.11,2.71-.76,3.91-2.08,6.63-2.76,3.35-.83,5.49.22,8.84-.55,2.95-.69,4.79-.98,7.21-2.78,1.86-1.36,4.05-2.14,3.87-4.42-.12-1.55-.95-2.39-2.21-3.33-1.6-1.2-3.06-.59-4.98-1.1-2.62-.71-3.96-2.74-6.65-2.21-1.41.29-1.93,1.28-3.32,1.66-1.86.52-3.21-.83-4.98,0-1.37.66-1.7,1.66-2.76,2.77-1.35,1.46-1.7,2.74-3.33,3.87-3.53,2.49-6.74.47-11.04.56-3.46.08-5.5-.78-8.87,0-2.28.53-3.25,1.84-5.52,2.21-2.57.42-4.06-.32-6.65-.56-2.4-.21-3.92-1.55-6.08-.56-1.82.84-2.03,2.37-3.33,3.89h-7.76c-1.91.65-2.99,1.15-4.97,1.65-3.58.91-6.76-1.45-9.41,1.11-1.25,1.2-1.39,2.34-2.2,3.88-.92,1.69-.4,3.79-2.24,4.42-1.48.51-2.29-1.08-3.87-1.1-2.03-.03-3.33.44-4.97,1.65-2.03,1.52-2.73,3.1-3.33,5.54-.45,1.89.8,3.21,0,4.98-.82,1.81-2.14,2.33-3.87,3.33-1.77,1.01-3.75.02-4.98,1.66-1.01,1.4-1.34,2.87-.54,4.42,1.18,2.33,6.63-2.04,6.63.56.02,1.99-2.05,2.51-3.87,3.33-1.98.88-3.56-.36-5.54.56-1.51.7-2.6,1.24-3.32,2.76-.73,1.55-.5,2.78,0,4.43.54,1.77,3.07,2.04,2.78,3.88-.31,1.82-2.08,2.28-3.87,2.76-1.91.51-3.19-1.31-5-.55-1.41.57-2.47,1.27-2.74,2.75-.28,1.35.35,2.18,1.09,3.33,1.46,2.28,3.53,2.45,6.09,3.33Z"/>
        <path class="cls-15" d="M367.92,573.42c.94,1.37,2.26,1.97,3.91,1.66,1.35-.25,1.84-1.15,2.76-2.21,1.51-1.78,1.75-3.26,2.21-5.54.59-2.74.19-4.39,0-7.19-.12-1.94.17-3.17-.54-4.99-.59-1.44-.69-2.98-2.24-3.31-1.93-.44-1.58,2.85-3.3,3.86-1.35.81-2.59.23-3.89,1.11-1.82,1.25-2.48,2.78-2.76,4.98-.24,1.96-.23,3.51,1.11,4.98.95,1.07,2.5.46,3.32,1.67,1.11,1.6-1.65,3.35-.57,4.97Z"/>
        <path class="cls-15" d="M563.88,642.06c1.16-1.55-1.15-2.82-2.2-4.42-1.27-1.93-1.79-3.44-3.87-4.45-1.77-.84-3.06-.11-5-.54-2.73-.64-3.84-2.45-6.62-2.78-2.17-.24-3.46-.03-5.54.56-1.58.44-2.6.62-3.87,1.66-1.88,1.53-3.79,3.34-2.78,5.55.59,1.24,1.6,1.49,2.78,2.21,1.6.95,3.02.43,4.41,1.66,2.34,2.03.1,5.1,1.68,7.75.68,1.18.96,2.16,2.21,2.77,1.79.86,3.14-1.87,4.98-1.11,1.88.77,1.95,2.56,2.74,4.42.57,1.25-.14,2.81,1.13,3.33,1.63.67-.56-3.84,1.11-4.42,1.04-.37,1.75.13,2.76.55,1.96.83,2.01,4.92,3.87,3.87,1.7-.94.09-3.03,0-4.98-.1-2.4-.1-3.75-.56-6.09-.43-2.22-3.3-3.99-1.67-5.54,1.27-1.18,3.39,1.37,4.43,0Z"/>
        <path class="cls-15" d="M569.98,676.39c1.34,1.17,2.69.71,4.43,1.09,2.57.56,4.12.39,6.63,1.11,1.79.51,2.8.84,4.45,1.65,2.08,1.04,2.81,2.45,4.98,3.33,2.03.83,3.33.87,5.52,1.1,2.59.28,5.02,2.01,6.65,0,1.09-1.36.78-2.7.54-4.44-.16-1.35-.4-2.13-1.09-3.31-.92-1.59-1.7-2.47-3.32-3.33-2.48-1.29-4.39,0-7.21,0-1.94,0-3.06-.24-4.97,0-1.11.14-1.67.59-2.78.56-1.35-.04-2.08-.56-3.32-1.11-2.41-1.09-3-3.2-5.54-3.88-1.88-.49-3.4-1.15-4.98,0-1.03.75-1.41,1.55-1.67,2.78-.33,1.81.28,3.21,1.67,4.44Z"/>
        <path class="cls-15" d="M509.77,197.58c.03-1.07.07-2.05.43-3.33-.36,1.28-.4,2.26-.43,3.33ZM428.92,506.94s0,0,0-.01c-.01,0-.03.02-.04.03.27-2.1,1.05-3.68.9-5.51.16,1.83-.59,3.42-.86,5.49,1.61-.9,2.52-1.78,4.05-2.41-1.53.63-2.42,1.51-4.05,2.42ZM976.84,651.46c-1.42,1-2.71-.42-4.41-.55-2.81-.21-4.41-.13-7.21,0-2.6.11-4.05.47-6.65.55-2.15.1-3.39-.12-5.54,0-1.95.11-3.04.35-4.98.56-2.36.24-3.72.8-6.09.55-2.24-.25-3.53-.61-5.52-1.66-2.59-1.35-3.3-3.13-5.54-4.98-1.89-1.57-2.85-2.68-4.98-3.87-2.22-1.22-3.58-1.93-6.1-2.21-1.28-.16-2.01.1-3.32,0-2.21-.17-3.63.03-5.54-1.12-3.21-1.94-2.66-5.29-3.86-8.85-1.16-3.36-2.26-5.3-2.2-8.86.02-2.41.24-3.84,1.09-6.09,1.09-2.93,3.53-3.66,4.41-6.65.87-2.89-1.7-5.23,0-7.74,1.08-1.54,2.15-2.14,3.89-2.77,3.04-1.13,7.31,4.23,8.28,1.1.82-2.51-1.91-3.77-3.86-5.54-3.25-2.93-6.98-1.29-10.52-3.88-2.59-1.88-3.39-3.7-5.54-6.09-1.8-2-3.22-3.53-4.64-5.1-.42-.47-.85-.95-1.28-1.44,0,0,0,0,0,0,0,0,0,0,0,0,0,0,0,0,0,0,0,0,0,0,0,0,.12-.03.24-.06.38-.09l-.76-.34c-.11-.13-.22-.25-.33-.38l.03.03c-.71-.8-1.44-1.66-2.23-2.64-1.79-2.13-2.73-3.38-4.45-5.53-2.78-3.46-3.92-5.8-7.21-8.86-2.92-2.75-6.22-2.67-8.28-6.09-2.36-3.88.62-7.4-1.11-11.62-1.06-2.6-2.1-3.91-3.87-6.09-1.72-2.14-2.36-4.11-4.98-4.98-1.84-.63-3.4,1.14-4.97,0-2.29-1.66-.09-4.45.54-7.21.82-3.67,3.06-5.17,3.86-8.85.38-1.71-.31-2.93.57-4.44,1.51-2.52,4.5-1.05,7.19-2.2,2.57-1.1,4.34-1.94,6.2-3.3.68-.49,1.37-1.03,2.1-1.68,2.55-2.23,2.61-4.98,5.52-6.65,3.25-1.81,5.8-.43,9.45-1.09,1.94-.36,3.18-.24,4.97-1.12,3.47-1.66,2.33-6.91,6.08-7.74,1.93-.42,3.07.1,4.98.55,3.77.88,5.02,4.17,8.87,4.43,3.59.25,5.56-4.24,8.84-2.78,2.1.94,2.81,2.41,3.89,4.44,1.89,3.64.47,6.41.56,10.51.05,2.6-1.08,4.29,0,6.64.68,1.55,3.28,1.72,2.76,3.33-.59,1.86-3.04-.34-4.98-.55-2.17-.23-3.39-.34-5.54-.56-2.15-.23-3.37-.69-5.52-.55-1.98.12-3.56-.28-4.98,1.1-1.6,1.51-1.72,3.41-1.09,5.53.69,2.5,4.72,1.83,4.97,4.42.09.99.09,1.72-.38,2.5-.05.1-.1.18-.17.28-1.27,1.75-3.42.45-5.52,0-.3-.06-.57-.16-.8-.28-1.55-.74-2.43-2.41-4.18-1.94-1.25.33-2.07.88-2.64,1.94-.05.1-.1.18-.14.28-1.01,2.1.26,4.29,2.21,5.53,1.48.95,2.99-.42,4.43.56,1.62,1.07,1.16,2.82,2.24,4.43.75,1.16,1.18,1.83,2.19,2.77,1.63,1.52,3.72.95,5,2.77,1.13,1.62-.42,3.68,1.09,4.98,1.82,1.55,4.18-1.96,6.1-.55,1.65,1.22.5,3.27,1.67,4.97.83,1.29,1.41,2.08,2.76,2.78,2.31,1.17,4.62-2.2,6.63-.56.97.8,1.25,1.59,1.65,2.77.75,2.03-.23,3.39,0,5.54.31,2.66.8,4.12,1.67,6.64.85,2.47,1.48,3.83,2.78,6.09,1.61,2.79,2.48,8.7,4.98,6.64,1.53-1.28.92-3,1.09-4.99.28-3.25-3.28-5.87-1.09-8.3.83-.93,1.6-1.21,2.78-1.66,1.81-.71,3.06-.97,4.97-.56,3.59.79,3.59,4.51,6.09,7.2,1.67,1.78,2.59,2.82,4.43,4.43,3.14,2.75,9.1,1.91,8.86,6.09-.12,1.93-.82,3.11-2.22,4.43-1.95,1.81-3.99,2.1-6.63,1.65-2.21-.36-2.9-2-4.98-2.76-2.27-.83-3.68-.94-6.11-1.1-1.49-.11-2.47-.61-3.85,0-2.69,1.15-2.28,4.25-2.22,7.19.05,1.32-.04,2.16.56,3.32,1.13,2.14,3.39,1.7,5.52,2.77,1.75.86,3.46.56,4.45,2.22,1.27,2.05-.66,3.72-1.09,6.08-.43,2.16-1.56,3.39-1.09,5.54.47,2.41,1.94,3.43,3.85,4.98,1.62,1.33,3.25,1.21,4.81,2.22.24.15.47.33.73.54,1.86,1.7,2.2,3.27,3.32,5.55,1.98,4.05,2.17,6.7,3.32,11.07.87,3.38,1.93,5.43,2.17,8.55.02.45.05.92.05,1.4-.02,1.96,1.04,3.87-.56,4.98ZM997.87,517.51c2.09-1.19,3.84-.99,5.91-.98-2.06-.01-3.82-.21-5.91.98ZM1045.87,525.95c.68.97,1.22,1.83,2.37,2.63-1.17-.8-1.71-1.66-2.37-2.63ZM1047.15,523.6c-.52.52-1.09.76-1.67.96l-.56.16s.03.03.04.05c-.62.21-1.21.44-1.71,1.06-1.79,2.18-.35,4.38-.54,7.19-.24,3.24,2.08,6.45-.57,8.31-1.95,1.35-3.77-.52-6.08,0-2.08.46-2.93,2.73-4.98,2.21-1.95-.49-1.62-2.86-3.33-3.86-1.53-.92-2.64-1.16-4.43-1.11-1.56.05-2.31.86-3.87,1.11-2.99.48-6.77,2.31-7.74-.56-.56-1.68,1.37-2.66,1.11-4.42-.47-3.03-5.07-2.09-6.08-4.98-.66-1.83.03-3.04,0-4.98-.1-2.81-.47-4.39-.57-7.21v-1.11s-.02,0-.03,0c-.02-1.52.03-2.67.03-4.42s-.76-2.89,0-4.43c.92-1.82,2.43-2.39,4.43-2.76,1.7-.34,2.85,1.25,4.43.55,2.12-.95.23-4.35,2.22-5.54,1.68-.99,3.73,1.51,4.97,0,1.28-1.54-1.34-3-1.09-4.98.21-1.64.45-2.77,1.65-3.88,1.77-1.6,3.96-1.6,6.1-.55,2.12,1.02.99,4.66,3.32,4.98,1.35.17,2.17-.38,3.33-1.1,1.82-1.14,1.27-3.79,3.33-4.43,1.01-.32,1.75-.4,2.76,0,2.73,1.07-1.51,4.34-2.22,7.2-.52,2.13-1.02,3.33-1.11,5.53-.12,2.84-.62,4.95,1.11,7.19,1.25,1.62,2.71,1.68,4.43,2.78,1.3.84,2.26,1.08,3.33,2.21,1.3,1.41,2.19,2.5,2.19,4.42s-.87,3.06-2.19,4.44Z"/>
        <path class="cls-15" d="M1256.92,51.24c-3.73.18-8.73-.82-12.73-1.82-2,0-2-5-4-5-9-1-18-3-28-1-7,2-2,8-2,12-1,5-8,0-11,1-1,0-2,4-3,4-6,2-12,1-17,3s-12,2-16-3c-6,1-12-1-18,1,1,1,0,3-2,4-10,2-19,1-29,3-5,1-9,5-15,6-2,0-5-1-6,1,0,1,1,3,2,4,7,3,14,4,20,9,1,1,1,2,1,3,0,0-1,1-2,1-3-2-6-1-9-2-1,0-3,1-4,1-4,1-8-2-12-1-11,5-23,1-35,1-1,0-1,3,0,5,2,2,5,3,8,4,2,1,0,6,2,6,13,0,25,6,37,10-7,2-14,1-21,1-2,0-4-2-6-2-11-1-22-4-33-8-1,0-2,1-2,1-1,1,0,3,1,4,1,0,3,1,3,4-5-2-10-3-16-2,2,9,14,7,21,6,1,0,3,0,4,1,1,3,4,3,6,5,0,1,1,1,1,2h-7c-11-2-21-4-32-6-1,0-2-2-3-3l-3-9c-1-4-7-7-12-7,0,1,1,1,1,2,1,1,3,1,4,2,1,2,2,4,0,6-2,1-8-3-7,4,0,6,8,9,14,11,1,0,1,1,2,2,2,3,0,6,1,9,3,5,6,10,12,13,3,1,7,1,10,0,11-1,23-2,32,6,1,1,2,1,3,1,2,1,4,3,4,5,0,6,5,7,9,9l1,2c-8,5-16-3-17-11,0-1-2-2-3-2-5-1-8-4-13-5-4,0-9-1-13.04,2.51.4-.34.71-.79,1.11-1.12-2.07.61-6.07.61-5.07,4.61,1,3,5,2,5,4,1,6,5,14-1,18-4,2-8,3-11,7-1,1-3,1-5,1-7-2-15-1-22-3-2-1-4-3-6-4-2,0-5,0-6-2,6-3,11,4,16,3,4,0,7,1,11,2,2,0,2-4,3-5,4-2,5-6,6-9l3-3v-3c-4-2-4-5-4-8,0-1-2-2-3-3-3-2-8-1-10-4-1-2-1-3-3-5-1-2-1-4-2-6-1-1-4-1-5-3-2-9-7-17-16-20,1-7-1-14-8-16-10-1-20-3-30-2-2,0-3,2-4,3-1,4,3,7,2,11-1,5-6,5-10,6-1,1-2,2-2,3,1,2,3,3,6,3,2,1,3,2,4,4s2,3,3,5-1,6,1,8c6,3,14,3,19,8,5-1,11,2,10,8,0,1-1,3-3,3-9-3-19-5-28-8-6-3-12-4-18-6-1-1-2-2-3-2-7-1-14,0-21-4-8,1-16-3-23,1,0,0-1,4,1,4,5,1,8,5,6,8-1,3-4,5-7,7-3,1-5-4-7-7-1-1-2-3-3-3-3,0-5,4-7,5-9,3-19,1-29,1-3,0-3,5-6,6-2,1-5,1-7-2s-2-8-6-10c-11,6-24,6-35,13-4,2-9,5-15,6-2,0-4,3-5,6-2,4-7,5-11,4-5-2-11-1-15-5,1-4,3-8,8-6,1,1,2,2,4,0,1-1,1-2,1-3-1-4-5-6-9-8-7-4-15-3-23-3-1,0-4-1-5,1,0,2,1,2,2,3,3,2,8,2,8,6-1,4-3,8-1,11s8,0,11,4c1,3-4,5-1,9,1,1,0,3-1,3h-5c-6-3-13-4-19-4-2,0-4-1-5-2-3-3-5-7-8-10-1-2,0-5-1-6-4-3-10-2-15-6-6-4-14-2-21-5-4-2-7-6-11-6-8,0-14-3-22-5h-6c-2,0-3-1-5-2-3-1-5,2-8,2h-3c-4-5-8-11-15-9-3,1-5,4-9,4-4-1-9-2-13-2-3,0-7-3-4-6,5,2,12,2,15-2,0-1-2-2-3-2-2,0-5,0-7-1-5-3-11-4-16,0-4,2-4-4-6-6-2-1-5-1-7,0-3,2-3,8-7,7-2,0,0-3-1-5-2-1-4-3-7,1-2,3-2,7-6,8-1,0-3,0-3-1-1-4,3-4,5-6,1-1-1-3-2-3-4,0-9-3-11,0-5,6-10,11-17,9-5-2-10-3-14,2h-4c-1,1-2,5-3,4-4-2-8-2-13-1-3,1-4,4-5,4-5,2-10,3-15,5-4,3-7,8-7,13,0,1-2,3-3,3-5,1-15-2-14,7-4,3-7,7-12,9-1,1-3,2-3,4,0,1,2,4,0,4-8,3-7,10-7,16,0,1-1,2-2,2-5-1-8,2-10,6-1,1-2,0-3,1-3,3-6,5-10,6l-1,2c-4,0-4,3-5,5-2,3-5-1-8,0-1,0-1,1-2,1-2,2,0,7-2,7-7,2-15,1-17,9-4,0-5,4-8,5-4,0-8-2-9,1-3,6-5,14-2,21,1,2,6-1,7,3,1,3,0,7-4,9-1,1-2,3-1,4s2,1,3,3l2,1c1,4-1,8-1,12,0,1,2,2,2,2,2-1,5-1,7,0,3,3,6,5,10,6,8,1,14-4,21-5,5-1,6-6,10-9,2-1,5,0,6-1,2-2,1-6,3-8,1,0,2-1,2-1,5,5,9,10,10,17,1,3,6,2,7,4,4,8,6,17,12,24,2,2-2,6,1,9s3,7,5,11c0,0,1,1,2,1,4-2,8-2,12-4,0-5,1-11,6-11,5,1,11,4,14-2,4-11,6-22,5-34,3-3,7-6,11-7,1,0,2,3,4,2,3-2,1-8,3-9,3-2,5-4,4-7s-5-1-7-3c-2-6-7-8-12-6-4-3-1-7-1-11,0-2-1-3-2-4,4-3,2-9,5-12,3-2,7-1,7-6,6-3,11-5,15-10,2-1,4-1,6-2,4-4,11-7,6-14-2-5,5-6,9-8,2-2,0-5,2-7,3-2,6,0,9-1,0,0,1-1,.58-1.74-.01.69-.05,1.38-.12,2.07,6.54.67,12.54,1.67,19.54,2.67-1,4,2,6,4,9-2,2-6,0-8,1-4,4-6,8-11,11-1,1-1,3-2,4-4,2-8,3-11,6h-4c-2,3-5,5-6,9-1,5,3,8,6,12,1,1,1,3,1,4-3,5-1,10,1,15,4,1,6,5,10,6,2,0,6-2,8,0,6,7,15,6,22,1,3-1,7,0,10,0,8-2,15-4,23-3,3,0,6-1,9-3,3,7,11,5,17,7,2,1,4,2,5,3v2c-5-1-8-4-14-2-7,3-12,9-20,8-9-7-21-6-31-1-3,1-6,0-9,2-1,1-2,3-1,5,4,7,14,9,12,19,0,1,2,2,2,3-1,5-6,7-11,7-5-1-6-7-9-9-10-4-18,7-20,16,3,5,5,12,4,18-2,6-8,6-12,9-1,2-1,6-3,7-2,0-4,1-7,2-2,1-6,1-7-1,0-2-1-5-3-6-6-1-11,1-17,1-4,1-5,7-9,7-6-1-12,0-17,4-4,2-8,1-11-1-4-2-7-5-11-6-5,0-12,0-15,6-1,1-3,2-5,0-2-5-8-5-12-7-2-2-1-5-6-7-2-1-3-6-2-9,0-2,2-5,4-7s8-2,9-5c1-4-5-4-6-7,0-4,3-9,0-13-1-1-3-2-5,0-1,2-2,5-4,6-6,0-13,0-17,6-3,5-2,11,0,16l3,3c1,3,2,6,2,9,2,4,6,8,7,13,0,4-5,5-6,9-6-1-11-8-17-3,0,1,2,4-2,3-4,0-7-1-11,1-6,4-11,10-19,9,1,5-4,9-6,13-1,3,1,5,2,8,0,2,1,4-1,5-4,0-9-2-13-1-3,6-9,2-14,5-2,2-2,5-2,8-1,6-6,12-13,10-3,3,1,6,0,9,0,0-1,1-2,1s-3-2-4-2c-5-1-9,1-14-1-3-1-3-6-6-6s-7,2-6,7c1,2,3,4,4,7,1,7-9,6-13,4-2-1-5-3-8-2-5,4-10,4-16,3-1,0-2,1-3,1-1,3,4,4,4,7-1,1-1,4,1,5,8,3,18,1,23,9,1,1,3,1,4,1,2,3,1,9,5,11,3,1,5,4,8,5,2,15,2,33-9,45-4,3-10,0-15,2-2,0-4-4-7-3-9,6-19,2-26-3-7,1-14,2-21,1-3,0-5-2-7-3-1,0-3,0-4,1s-2,4-3,5c-6,2-17,1-14,10,2,4,7,7,6,12-1,4-4,7-3,11,1,2,5,1,5,4-1,7-5,13-9,19v4c-4,5-8,14-3,19l1-1c10,2,5,14,4,21,0,1,1,3,1,3,4,0,9,2,13,1,2-2,5-2,7.39-3.79"/>
        <path class="cls-15" d="M382.87,1235.46c-1.68,7.96-1.68,14.96-5.68,22.96-2,5-2,11,0,16,5,14,14,26,24,38,2,3,2,8,4,11,5-1,4,4,6,7l2,1c1,4,4,6,5,9s-1,7,2,9c1,0,4,0,4,1-1,4-6,5-3,10,1,2,3,3,4,5,3,8,6,16,10,24,1,2,1,4,0,6-4,4-5,9-4,13,5,14,20,35,1,44-1,1-3,3-4,5-3,6-3,13-6,19-2,8-1,18-7,25-3,15-5,30-5,45,0,3,1,6,3,9,2,1,4,2,5,4,5,6,5,13,11.2,18.13-.39.09-.72.45-1.11.56.91,1.32,1.91,2.32,1.91,3.32,2,6,3,13,5,19,3,8,10,12,13,20,0,1,1,3,1,4,0,8-2,16,0,23,3,7,3,15,3,23,0,2,1,5,2,7,3,18,4,38,20.02,47.93l-.56-2.21c3.54,9.28,6.54,18.28,7.54,28.28,0,5,5,8,8,12,5,8,12,17,5,26-1,1-5-3-6,2-2,7,5,11,8,16,0,1-1,2-3,3v2c2,2,5,3,9,3,5,1,6,6,10,9,1,0,4,1,5,0,7-5,14-7,22-7,4,0,6-4,10-5s7,2,11,2c3,0,6-2,9-3,6-1,11,4,17,2,5-2,9-4,14-5h6c3-1,4-4,7-5,3,0,6,1,8-1,12-10,22-19,31-31,2-2,6-1,8-3,7-10,14-18,19-29l3-3c2-2,2-5,3-8,1-2,2-3,6-3,2,0,3-2,4-3v-5c6-11,9-23,9-35,0-11,12-16,21-20,8,1,16-4,17-11,2-9,3-17,3-26,1-6-2-12-2-18,0-1-2-1-2-2-2-5,0-12-6-15-2-11,11-10,18-15,1-1,1-5,3-7,9-8,16-17,24-25,5-4,13-5,19-8,3-1,6-5,9-8,1-1,3-1,4-2,3-6,1-13,7-17,2-1,4-3,5-5,1-1,2-1,3-2,1-2,2-4,2-6-1-17,0-33,0-50,0-3,2-5,3-8s0-6-3-8c-6-3-12-7-14-14-1-3,1-6,0-9-4-7-5-14-6-22,0-3,1-6,4-9,4-6-2-12-7-16-3-4,0-10,4-13s9,0,11-3c3-4,1-10-4-11h-2v-2c1-1,2-2,3-4,2-7,1-15,8-20,2-3,3-7,5-10,5-3,8-9,12-14,5-7,12-12,18-19,13-17,27-32,46-43,7-5,9-14,14-20l9-6c1-2,3-4,5-5,1-1,2-2,2-3,1-13,10-20,16-31,1-3,0-7,1-10,6-15,13-28,23-42,1-2,2-5,2-7-1-7-1-12,3-18-3-6,0-17-9-18-9,6-19,11-30,10-1,0-3,1-4,2-4,1-8,0-12,1s-6,7-11,7c-6-1-12-3-18,0-6,4-14,6-20,3-6-2-3-11-9-15-2-1-6,1-8,0-5-5,4-6,7-8,0-1,1-1,1-2-2-4-4-7-3-11-6-1-7-7-10-12l-3-3c-1-1,0-2-1-3-3-1-5-2-8-2-2,0-4-1-5-2-4-12-17-15-23.99-24.1.19.17.36.37.54.55-2.55-.44-5.55-1.44-6.55-3.44-3-11-3-22-7-33-2-3-2-7-4-10-2-2-6-1-8-4,0-1,0-4-1-4-9,1-9-8-12-13,1-18-2-36-14-50-3-3-7-4-11-6-1,0-1,1-1.93.96.79-.51,1.61-1.02,2.39-1.51-3.46-5.45-2.46-10.45-.46-15.45,1-4-6-3-7-7-1-8-6-16-11-22-2-2-1-5-3-7-2-3-6-3-7-7-2-4,0-9-2-12-8-12-21-22-22-38,0-1,1-4,3-3,5,5,3,13,7,19,3,4,7,6,9,10,1,2,0,5,2,6,3,1,4-2,6-3,5-6,3-15,5-23,0-1,0-3,1.1-4.39-.02,1.48-.71,3.01-1.13,4.43,2.03-.04,3.03,1.96,3.03,3.96-2,7-6,17,0,21,3,2,6,1,9,3,7,6,10,14,16,20,4,4,5,10,9,14,2,3,2,6,3,10,0,3,4,4,5,7,0,2-1,3,2,5,2,1,4,0,6,1,7,5,13,12,14,20,2,9,0,19,4,27,3,7,7,19,18,17,8,6,9,16,13,25,0,1,3,3,5,5,1,2,1,4,3,6,4,5,9,8,10,15,1,3,4,4,7,6s3,6,4,9c0,1-1,2-1,2-4,1-7,4-5,8,4,9,6,19,9,29,1,1,3,3,3,5-1,3-3,7-1,10,1,1,3,1,5,3,3,2,6,1,9,1,9-2,15-8,23-11s16-2,23-6c2-1,3-5,6-5,1,0,2,3,3,3,6-1,10-6,15-9,4-3,8-5,12-7,9-4,19-4,28-10,4-3,0-9,1-13,2-3,6-5,9-8,0,0,1,1,2.31.62-.45-.66-.92-1.32-1.37-1.98,1.06,2.36,3.06,1.36,4.06,1.36,7-1,12-3,18-6h3c3,2,7,3,10,2,4-3-2-8-2-11,0-5,7-5,12-5,2-1,5-2,5-4-1-7,5-11,10-15,6-6,5-15,8-23,1,0,4,1,5,0,2-2,5-4,4-8,5-4,9-8,12-14,2-3,0-7,2-10-4-2-8,0-10-6,0-1-4-1-3-3,0-3,0-7-4-8-6-1-12,0-17-2-6-4-13-9-16-15-2-5-3-10-4-15,0-2-4-3-4-6,1-2,4-3,4-5s0-4-3-4c-2,1-1,4-3,6-5,3-6,9-9,13-4,4-4,9-8,13-5,4-12,7-18,7-3-1-6-4-9-4s-4,3-7,4c-2,0-3-1-5-3-1-1-3-1-5-2-1,0-2-1-2-2,1-7,3-14,2-22-1-4-5-5-9-3,0,5,0,10,1,15,0,2,0,4-3,4-5,0-4-6-4-10-1-4-7-5-9-9-1-2,1-4,1-5-1-3-2-6-2-9-1-3-5-2-7-4l-2-2c-1-2-1-4-2-5-5-4-7-9-11-15-2-5-5-9-8-14-1-1-4-1-5-1-3-6,8-8,12-11,1-1,1-4,2-5,3-1,8,1,8,5,3-1,4-6,8-2,9,12,16,24,21,38,2,4,8,4,13,2,8,7,17,12,28,14,2,1,3,3,5,4,1,0,4,1,5,0,5-4,10-9,16-11,3-1,7,1,10,1,1,1,3,2,5,3,1,1,2,2,2,3,2,5,0,11,3,15,2,2,4,5,7,6s6-1,9,0c8,1,16,3,25,3,6,0,11,3,16,5,6,3,13-2,19-2,8,0,14-3,22-1,11,2,20,0,30-5,2,0,5,1,7,3,2,3-3,6,0,9,3,2,7,1,9,4,3,3,3,8,6,10,8,5,13,12,21,17,6,4,13,1,20,1-2,8-12,7-19,7v4c8,9,17,16,26,24,1,0,2,0,2.65.2"/>
        <path class="cls-15" d="M636.68,514.67s0,0,0,.01c.09.03.17.03.28.07l-.24-.39c.05-.88.14-1.81.24-2.93.19-1.95-.47-3.33.56-4.98,1.16-1.89,3.39-1.22,5-2.77,1.42-1.43,1.34-2.97,2.76-4.43,1.29-1.35,2.83-1.22,3.86-2.77.89-1.32-.05-2.82,1.11-3.88,1.28-1.17,3.07-1.66,4.43-.55.73.61.43,1.52,1.13,2.21,1.08,1.12,2.5.33,3.87,1.1,1.58.89,1.72,2.42,3.32,3.33,1.37.77,2.34.66,3.87,1.1,2.15.63,3.26,1.56,5.52,1.66,2.22.1,3.37-.85,5.54-1.1,3.02-.35,7.24-2.98,7.78,0,.42,2.56-2.8,3.05-5,4.44-1.23.76-2.05.97-3.33,1.66-1.53.82-2.62.97-3.87,2.21-1.22,1.23-2.74,2.21-2.2,3.88.57,1.75,2.62,1.22,4.43,1.66,2.12.52,3.44-.03,5.54.56,1.58.44,2.83.38,3.86,1.65,1.25,1.52.1,3.09.59,4.99.5,2.26.36,4.09,2.19,5.54,2.03,1.61,4.34,1.75,6.65.56,2.4-1.27.82-5.04,3.32-6.1,2.45-1.07,4.32,3.01,6.65,1.65,1.18-.69,1.32-1.68,2.21-2.76,1.27-1.55,1.37-3.45,3.32-3.88,1.53-.33,2.41.51,3.87,1.11,1.61.66,2.14,1.93,3.87,2.21,1.53.26,2.55.18,3.89-.56,1.62-.89,2.88-2.02,2.76-3.87-.16-2.33-2.69-2.84-4.98-3.32-1.25-.27-2.03-.08-3.32,0-2.62.14-4.05,1.48-6.65,1.1-1.82-.26-2.9-.62-4.43-1.65-1.65-1.14-2.14-2.28-3.32-3.88-1.22-1.64-1.16-3.17-2.76-4.44-1.44-1.13-4.06.15-4.43-1.66-.45-2.08,3.11-1.21,4.97-2.2,1.81-.96,2.97-1.36,4.43-2.77,1.34-1.29,1.25-2.82,2.78-3.88,2.29-1.61,4.39-.33,7.19-.55,2.59-.2,4.06-.23,6.65-.55,2.61-.33,4.38.22,6.65-1.11,1.56-.94,1.81-2.28,3.3-3.33,1.2-.83,1.94-1.24,3.32-1.67,2.29-.67,4.43-1.68,6.1,0,1.68,1.68.35,3.75,0,6.1-.24,1.76-.7,2.68-1.09,4.41-.75,3.22-1.42,5.03-1.67,8.31-.14,1.94.61,3.14,0,4.98-.57,1.75-1.18,2.92-2.78,3.87-1.67,1.01-4.13-1.22-4.98.56-.54,1.18-.02,2.14.56,3.32.78,1.5,1.93,1.83,3.35,2.76,2.15,1.45,3.58,1.95,6.08,2.76,1.67.57,2.85.31,4.43,1.12,1.79.89,2.19,2.24,3.87,3.33,2.87,1.82,5.68.57,8.3,2.76,1.67,1.38,1.98,2.73,3.33,4.42,1.04,1.33,1.63,2.08,2.76,3.33,1.34,1.48,2.26,2.25,3.59,3.59.09.1.19.19.26.29,2.24,2.31,2.55,4.97,5.54,6.09,1.04.37,1.7.31,2.78.56,1.58.36,2.73.57,3.99.95.64.19,1.3.41,2.1.72.36.14.75.3,1.14.48-.09.05-.18.1-.28.14,2.99,1.42,6.34,3.26,6.34,3.26,2.8,1.56,4.24,3.15,5.52,6.08.82,1.82.66,3.05,1.11,4.99.62,2.59,2.31,4.05,1.67,6.63-.54,2.09-1.67,3.05-3.3,4.43l-2.1.97c.12.03.22.07.33.1-1.54.66-3.08.77-4.9,1.69-1.53.79-2.27,1.52-3.87,2.22-2.45,1.06-3.98,1.6-6.63,1.66-2.9.04-4.32-1.44-7.19-1.66-1.53-.12-2.38-.18-3.89,0-2.22.25-3.3,1.41-5.52,1.66-4.71.51-7.02-2.36-11.63-3.33-2.57-.53-6.63-1.11-6.63-1.11-2.66,1.46-4.93,1.62-7.76.56-1.74-.64-2.73-1.29-3.87-2.77-1.01-1.3-.61-2.62-1.65-3.87-2.52-3-6.39.45-9.97-1.1-1.89-.81-2.52-2.07-4.45-2.77-2.43-.89-4.05-.43-6.62-.56-2.81-.11-4.41,0-7.21,0-2.61,0-4.05-.17-6.65,0-3.25.19-5.07.64-8.3,1.12-2.81.4-4.5.17-7.21,1.08-2.57.88-3.75,1.96-6.1,3.33-2.41,1.42-4.17,1.8-6.08,3.87-1.39,1.49-.92,3.57-2.78,4.43-1.74.83-3.02-.41-4.97-.55-3.23-.23-5.09.3-8.3,0-2.62-.25-4.05-.72-6.65-1.12-1.51-.22-2.53-1.29-3.87-.55-1.11.62-.57,3.41-1.67,2.76l.56,3.88c1.79-.53,3.82.91,3.89,2.77.07,2.04-2.71,1.69-4.45,2.76l-3.86,1.67h-9.43c-3.46,0-5.4-.14-8.86,0-2.81.11-4.48-.16-7.21.55-2.5.68-4.79.5-6.06,2.76-1.08,1.89.36,3.42,0,5.55-.28,1.71-1.88,2.74-1.86,4.15,0,.26.05.54.19.83.56,1.27,1.58,1.51,2.76,2.22,1.6.94,2.67,1.09,4.45,1.67,1.46.48,2.64.11,3.86,1.09,1.75,1.42,1.93,3.3,1.68,5.54-.28,2.21-1.15,3.49-2.8,4.98-1.58,1.42-2.85,2.21-4.97,2.22-1.86,0-2.64-1.22-4.45-1.66-2.29-.57-4.69-2.5-6.08-.56-1.35,1.9.73,3.76,2.21,5.54,1.2,1.43,2.2,1.99,3.87,2.77,2.4,1.1,4.05.75,6.67,1.1,1.91.27,3.2-.28,4.97.56,1.25.59,1.94,1.1,2.76,2.21,1.29,1.78-.28,3.83,1.13,5.54,1.34,1.64,4.22.22,4.97,2.21.75,1.98-2.43,2.86-2.21,4.97.16,1.74,1.01,2.63,2.21,3.88,1.81,1.88,3.49,2.53,6.09,2.77,1.74.16,2.67-.53,4.43-.56,1.94-.03,3.07.05,4.97.56,2.07.55,3.51.7,5,2.21,1.49,1.5.66,3.52,2.2,4.98,2.34,2.26,5.05.87,8.3,1.11,3.87.28,6.08,0,9.97,0l2.21-6.09c1.53-1.09,2.19-2.02,3.89-2.77,2.78-1.22,4.83-1.35,7.73-.56,2.45.66,3.33,2.14,5.56,3.33,2.71,1.46,4.64,1.58,7.19,3.33,1.89,1.28,2.29,3.05,4.43,3.86,2.64,1,4.39-.32,7.19-.55,2.61-.22,4.2.34,6.67-.56,1.89-.69,2.76-1.57,4.41-2.76,1.6-1.18,2.21-2.26,3.87-3.33,1.23-.77,1.91-1.29,3.32-1.66,1.68-.43,2.71-.14,4.43,0,2.88.23,4.34,2.09,7.19,1.66,2.4-.36,3.23-2.14,5.54-2.77,1.67-.46,2.71-.35,4.45-.56l-3.89,6.65c0,2.59.16,4.05,0,6.64-.1,2.16-.69,3.37-.56,5.53.1,1.31.43,2.02.56,3.32.11,1.01.11,1.85.08,2.66-.05,0-.11.01-.16.01l.06,2.6c0,.43,0,.87.03,1.37.19,3.06,1.34,4.71,1.11,7.75l-1.47,4.41c-.57,1.15-1.13,2.32-1.3,3.9-.28,2.8.5,4.38.56,7.19.07,1.73.26,2.73,0,4.43-.49,3.5-2.64,5.01-4.06,8.02h0l-.36.83c-1.09,2.94-1.41,4.71-2.21,7.74-.95,3.66-.92,5.87-2.22,9.42-.89,2.45-1.34,3.9-2.76,6.08-1.41,2.19.07.28-1.65,2.23l1.09-1.13-2.76,3.34c-2.8,0-4.39.05-7.19,0-3.89-.1-6.13.05-9.97-.56-3.98-.65-6.08-1.68-9.97-2.78-3.89-1.06-6.01-2-9.97-2.75-3.61-.7-6.16-2.87-9.39-1.1-1.61.87-1.82,2.27-3.33,3.31-2.07,1.44-4.1.68-6.09,2.22-2.22,1.72-1.55,4.49-3.86,6.09-2.71,1.85-5.05,1.16-8.32,1.09-4.65-.06-7.07-1.77-11.62-2.75-3.25-.7-5.26-.38-8.3-1.67-2.61-1.09-3.46-2.88-6.08-3.87-1.89-.71-3.04-.71-5-1.11-3.63-.75-5.75-.95-9.41-1.66-2.15-.41-3.53-2-5.52-1.1-1.55.69-1.11,3.03-2.78,3.31-2.1.37-2.5-2.21-3.87-3.86-1.49-1.81-1.49-3.55-3.32-4.98-3.09-2.42-6.09-.53-9.97-1.11-3.49-.53-5.42-1.02-8.86-1.66-3.46-.64-7.42,1.55-8.86-1.67-.69-1.58.59-2.8,0-4.43-.57-1.58-1.46-2.27-2.76-3.31-2.31-1.82-5.02-.25-7.21-2.23-1.65-1.48-.89-3.78-2.76-4.98-2.38-1.51-4.67-.69-7.19.56-2.21,1.07-2.41,3.06-4.45,4.42-2.66,1.81-4.76,1.57-7.74,2.78-3.32,1.35-6.15,1.02-8.3,3.86-2,2.64-2,5.02-1.67,8.31.3,3,2.33,4.23,2.76,7.19.57,3.66.68,6.18-1.09,9.41-1.32,2.42-2.64,3.55-4.98,4.98-2.69,1.63-4.6,2.39-7.76,2.22-3.86-.21-5.64-2.3-8.86-4.43-2.27-1.53-3.09-3.12-5.52-4.43-5.17-2.8-9.34.06-14.95-1.67-3.14-.96-4.71-2.09-7.74-3.32-3.44-1.38-5.94-1.05-8.89-3.33-1.18-.95-1.77-1.6-2.74-2.76-2.03-2.46-2.62-4.26-3.87-7.2-1.06-2.52-.28-4.71-2.2-6.65-1.95-1.94-3.99-1.53-6.65-2.2-2.14-.55-3.37-.75-5.54-1.11-3.42-.58-6.03.93-8.86-1.1-1.74-1.27-1.61-3.1-3.3-4.43-2.33-1.81-4.34-1.54-7.21-2.21-5.7-1.38-9.15-.74-14.95-1.67-1.42-.23-2.57-.17-3.72-.35-.75-.1-1.53-.32-2.38-.75-1.49-.79-2.4-1.35-3.3-2.77-.76-1.15-.16-2.35-1.13-3.33-1.53-1.53-3.37,0-5.52,0v1.11c-1.08-1.08-1.61-1.8-2.78-2.78-1.58-1.28-3.16-1.16-4.41-2.76-1.28-1.61-1.84-2.94-1.68-4.98.23-2.63,1.61-4.2,3.89-5.53,1.35-.79,2.57-.22,3.89-1.1,1.81-1.26,1.41-3.23,2.76-4.97,1.11-1.46,2.45-1.71,3.32-3.33,1.13-2.1,1.16-3.79.54-6.09-.43-1.68-1.06-2.58-2.2-3.88-1.25-1.38-2.85-1.21-3.89-2.76-.75-1.15-.83-1.99-1.09-3.33-.61-3.2-.4-5.39,1.09-8.31,1.08-2.02,2.87-2.37,3.89-4.42.61-1.22,1.82-2.17,1.09-3.32-.68-1.12-2.29-1.37-3.32-.56l-4.45,4.43-2.19-2.21-2.78-2.78c-1.23-2.1-2.31-3.19-4.41-4.42-2.14-1.24-3.68-2.08-6.09-1.66-2.31.39-3.13,1.9-4.98,3.33-2.07,1.57-2.85,2.94-4.98,4.42-1.2.83-2.07,1.55-3.11,2.07.45.95.92,1.68,1.31,2.48-.39-.8-.86-1.53-1.32-2.47,0,0,0,0,.01,0-.07-.14-.12-.24-.21-.4l-1.67,1.1c-3.72.84-5.73-1.7-9.41-2.77-3.02-.87-4.74-1.35-7.74-2.21l-4.98,1.67c-2.15-.64-3.65-2.89-5.54-1.67-1.35.89-.5,2.72-1.65,3.88-1.88,1.86-4.62-.56-6.67,1.1-1.18.99-.69,2.97-2.21,3.33-1.39.33-2.01-1.02-3.32-1.67-2.14-1.07-3.21-2.05-5.54-2.76-3.32-1.02-5.4-.45-8.84-.56-3.46-.1-5.4-.09-8.86,0-3.91.1-6.93-1.87-9.97.56-1.46,1.15-1.27,2.78-2.76,3.87-2.14,1.54-4.05.78-6.65,1.1-3.66.44-5.76.15-9.41.55-2.83.33-4.45.41-7.19,1.11-2,.51-3.32.49-4.98,1.67-2.76,1.95-.92,6.12-3.89,7.75-2.83,1.57-5.06-.76-8.29-.56-2.63.17-4.12.38-6.65,1.12-2.24.63-3.57.97-5.54,2.21-1.69,1.05-2.37,2.01-3.88,3.33-2.19,1.91-2.84,3.88-5.54,4.98-3,1.21-5.07,0-8.3,0l-4.98-2.22c-1.95-.43-5.4.29-8.85.55-2.38.2-3.76.1-6.09.56-2.68.54-3.92,2.34-6.65,2.21-3.49-.16-5.09-2.18-7.74-4.43-2.58-2.17-2.68-4.85-5.54-6.64-1.4-.88-2.26-1.91-3.88-1.67-1.81.29-2.28,1.82-3.32,3.33-2.15,3.11-.73,5.95-2.21,9.41-1.29,3.03-2.8,4.34-4.43,7.19-1.84,3.19-2.27,5.34-4.43,8.31-1.17,1.61-1.94,2.43-3.32,3.88-2.01,2.1-3.13,3.36-5.54,4.97-2.57,1.73-4.34,2.13-7.18,3.33-3.4,1.42-5.34,2.21-8.87,3.32-4.24,1.35-7.1.75-11.06,2.77-3.44,1.74-6.69,2.39-7.75,6.09-1.01,3.47,2.9,5.24,2.76,8.86-.07,1.99-.77,3.02-1.12,4.99-.28,1.71.06,2.79-.55,4.42-.75,2.02-2.54,2.42-3.32,4.43-.79,2.01-.96,3.4-.55,5.54.3,1.61,1,2.36,1.66,3.87,1.04,2.38,2.37,3.51,2.76,6.09.43,2.81.05,4.6-1.1,7.19-1.12,2.54-2.78,3.33-4.42,5.54-2.32,3.13-2.83,5.51-5.54,8.31-1.91,1.99-3.55,2.5-5.53,4.43-1.64,1.6-2.15,2.92-3.88,4.43-1.75,1.54-2.94,2.17-4.98,3.33-2.87,1.6-4.56,2.59-7.75,3.31-2.33.53-3.75.09-6.09.56-2.68.54-4.51.52-6.65,2.22-2.65,2.09-2.37,4.71-3.87,7.74-1.74,3.45-2.4,5.57-4.43,8.85-1.55,2.49-2.21,4.17-4.44,6.09-1.53,1.33-2.78,1.56-4.42,2.76-2.35,1.71-3.81,2.65-5.54,4.98-1.95,2.65-2.55,4.56-3.32,7.74-.76,3.17-.14,5.09-.56,8.32-.43,3.26,1.04,6.39-1.66,8.29-1.28.91-2.46.41-3.86,1.11-3.03,1.51-3.25,4.17-5.56,6.65-1.64,1.78-3.1,2.35-4.42,4.42-1.37,2.13-1.33,3.72-2.2,6.09-1.06,2.82-1.61,4.43-2.77,7.2-1.4,3.29-2.08,5.21-3.88,8.31-1.18,2.01-1.62,3.38-3.33,4.98-1.48,1.4-3.03,1.28-4.42,2.77-2.07,2.2-2.14,4.26-2.77,7.21-.41,1.9-.34,3.03-.55,4.97l2.21,5.53c.87,1.95.93,3.29,2.21,4.98,1.48,1.97,3.53,1.89,4.98,3.88,1.86,2.54,1.92,4.62,2.21,7.74.26,2.8.9,4.79-.55,7.21-1.02,1.7-3.05,1.5-3.87,3.32-1.08,2.39.67,4.05,1.1,6.63l.56-.55c1.3,1.29,1.98,2.08,3.32,3.33,1.46,1.36,3.82,1.32,3.87,3.32.05,1.55-1.8,1.82-2.21,3.32-.34,1.25-.05,2.03,0,3.34.13,3.26,1.51,5.04,1.11,8.29-.53,4.3-4.04,5.73-4.98,9.97-.43,1.89-.27,3.04-.56,4.97-.5,3.39-1.63,5.38-2.07,8.4l-.14,1.03s.03-.06.05-.09c-.01.22-.05.4-.05.65-.13,2.8,1.41,4.51.55,7.2-1.25,3.95-5.24,3.84-8.3,6.64-2.26,2.05-4.52,2.66-5.54,5.52-1.16,3.33-.15,5.86,1.66,8.87,1.5,2.48,4.13,2.45,5.54,4.97,1.29,2.35,1.18,4.25,1.12,6.66,2.8.43,4.37.89,7.18,1.11-2.81-.22-4.39-.68-7.18-1.11h0s0,.65,0,.65c0,.32,0,.65,0,1.01.06,2.81-.15,4.41-.55,7.2-.32,2.17-1.02,3.34-1.11,5.54-.13,2.83-.1,4.61,1.11,7.19,1.23,2.63,2.4,4.2,4.98,5.54,2.16,1.1,3.81.31,6.09,1.1,2.83.99,4.06,2.36,6.63,3.87l1.12,10.52c1.19.53,2.21.8,3.18,1.14l.14.52c.06-.14.1-.27.15-.4.89.33,1.73.74,2.61,1.51,2.55,2.23,2.3,4.78,3.89,7.75,1.04,1.97,1.97,2.9,2.76,4.98.63,1.66-.06,3.08,1.11,4.43,1.6,1.81,4.21-.4,6.09,1.11,1.22.95,1.23,2.11,2.21,3.31.98,1.18,1.59,1.81,2.77,2.78,1.21.97,2.44.93,3.33,2.21.8,1.16.53,2.26.05,3.4l-1.16.47c.36-.05.67-.05,1-.09,0,0,0-.02.01-.03,1.45-.1,2.68.04,3.94-.27-1.27.32-2.51.19-3.95.3-.46,1.05-1,2.14-1,3.4,0,2.84-.29,4.73,1.11,7.2,1.06,1.87,2.37,2.36,3.87,3.88,1.73,1.73,2.71,2.7,4.44,4.43,1.29,1.29,2.16,1.9,3.33,3.32,1.58,1.95,1.37,3.93,3.32,5.54,1.78,1.48,3.98.48,5.53,2.2,1.35,1.54.7,3.17,1.66,4.98.26.51.54.92.84,1.32-.1.12-.19.22-.29.35h.51c1.27,1.67,2.76,2.63,4.48,4.42,1.48,1.54,2.16,2.61,3.88,3.88,1.95,1.42,3.4,1.64,5.53,2.77,1.97,1.03,3.09,1.6,4.98,2.76,2.24,1.39,3.54,2.17,5.54,3.88,2.67,2.27,4.36,3.57,6.09,6.64,1.23,2.2.29,4.45,2.21,6.09,2,1.7,4.64-.6,6.65,1.1,1.32,1.12.93,2.7,2.21,3.88,2.11,1.94,4.47.69,7.19,1.66,2.73.99,3.75,3.15,6.64,3.33.96.04,1.76-.1,2.5-.37,1.76-.65,3.12-2.03,5.25-2.96,1.95-.85,3.13-1.18,4.98-2.21,2.3-1.28,3.09-2.87,5.53-3.86,2.44-1.01,4.06-.69,6.64-1.11,2.6-.43,4.26-.02,6.65-1.11,1.96-.89,2.47-2.43,4.42-3.33,2.2-.99,3.68-.9,6.09-1.1,4.53-.38,7.08.76,11.63,1.1,3.45.27,5.46-.1,8.86.56,3.35.64,5.17,1.39,8.3,2.76,1.77.77,2.87,1.09,4.43,2.22,1.48,1.07,1.56,2.79,3.32,3.32,2.6.76,3.56-2.35,6.1-3.32,3.09-1.19,5.3-.3,8.29-1.68,2.4-1.09,3.26-2.54,5.54-3.87,1.68-.96,2.61-1.55,4.43-2.21,1.67-.61,2.83-.32,4.42-1.1,1.79-.89,2.15-2.35,3.88-3.33,2.51-1.41,4.36-1.22,7.2-1.66,1.93-.3,3.06-.17,4.98-.55,2.2-.45,4.32.24,5.52-1.67.69-1.11-.17-2.23.57-3.33,1.22-1.81,3.35-.66,5.52-1.11,2.52-.51,4.06-1.06,6.27-1.45.45-.05.95-.14,1.48-.21,3.86-.45,6.1,0,9.97,0h8.3c3.02,0,4.74-.19,7.76,0,1.94.14,3.07.1,4.98.55,2.24.55,4.36.21,5.52,2.22.66,1.14-.3,2.31.56,3.33.89,1.05,2.1.48,3.32,1.11,1.75.91,2.47,1.9,3.87,3.32,1.94,1.96,3.53,2.93,4.43,5.53.96,2.66-.45,4.43,0,7.2.37,2.22.05,3.95,1.65,5.53,1.06,1.03,2.01,1.08,3.35,1.68,1.06.46,1.74.53,2.76,1.11,1.46.81,1.74,2.19,3.33,2.75,2.74,1,4.46-1.15,7.19-2.2,3.58-1.41,5.04-3.76,8.84-4.43,3.21-.57,5.07.79,8.3.55,1.53-.11,2.36-.53,3.89-.55,1.72-.04,2.81-.1,4.43.55,2.12.85,2.78,2.27,4.43,3.88,2.62,2.57,3.98,4.18,6.08,7.19,2.28,3.26,3.66,5.12,4.98,8.86,1.25,3.53,1.34,5.71,1.67,9.41.35,3.87.45,6.1,0,9.96-.45,3.74-1.3,5.75-2.2,9.41-.83,3.25-1.58,5.02-2.24,8.31"/>
        <path class="cls-15" d="M486.7,559.03l-.85,1.11c2.1,1.3,3.79.78,6.09,1.66,2.97,1.14,4.27,2.61,7.17,3.87,1.7.73,2.81.79,4.43,1.66,1.09.57,2.1.99,2.93,1.53.83.55,1.55,1.23,2.05,2.34,1.09,2.36-.43,4.06-.54,6.64-.07,2.15,0,3.38,0,5.53,0,3.25.23,5.09,0,8.3-.12,1.96-1.2,3.14-.56,4.99.83,2.33,3.92,1.66,4.98,3.88.75,1.56.12,2.73.56,4.43.35,1.4.28,2.66.92,3.66.17.28.45.53.73.77,1.39,1.05,2.83-.13,4.45.55,1.82.76,2.64,1.75,3.89,3.32.75,1,.99,1.69,1.63,2.78,1.55,2.57,1.42,4.91,3.87,6.64,1.68,1.18,3.14.75,4.98,1.66,1.15.56,1.58,1.22,2.78,1.66,2.62.97,4.38-.45,7.19-.55,2.38-.1,3.75-.29,6.08,0,1.98.23,3.11.45,5,1.1,2.27.78,4.31.69,5.54,2.76.87,1.51-.82,3.36.56,4.44.85.67,1.67.55,2.76.55s1.67-.65,2.78-.55c2.27.2,2.22,3.18,4.41,3.88,1.67.52,2.97.92,4.43,0,1.74-1.1,2.07-2.99,1.67-4.98-.31-1.54-1.2-2.16-2.22-3.33-1.11-1.25-1.91-1.81-3.32-2.76-1.98-1.36-3.37-1.7-5.54-2.76l8.3,1.66c1.09-.64,2.21-.55,2.78-1.66.87-1.72-.92-3.01-2.22-4.43-1.49-1.65-3.07-1.65-4.97-2.78-1.77-1.04-2.4-2.73-4.43-2.77-1.65-.03-2.26,1.79-3.89,1.67-1.84-.13-3.44-.97-3.87-2.77-.49-1.98,2.95-2.41,2.78-4.44-.17-1.97-1.96-2.43-3.32-3.86-1.62-1.68-2.81-2.54-4.45-3.95,0-1.24-.05-1.99,0-3.25.14-3.26-2.15-8.14,1.11-8.31,2.59-.14,2.27,3.53,4.43,4.98,1.2.82,2.29.63,3.32,1.66,1.02,1.03.24,3.06,1.65,3.33,1.37.26,1.65-1.42,2.78-2.21,1.82-1.27,4.41-.62,4.98-2.77.42-1.52-1.34-2.33-1.09-3.87.24-1.54.99-2.35,2.21-3.32,1.89-1.5,3.73-.66,6.08-1.11,2.17-.42,3.35-1.34,5.56-1.11,1.82.2,2.62,1.22,4.41,1.67,2.12.51,3.8-.73,5.54.56,1.55,1.15.66,3.27,2.22,4.42,1.74,1.29,3.37.64,5.54.55,2.86-.11,4.48-.68,7.19-1.65,2.73-.97,4.36-1.51,6.63-3.32,1.18-.95,1.37-2.14,2.76-2.78,1.6-.69,2.71,0,4.43,0,2.38,0,3.73.17,6.1,0,1.74-.11,2.69-.62,4.45-.56,1.3.06,2.01.35,3.3.56l.56-2.21c-.92-.55.5-1.8,0-2.76-.8-1.58-2.71-.62-4.43-1.11-1.96-.57-3.11-.81-4.98-1.65-1.56-.73-2.54-1.09-3.87-2.21-1.28-1.09-1.91-1.88-2.76-3.33-.76-1.34-.73-2.67-.73-3.95.02-1.29,0-2.57-.94-3.8-1.01-1.35-2.47-1.31-3.3-2.76-1.42-2.44-.05-4.45.52-7.21.75-3.41.36-6.49,3.35-8.29,1.34-.82,2.66-.11,3.86-1.12.96-.8,1.22-1.59,1.67-2.77.7-1.81.57-3.02.57-4.97-.03-2.61-1.06-4.01-1.11-6.64-.09-3.06-1.23-5.78,1.11-7.74,1.67-1.42,3.37-.68,5.52-1.11,2.14-.43,5.52-1.11,5.52-1.11.09-1.76.17-3.09.28-4.49"/>
        <path class="cls-15" d="M153.59,642.63s0,0,0,0c.03.16.05.31.07.47.02.2.04.41.06.62v-1.1c1.78-.1,2.82.36,4.43,1.1,1.68.77,3.06,1.09,3.88,2.75.76,1.55-.26,2.73,0,4.44.23,1.55.35,2.5,1.11,3.87,1.33,2.43,3.69,2.37,5.54,4.44,1.25,1.38.94,3.57,2.77,3.86,1.83.31,2.49-1.51,3.87-2.76,1.48-1.34,1.62-2.85,3.33-3.88,1.88-1.14,3.39-.62,5.53-1.11,2.61-.56,4-1.22,6.64-1.65,4.69-.75,7.42.13,12.18,0,4.1-.11,6.42-.22,10.51-.56,3.9-.32,7.79,2.14,9.96-1.1.78-1.14.65-2.04,1.12-3.33.77-2.2.69-3.78,2.21-5.53,1.33-1.54,2.51-2.09,4.42-2.77,2.24-.81,3.72-.27,6.09-.56,1.51-.18,2.63.33,3.87-.56,1.5-1.08,1.09-2.67,1.67-4.43.48-1.49.91-2.32,1.1-3.87.16-1.29-.63-2.19,0-3.33.97-1.74,3.05-.64,4.98-1.1,1.74-.41,3.01-.04,4.43-1.1,1.23-.94,1.06-2.28,2.21-3.33,1.56-1.43,3.82-.41,4.98-2.21,1.27-2,1.2-4.48-.54-6.09-1.18-1.06-2.67-.1-3.89-1.1-2.03-1.66-1.35-4.03-1.11-6.65.1-1.08.28-1.7.56-2.76.33-1.24.69-2.08,1.11-3.04.17-.43.35-.87.54-1.39h.57c.42-2.59.24-4.17,1.11-6.64,1.09-3.11,1.93-5.03,4.41-7.19,2.34-2.04,4.43-1.98,7.21-3.33,4.17-2.02,6.81-2.76,10.51-5.52,1.86-1.38,2.47-2.72,4.45-3.88,2.71-1.61,5.45-.06,7.74-2.21,2.19-2.06,2.66-4.2,2.76-7.2.05-1.46-.47-2.54-1.02-3.6-.54-1.07-1.11-2.12-1.18-3.59-.14-3.09-.38-5.42,1.65-7.74,1.72-1.95,3.59-2,6.11-2.77,3.3-1.02,5.37-1.24,8.84-1.11,2.6.11,4.32-.09,6.65,1.11,1.75.91,2.17,2.27,3.86,3.32,2.17,1.32,3.63,1.68,6.09,2.21,2.12.47,3.4.86,5.54.56,2.59-.36,3.82-1.47,6.09-2.77,2.54-1.45,3.53-2.99,6.1-4.43,2.45-1.36,3.99-1.78,6.65-2.76,2.55-.96,4.69-.31,6.62-2.22,1.25-1.21,1.77-2.19,2.22-3.87.43-1.68-1.03-3.04,0-4.43,1.28-1.75,3.37-.75,5.54-.55,2.26.21,3.4.92,5.54,1.66,1.74.59,2.69,1.02,4.41,1.66,2.4.88,4.11.65,6.09,2.21,1.34,1.04,1.77,1.95,2.78,3.32,1.86,2.59,2.31,4.42,3.86,7.2,1.48,2.61,2.05,4.28,3.89,6.64,1.67,2.18,3.46,2.7,4.98,4.98.47.73.71,1.48.85,2.22.37,1.85.19,3.68,1.89,4.98,2.1,1.58,4.69-.62,6.67,1.11,1.6,1.39.78,3.41,2.21,4.97,1.61,1.79,3.4,1.64,5.54,2.78,1.98,1.03,3.02,1.69,4.98,2.76,2.36,1.3,3.51,2.49,6.08,3.33,3.51,1.13,6.58-1.81,9.41.56,2.31,1.92.61,5.11,2.78,7.19,1.23,1.22,2.24,1.62,3.86,2.21,2.45.88,4.08.2,6.65.56,1.32.18,2.29-.26,3.33.55,1.68,1.34-.78,3.52,0,5.54,1.22,3.19,4.6,2.75,7.19,4.98,1.61,1.4,2.43,2.3,3.89,3.86,1.34,1.48,2.41,2.11,3.3,3.89.99,1.96.92,3.34,1.11,5.53.17,1.94,1.48,3.72,0,4.98-1.01.85-2.28-.23-3.3.56-1.42,1.08-.71,2.7-1.11,4.43-.5,2.15-1.72,3.43-1.13,5.54.78,2.66,2.8,4.27,5.54,4.43,0,0,2.33-3.73,3.89-6.09,1.27-1.95,2.1-2.98,3.3-4.97,1.16-1.91.82-3.95,2.78-4.98,1.15-.63,2.14.03,3.32-.56,3.3-1.67,3.23-6.38,1.11-9.41-1.06-1.52-2.22-1.92-3.87-2.78-1.82-.93-3.91.1-4.98-1.65-.57-.95-.56-1.66-.56-2.77s.12-1.68.56-2.77c1.35-.69,2.07-1.42,2.78-2.78.78-1.53-.85-3.34.54-4.43.85-.67,1.67-.63,2.78-.55,1.44.13,2.05.98,3.32,1.67,2.22,1.19,4.51,1.02,5.54,3.31.68,1.6-.97,3.02,0,4.45.71,1.03,1.53,1.41,2.76,1.66,2.48.49,3.59-2.46,5.54-3.33-.23-1.94.33-3.23-.56-4.98-1.3-2.5-3.7-2.41-6.1-3.87-2.55-1.55-4.06-2.32-6.63-3.87-1.75-1.06-2.69-1.72-4.43-2.78-3.4-2.04-5.21-3.44-8.87-4.98-2.5-1.06-5.76.37-6.62-2.2-.66-1.95,1.94-2.96,1.65-4.99-.21-1.44-.66-2.27-1.65-3.32-1.86-1.94-4.03-1.22-6.67-1.66-3.59-.61-5.85.37-9.39-.56-2.26-.59-3.7-.82-5.54-2.21-1.32-1.01-2.07-2.11-2.6-3.32-.63-1.33-1.02-2.8-1.82-4.44-1.23-2.52-1.46-4.15-2.78-6.64-1.46-2.75-2.67-4.06-4.41-6.64-2.34-3.48-2.36-6.96-6.08-8.86-2.36-1.18-4.34.13-6.65-1.1-1.51-.8-2.33-1.43-3.33-2.77-2.74-3.61,0-7.09,0-11.63,0-2.59-1.65-4.65,0-6.63,1.42-1.75,3.59-.54,5.54-1.68,2.1-1.22,2-4.25,4.45-4.42,1.93-.15,3.07.82,4.41,2.21,2.53,2.66-.78,5.98.56,9.41.63,1.61.85,2.79,2.2,3.87,2.05,1.61,4.6-1.07,6.63.56,1.37,1.08.63,3.19,2.24,3.87,2.38,1.02,2.86-5.96,4.97-4.43,1.75,1.26-.82,3.53,0,5.53.64,1.55,2,1.82,2.76,3.33.92,1.76.3,3.17,1.11,4.98,2.07,4.52,6.25,4.65,10.52,7.2,1.91,1.13,3.02,1.68,5,2.77,2.36,1.29,3.46,2.66,6.08,3.32,2.5.63,4.25-1.05,6.63,0,2.36,1.06,2.8,2.94,4.43,4.98,2.14,2.68,2.08,5.4,4.98,7.21"/>
        <line class="cls-15" x1="469.23" y1="153.83" x2="468.65" y2="153.83"/>
        <path class="cls-15" d="M573.85,276.73s.05.04.1.1c.06.07.15.16.23.24l-.34-.33Z"/>
        <path class="cls-15" d="M993.88,968.02c-.49-.68-1.01-1.39-1.55-2.13.54.75,1.05,1.45,1.55,2.13Z"/>
        <path class="cls-15" d="M895.51,577.1s0,0-.01,0c.37-.08.75-.17,1.17-.26h0c-.41.1-.78.18-1.16.26Z"/>
        <path class="cls-15" d="M1015.63,421.4s0,.05-.02.08c-.02.07-.06.13-.08.19.03-.09.07-.18.1-.27Z"/>
        <path class="cls-15" d="M1081.47,14.34c3.42.32,5.43.42,8.86,0,2.17-.26,3.37-.72,5.54-1.1,3.2-.56,5.05-.69,8.28-1.11,3.46-.45,5.4-.75,8.87-1.11,2.36-.24,4.62,1.35,6.08-.55,1.49-1.92.54-4.32-1.11-6.1-1.53-1.64-3.32-1.16-5.52-1.66-3.61-.83-5.73-.76-9.41-1.1-3.02-.29-4.74-.76-7.74-.56-3.09.22-4.88.6-7.76,1.67-2.28.83-3.16,2.25-5.52,2.77-2.76.61-4.5-1.37-7.21-.55-1.67.5-3.06.67-3.87,2.21-1.04,2,.19,3.81,1.65,5.53,2.31,2.67,5.37,1.34,8.87,1.66Z"/>
        <path class="cls-15" d="M1108.03,13.79c-3.26.76-5.3.73-8.32,2.21-2.36,1.16-6.15,1.31-5.52,3.86.38,1.64,1.75,2.12,3.32,2.78,2.81,1.2,4.72-1.53,7.76-1.11,1.55.21,2.36.61,3.87,1.11,2.66.88,3.87,2.27,6.63,2.77,2.33.42,3.72-.29,6.08,0,3.13.37,4.65,1.74,7.76,2.21,3.63.54,5.75-.31,9.39,0,4.62.38,7.05,1.68,11.65,2.21,3.63.42,6.25,2.46,9.41.55,1.28-.79,2.47-1.27,2.76-2.76.26-1.35-.3-2.23-1.11-3.33-1.16-1.55-3.4-.58-4.45-2.22-.8-1.28.14-2.5-.54-3.87-1.55-3.05-4.93-2.28-8.32-2.75-2.78-.42-4.41-.46-7.19,0-2.22.35-3.51,2.66-5.54,1.64-1.22-.6-1.15-1.87-2.21-2.76-1.93-1.63-3.63-1.65-6.09-2.21-3.14-.72-5.07-.7-8.3-.55-4.41.18-6.79,1.19-11.06,2.21Z"/>
        <path class="cls-15" d="M1178.33,39.81c1.46.39,2.36.18,3.87,0,3-.36,4.26-2.15,7.21-2.77,4.64-.98,7.42.57,12.19.56,4.51-.03,7.52,1.42,11.6-.56,1.94-.95,4.27-1.17,4.43-3.33.1-1.45-.69-2.24-1.67-3.32-2.19-2.47-5-1.44-8.3-1.67-1.72-.1-2.69.24-4.41,0-3.26-.45-4.51-2.82-7.76-3.31-1.91-.3-3.09-.42-4.98,0-1.6.36-2.55,2.64-3.87,1.66-1.04-.79.07-2.16-.56-3.33-1.75-3.25-6.6-1.81-9.39.56-1.7,1.42-2.15,2.85-2.78,4.98-.78,2.68-1.42,4.77,0,7.18,1.08,1.88,2.34,2.77,4.43,3.33Z"/>
        <path class="cls-15" d="M965.76,1500.05c-.57-2.83-2.47-3.87-3.32-6.64-1.6-5.15,0-8.45,0-13.85,0-2.36.38-3.73,0-6.08-.64-3.99-2.83-5.68-4.41-9.41-1.41-3.2-.54-6.23-3.35-8.3-1.81-1.33-3.33-2.21-5.52-1.66-1.93.48-2.57,1.82-3.87,3.31-1.67,1.89-3.96,3.1-3.33,5.55.52,1.92,3.19,1.45,3.87,3.33.99,2.73-1.48,4.39-3.3,6.64-1.75,2.13-3.07,3.17-5.56,4.42-1.81.94-3.47.27-4.97,1.67-1.94,1.81-.5,4.24-1.67,6.63-1.23,2.48-3.51,2.93-4.43,5.54-.59,1.63.89,3.44-.56,4.44-1.46,1.02-2.66-1.36-4.43-1.11-1.16.16-1.79.46-2.76,1.11-2.24,1.48-.85,5.01-3.32,6.09-1.6.7-3.14-1.15-4.45,0-1.28,1.15.09,2.81-.56,4.44-1.42,3.61-4.78,3.86-8.3,5.51-2.27,1.09-3.82,1.07-6.09,2.24-2.07,1.04-2.8,2.42-4.97,3.3-2.03.84-3.53.21-5.56,1.11-1.95.89-2.45,2.43-4.39,3.33-1.63.72-3.02,0-4.45,1.1-2.4,1.88.42,5.09-1.11,7.76-1.06,1.85-2.55,2.17-3.87,3.86-2.73,3.53-3.42,6.19-4.43,10.52-1.08,4.65-2.66,7.92-.54,12.19,1.15,2.33,3.13,2.73,4.39,4.98,1.49,2.54,1.46,4.35,2.24,7.19.73,2.58,1.49,3.98,1.67,6.64.21,3.51-.31,5.63-1.67,8.87-1.22,2.85-3.06,3.82-4.43,6.63-1.67,3.45-.76,6.15-2.76,9.39-1.35,2.24-2.73,3-4.45,4.98-2.69,3.18-4.93,4.53-6.63,8.31-1.87,4.19-2.59,7.15-1.65,11.63.61,3.04,2.01,4.39,3.3,7.21,1.3,2.8,2.6,4.18,3.33,7.19.5,2.12.3,3.38.57,5.53.47,4.14.71,6.49,1.63,10.53.71,3.06.56,5.05,2.22,7.74,1.44,2.34,2.92,3.18,4.98,4.97,2.81,2.45,4.13,4.67,7.73,5.54,2.34.56,3.73.26,6.1,0,3.35-.35,5.17-1.03,8.32-2.21,5.89-2.22,8.73-4.6,13.86-8.3,1.96-1.45,3.44-1.94,4.95-3.87,2.26-2.87,1.81-5.38,2.78-8.86,1.6-5.75.68-9.59,3.32-14.95,1.25-2.53,2.78-3.49,3.87-6.09,1.04-2.46,1.06-4.05,1.67-6.63.99-4.29.52-7.02,2.21-11.07,1.28-3.05,3.4-4.06,4.43-7.2,1.16-3.5-.71-5.97.56-9.41,1.34-3.59,4.69-4.18,6.11-7.74.64-1.67.54-2.74,1.08-4.43.97-2.95,2.41-4.25,3.33-7.21.61-1.88.33-3.14,1.09-4.98,1.22-2.81,3.68-3.33,5-6.1,1.23-2.59,1.3-4.34,1.65-7.19.42-3.42-.3-5.42,0-8.84.4-4.4.68-6.96,2.22-11.08,1.01-2.72,1.82-4.17,3.33-6.65,1.34-2.25,3.02-3.04,3.86-5.54.99-2.85-.42-4.76,0-7.74.16-1.09-.05-1.86.54-2.76,1.55-2.26,4.31,3.57,6.67,2.2,2.62-1.5.23-4.74.56-7.74.43-3.92,2.45-6.09,1.65-9.97Z"/>
        <path class="cls-15" d="M169.77,317.69c.9.74,1.63.92,2.77,1.1,1.02.15,1.84-.05,2.59-.42-.79,1.03-1.3,2.19-1.48,3.74-.23,1.96-.31,3.58,1.1,4.98,1.84,1.82,4.8-1.82,6.66,0,1.41,1.4-.02,3.33,1.1,4.98,1.04,1.54,3.01,1.12,3.89,2.76.9,1.73,0,3.05,0,4.99,0,2.15-1.7,4.18,0,5.53,1.35,1.09,2.7-.13,4.42,0,1.52.1,2.69-.42,3.87.56,1.39,1.11.47,2.75,1.12,4.42.51,1.35,1.57,1.87,1.66,3.32.15,2.75-3.59,2.61-4.99,4.98-.93,1.58-2.12,2.64-1.66,4.43.71,2.8,4.33,1.81,7.19,1.66,2.73-.14,4.32-.79,6.66-2.21,1.69-1.04,2.15-4.35,3.86-3.33,1.17.7.72,2.02,1.11,3.33.87,2.96-.17,5.25,1.65,7.74.08.1.16.19.23.27,1.26,1.46,3.01,1.4,4.2,3.05,1.55,2.17,2.6,4.15,1.66,6.64-.86,2.31-2.72,2.91-4.98,3.88-3,1.28-5.18,1.42-8.31.56-1.85-.51-2.61-2.89-4.41-2.21-1.94.71-1.31,2.96-1.68,4.97-.46,2.55.11,4.06,0,6.64-.1,2.61.95,4.51-.54,6.65-1.4,1.96-3.84,1.06-5.54,2.76-2.41,2.41-5.32,6.05-2.77,8.3,1.62,1.44,3.37.45,5.53.56,1.73.09,2.7-.09,4.42,0,1.95.09,3.05.3,4.98.56,1.52.19,2.37.31,3.88.56,0,0,3.54-.43,4.43,1.1.76,1.33.56,2.85-.56,3.88-.97.88-2.01.41-3.33.56-2.14.21-3.44-.53-5.53,0-1.88.46-2.82,1.14-4.43,2.21-1.65,1.1-2.24,2.18-3.88,3.33-1.81,1.28-3.25,1.37-4.98,2.75-1.78,1.45-2.56,2.56-3.87,4.44-1.28,1.81-3.46,2.87-2.76,4.98.86,2.68,4.45,1.22,7.19.55,3.01-.72,3.56-3.92,6.64-4.42,2.83-.47,4.32,1.89,7.18,1.67,1.1-.1,1.76-.15,2.77-.56,2.27-.89,2.51-2.92,4.42-4.42,1.99-1.55,3.03-3.41,5.55-3.33,1.92.06,2.53,1.82,4.41,2.21,2.14.43,3.44,0,5.55-.55,3.35-.89,4.39-3.48,7.74-4.43,3.76-1.04,6.09,0,9.97,0s6.1.42,9.95,0c3.28-.36,5.33-.22,8.32-1.67,2.76-1.33,3.42-3.46,6.08-4.97.83-.49,1.53-.43,2.22-1.11,1.51-1.52-3.73,1.17-5.54,0-1.32-.85-2.08-1.77-2.22-3.33-.19-2.28,2.05-3.06,3.89-4.42,1.55-1.16,2.78-1.22,4.43-2.22,1.58-.96,3.07-1.08,3.87-2.77.82-1.77-.23-3.05-.57-4.98-.31-1.96.12-3.4-1.09-4.97-2.01-2.58-5.57.68-8.3-1.11-1.28-.84-2.24-1.34-2.76-2.76-.63-1.64,1.3-2.87.54-4.43-.68-1.39-2.26-1.08-3.3-2.21-1.88-2.01-.17-4.85-2.22-6.65-1.7-1.48-4.18.14-5.52-1.66-.89-1.14-.32-2.33-.28-3.6,0-.45-.07-.91-.28-1.38-1.34-2.81-4.11-2.61-6.65-4.43-1.76-1.26-2.63-2.14-4.43-3.33-1.05-.68-1.99-.67-2.76-1.66-1.34-1.69.57-3.45,0-5.54-.77-2.82-2.36-3.98-4.43-6.08-1.72-1.75-2.63-3.15-4.99-3.87-2.47-.77-4.03.59-6.63.55-2.18-.03-3.64.49-5.54-.55-1.33-.75-2.48-1.27-2.76-2.77-.45-2.48,3.87-1.44,5.54-3.33,1.15-1.3.92-2.71,2.2-3.87,1.85-1.65,4.15-.14,6.1-1.67,2.86-2.22,2.33-5.26,2.77-8.86.46-3.65,2.18-6.96-.56-9.41-2.9-2.61-6.11.47-9.95,1.11-3.05.52-4.67,1.83-7.75,1.66-1.31-.08-2.51.49-3.33-.55-.97-1.24.23-2.58,1.11-3.87,1.13-1.68,3.15-1.19,4.42-2.77,1.03-1.28,2.14-2.31,1.66-3.87-.35-1.18-1.08-1.77-2.21-2.22-1.65-.65-2.65.97-4.43,1.11-1.95.15-3.03-.45-4.98-.56-1.73-.09-2.69,0-4.41,0-2.83,0-5.23-1.98-7.21,0-1.56,1.55.05,3.66-1.11,5.54-.79,1.29-1.47,1.96-2.76,2.77-.99.6-1.68.71-2.77,1.1-1.48.51-2.37.64-3.88,1.1-1.68.51-2.93.52-4.27,1.25.65-.76,1.32-1.57,2.05-2.35,1.5-1.55,2.94-2.31,3.33-4.44.26-1.49.27-2.59-.56-3.86-1.65-2.54-4.96-1.15-7.75,0-1.72.7-2.6,1.41-3.87,2.76-1.51,1.63-2.69,2.76-2.77,4.98-.06,1.85.25,3.25,1.66,4.44Z"/>
        <path class="cls-15" d="M953.59,822.52c-1.3.4-1.34,1.97-1.09,3.32.23,1.37.82,2.75,2.19,2.78,1.65,0,2.19-2.31,1.67-3.89-.42-1.31-1.42-2.61-2.76-2.21Z"/>
        <path class="cls-15" d="M780.98,550.34c.09-.03.12-.07.21-.1-1.09-.54-2.14-1.01-2.93-1.32l2.73,1.42Z"/>
      </g>
      <g>
        <g>
          <path class="cls-7" d="M493.68,1086.32c1.28-1.28,2.65-2.73,4.12-4.36"/>
          <path class="cls-13" d="M505.39,1072.84c2.89-3.71,6.06-8,9.5-12.97,30.02-43.36,38.94-54.78,89.43-124.81,22.89-31.75,29.94-39.3,41.04-60.58,12.79-24.53,11.09-29.21,26.09-60.33,9.3-19.31,20.42-42.37,39.01-69.74,22.25-24.52,32.58-47.12,37.77-62.19,3.54-10.28,9.52-28.2,2.21-34.6-4.01-3.51-10.25-2-15.46-1.1,0,0-24.66,4.26-59.25-5.31-6.42-1.78-31.62-9.13-48.05-32.03-8.41-11.72-11.49-23.28-14.09-33.05-1.19-4.48-2.09-8.79-2.76-12.91"/>
          <path class="cls-7" d="M610.01,557.32c-.24-2.05-.43-4.05-.56-5.97"/>
          <path class="cls-23" d="M478.52,1096.23c8.82-2.18,20.6-3.66,29.23-2.63l-12.29-8.89-3.76-14.7c-2.2,8.41-7.91,18.81-13.18,26.22Z"/>
          <path class="cls-23" d="M609.35,533.24c3.26,8.48,8.79,18.98,14.58,25.47l-14.33-4.99-14.2,5.33c5.63-6.62,10.9-17.26,13.95-25.81Z"/>
        </g>
        <g>
          <path class="cls-7" d="M716.26,390.31c.19,1.9.41,3.9.66,5.96"/>
          <path class="cls-9" d="M718.7,408.11c2.09,11.63,5.39,23.56,10.55,31.48,13.29,20.38,47.85,85.96,53.17,100.14,6.55,17.47,17.16,52.49,7.09,93.05-7.79,31.37-25.41,54.51-31.53,62.04-17.87,22.02-29.99,24.88-47.53,49.58-6.98,7.94-16.06,20.35-21.46,37.35-3.53,11.11-3.79,18.79-5.49,32.51-2.99,24.09-6.56,35.54-10.3,54.11-10.24,50.87-7.85,86.4-20.1,178.98-3.88,29.3-3.89,24.04-10.98,74.74-.99,7.06-8.14,58.36-14.21,109.99-12.18,103.6-18.51,195.8-19.28,207.07-5.05,74.73-3.55,84.39-13.85,320"/>
          <path class="cls-7" d="M594.53,1765.13c-.09,1.98-.17,3.98-.26,5.99"/>
          <path class="cls-23" d="M715.07,372.24c-2.55,8.72-7.18,19.65-12.41,26.59l13.87-6.16,14.59,4.14c-6.16-6.13-12.29-16.29-16.05-24.57Z"/>
          <path class="cls-23" d="M593.47,1789.22c-2.81-8.64-7.77-19.42-13.21-26.2l14.04,5.74,14.46-4.57c-5.98,6.31-11.8,16.65-15.3,25.04Z"/>
        </g>
        <g>
          <path class="cls-7" d="M847.92,303.51c-.14,1.89-.31,3.89-.5,5.98"/>
          <path class="cls-20" d="M845.98,321.58c-2.38,16.7-6.88,36.03-15.4,50.66-22.71,38.97-27.52,58.29-35.73,94.25-4.28,18.73-7.93,46.42-3.03,82.54"/>
          <path class="cls-7" d="M792.7,555.07c.31,1.95.64,3.92,1,5.92"/>
          <path class="cls-23" d="M848.62,285.42c-3.52,8.38-9.36,18.71-15.35,25.01l14.48-4.54,14.03,5.77c-5.43-6.79-10.36-17.58-13.15-26.23Z"/>
        </g>
        <g>
          <path class="cls-7" d="M790.5,348.32c-.6,1.83-1.18,3.74-1.74,5.74"/>
          <path class="cls-16" d="M786.24,364.65c-5.24,26.95.46,43.1-9.37,66.02-1.61,3.75-3.81,8.1-6.91,12.79"/>
          <path class="cls-7" d="M766.83,447.89c-1.16,1.53-2.41,3.09-3.77,4.67"/>
          <path class="cls-23" d="M797.25,331.52c-6.07,6.76-14.96,14.62-22.68,18.62l15.17.44,11.37,10.04c-2.91-8.19-4.05-20-3.86-29.09Z"/>
        </g>
        <g>
          <path class="cls-7" d="M912.89,331.28c-.97,1.78-1.93,3.53-2.88,5.26"/>
          <path class="cls-18" d="M903.98,347.48c-20.79,37.45-36.74,63.71-48.27,81.88-12.78,20.14-22.14,42.57-36.87,61.33-9.49,12.09-15.93,22.56-20.74,38.34-3.66,11.98-4.59,23.18-4.38,32.53"/>
          <path class="cls-7" d="M794.02,567.8c.16,2.13.38,4.12.61,5.97"/>
          <path class="cls-23" d="M921.5,315.35c-6.86,5.96-16.67,12.64-24.83,15.64l14.99,2.32,10.04,11.38c-1.87-8.49-1.52-20.35-.2-29.34Z"/>
        </g>
        <g>
          <path class="cls-7" d="M1144.24,248.84c-.89,1.82-1.78,3.61-2.68,5.37"/>
          <path class="cls-6" d="M1135.93,264.89c-11.8,21.55-23.55,38.02-33.15,50.1-13.08,16.46-20.31,22.42-40.47,48.04-19.57,24.87-24.31,33.95-39.82,54.85-26.36,35.53-51.16,61.2-63.4,73.36-24.8,24.64-58.67,58.28-88.58,68.38-2.93.99-12.98,4.17-25.17,11.13-7.18,4.1-16.49,10.3-25.8,19.16-11.33,10.77-19.22,22.19-24.68,32.09"/>
          <path class="cls-7" d="M792.06,627.35c-.94,1.9-1.79,3.71-2.55,5.43.71-1.91,1.41-3.79,2.11-5.62"/>
          <path class="cls-17" d="M795.99,615.9c3.21-8.07,6.16-15.09,8.67-20.92,6.32-14.64,10.16-23.52,16.58-35.17,5.05-9.16,7.99-13.32,18.56-29.65,15.19-23.49,19.42-30.3,24.23-38.17,6.66-10.91,18.17-19.99,53.31-61.19,32.09-37.62,72.35-67.22,100.68-86.98"/>
          <path class="cls-7" d="M1022.99,340.37c1.7-1.18,3.35-2.31,4.93-3.41"/>
          <path class="cls-23" d="M1151.82,232.4c-6.47,6.38-15.83,13.67-23.78,17.19l15.11,1.36,10.74,10.71c-2.4-8.35-2.82-20.21-2.07-29.27Z"/>
          <path class="cls-23" d="M1042.76,326.59c-5.18,7.46-10.78,17.93-12.89,26.36l-3.92-14.66-12.39-8.76c8.64.94,20.4-.67,29.19-2.95Z"/>
        </g>
        <g>
          <path class="cls-7" d="M713.72,742c1.04-1.35,2.27-2.94,3.67-4.75"/>
          <path class="cls-4" d="M724.71,727.93c1.78-2.24,3.68-4.63,5.7-7.14,10.17-12.63,17.64-21.36,19.39-23.45,37.05-44.1,44.87-89.91,44.87-89.91,3.55-20.78-.29-38.77-7.98-74.76-9.09-42.58-22.74-75.71-36.32-108.25-13.2-31.64-16.22-33.96-25.49-58.89-6.47-17.4-11.35-33.39-15.06-47.24"/>
          <path class="cls-7" d="M708.33,312.54c-.51-1.99-.99-3.93-1.45-5.82"/>
          <path class="cls-23" d="M702.91,289.05c4.98,7.6,12.6,16.7,19.64,21.81l-15.06-1.84-12.75,8.22c4.1-7.66,7-19.17,8.17-28.18Z"/>
        </g>
        <g>
          <path class="cls-7" d="M1126.7,388.41c-1.61,1.21-3.21,2.42-4.79,3.62"/>
          <path class="cls-2" d="M1112.27,399.5c-41.57,32.65-72.14,63.13-93.6,86.72-46.74,51.34-83.45,91.67-104.59,129.36-3.05,5.43-12.04,21.98-29.58,38.61-11.33,10.75-20.8,16.38-39,27.04-38.45,22.53-57.87,33.9-83.21,39-8.51,1.71-22.04,3.59-35.36,12.48,0,0,0,0,0,0-.11.05-2.03,1.68-7.28,6.17"/>
          <path class="cls-7" d="M715.02,742.85c-1.37,1.18-2.89,2.48-4.55,3.91"/>
          <path class="cls-23" d="M1141.3,377.7c-8.73,2.53-20.43,4.49-29.1,3.8l12.64,8.39,4.34,14.53c1.86-8.49,7.15-19.12,12.11-26.73Z"/>
        </g>
        <g>
          <path class="cls-7" d="M569.83,512.98c.62,1.93,1.24,3.83,1.86,5.7"/>
          <path class="cls-5" d="M575.89,530.81c6.04,16.74,12.13,30.87,17.49,42.26,12.19,25.91,19.16,34.68,28.34,41.42,0,0,2.86,2.1,22.1,12.45"/>
          <path class="cls-7" d="M649.48,629.96c1.67.89,3.43,1.83,5.3,2.81"/>
          <path class="cls-23" d="M564.62,495.64c-.52,9.07-2.57,20.76-6.11,28.7l12.12-9.12,15.15.74c-7.39-4.59-15.65-13.11-21.17-20.32Z"/>
        </g>
        <g>
          <path class="cls-7" d="M697.18,481.06c1.93,0,3.93.07,6,.2"/>
          <path class="cls-1" d="M713.55,482.52c.36.06.72.13,1.08.2,23.15,4.42,39.62,16.67,49.28,25.86"/>
          <path class="cls-7" d="M767.61,512.27c1.65,1.73,2.99,3.25,4.01,4.46"/>
          <path class="cls-23" d="M679.15,482.72c8.75,2.44,19.73,6.94,26.74,12.09l-6.33-13.79,3.96-14.64c-6.06,6.24-16.14,12.49-24.37,16.34Z"/>
        </g>
        <g>
          <path class="cls-7" d="M692.63,423.47c2.02-.03,4.06-.03,6,0"/>
          <path class="cls-19" d="M708.61,424.26c4.16.86,8.91,4.23,12.81,7.6"/>
          <path class="cls-7" d="M725.11,435.25c2.51,2.45,4.14,4.34,4.14,4.34"/>
          <path class="cls-23" d="M674.53,424.25c8.63,2.85,19.39,7.86,26.14,13.33l-5.68-14.07,4.64-14.44c-6.34,5.95-16.71,11.72-25.11,15.19Z"/>
        </g>
        <g>
          <path class="cls-7" d="M1141.33,533.23c-1.54,1.1-3.17,2.27-4.87,3.5"/>
          <path class="cls-11" d="M1126.73,543.73c-28.72,20.67-69.39,50.18-78.07,57.73-13.72,11.93-36.4,29.24-48.93,40.58-.6.54-2.49,2.55-5.59,5.71-9.6,9.77-11.58,11.66-14.94,15.34-4.51,4.94-7.14,8.32-8.53,9.98-5.53,6.61-15.05,14.15-43.75,25.9-14.52,5.95-25.67,10.51-43.46,15.15-.58.15-1.33.35-2.24.57-28.63,7.19-65.87,9.69-65.87,9.69-66.85,4.45-80.62,5.27-96.23,16.83-1.41,1.04-2.71,2.08-3.92,3.11"/>
          <path class="cls-7" d="M710.78,748.37c-1.64,1.63-3,3.12-4.09,4.38"/>
          <path class="cls-23" d="M1156.06,522.7c-8.76,2.41-20.49,4.2-29.15,3.38l12.52,8.57,4.14,14.59c1.99-8.46,7.42-19.01,12.49-26.55Z"/>
        </g>
        <g>
          <path class="cls-7" d="M1141.3,632.78s-1.79,1.2-5.01,3.3"/>
          <path class="cls-22" d="M1126.28,642.54c-30.53,19.55-99.69,62.2-132.13,69-13.67,2.87-26.32,5.05-38.47,6.73-24.8,3.44-43.46,4.38-53.01,4.87-45.88,2.36-6.74,1.2-120.38,8.87-34.28,2.31-62.34,4.07-78.58,23.7"/>
          <path class="cls-7" d="M700.2,760.55c-1.29,2.03-2.24,3.84-2.92,5.24"/>
        </g>
        <g>
          <path class="cls-7" d="M1146.68,715.5c-1.88.38-3.84.79-5.87,1.24"/>
          <path class="cls-14" d="M1129.43,719.47c-8.87,2.33-14.23,4.26-22.61,6.65-1.97.56-25.53,7.18-51.78,9.99-14.34,1.53-17.29.62-46.78.91-27.83.27-31.69,1.14-59.95,1.82-20.55.49-38.94.33-75.73,0-33.18-.3-66.55,3.86-99.55.34-9-.96-29.89-3.56-52.48,6.09-1.25.53-2.43,1.07-3.56,1.62"/>
          <path class="cls-7" d="M711.8,749.62c-2.02,1.15-3.74,2.23-5.11,3.14"/>
          <path class="cls-23" d="M1164.53,712.44c-8.94-1.6-20.3-5.04-27.76-9.51l7.6,13.13-2.56,14.95c5.44-6.78,14.89-13.96,22.71-18.58Z"/>
        </g>
        <g>
          <path class="cls-7" d="M675.36,1689.09c-.05-2.01-.1-4.01-.14-6"/>
          <path class="cls-21" d="M674.96,1671.17c-1.28-65.16-.53-118.8.55-158.23,1.44-52.72,3.58-83.89.34-135.37-3.89-61.87-10.85-78.41-16.09-127.82-5.38-50.73-1.04-106.08,7.63-216.78,5.03-64.24,9.63-98.93,17.8-209.05.76-10.19,1.41-19.27,1.95-26.83"/>
          <path class="cls-7" d="M687.56,791.14c.15-2.17.29-4.17.42-5.98"/>
          <path class="cls-23" d="M675.85,1707.19c2.98-8.59,8.14-19.27,13.71-25.94l-14.15,5.47-14.37-4.85c5.85,6.43,11.47,16.88,14.81,25.33Z"/>
        </g>
        <g>
          <path class="cls-7" d="M691.24,775.45c.03,1.72.06,3.73.11,6"/>
          <path class="cls-12" d="M691.62,793.31c.05,1.72.1,3.51.15,5.36,2.23,75.82,8.74,131.51,10.15,144.71,10.78,100.94-16.11,157.41-13.93,338.97.61,50.91,2.47,38.99,6.7,158.01,2.85,80.07,4.19,148.29,4.86,199.83"/>
          <path class="cls-7" d="M699.62,1646.12c.02,2.03.05,4.02.07,5.99"/>
          <path class="cls-23" d="M699.88,1670.21c-3.29-8.47-8.84-18.96-14.66-25.42l14.34,4.94,14.18-5.38c-5.61,6.64-10.85,17.29-13.87,25.86Z"/>
        </g>
        <g>
          <path class="cls-7" d="M701.92,943.38s-.3,2.28.32,5.97"/>
          <path class="cls-3" d="M706.36,960.98c2.1,3.84,5.17,8.02,9.63,12.23,15.99,15.11,26.21,24.88,38.65,32.43.51.31,1.06.68,1.63,1.1"/>
          <path class="cls-7" d="M760.82,1010.95c1.24,1.39,2.47,3,3.59,4.81"/>
          <path class="cls-23" d="M769.31,1033.19c-5.55-7.2-13.84-15.69-21.24-20.25l15.16.69,12.09-9.16c-3.51,7.95-5.52,19.65-6.01,28.72Z"/>
        </g>
        <g>
          <path class="cls-7" d="M753.34,1266.8c-1.51-1.25-3.03-2.55-4.55-3.91"/>
          <path class="cls-8" d="M739.85,1254.09c-9.05-9.78-17.39-21.86-22.97-36.61-4.81-12.72-5.69-22.47-8.14-45.65-1.98-18.72-4.91-45.55-8.9-78.91"/>
          <path class="cls-7" d="M699.1,1086.69c-.24-1.96-.48-3.95-.72-5.96"/>
          <path class="cls-23" d="M767.95,1277.51c-4.94-7.63-10.18-18.27-12.01-26.77l-4.4,14.52-12.67,8.34c8.67-.66,20.37,1.34,29.08,3.91Z"/>
        </g>
        <g>
          <path class="cls-7" d="M740.55,1340.97c-1.65-.96-3.36-2-5.11-3.15"/>
          <path class="cls-10" d="M724.73,1329.87c-8.05-6.78-16.2-15.66-22.89-27.18-7.49-12.89-11-25.39-12.65-35.31"/>
          <path class="cls-7" d="M688.31,1260.76c-.23-2.21-.37-4.22-.45-5.98"/>
          <path class="cls-23" d="M756.89,1348.76c-6.27-6.58-13.4-16.06-16.79-24.07l-1.62,15.09-10.89,10.56c8.39-2.26,20.26-2.47,29.3-1.57Z"/>
        </g>
      </g>
    </g>
  </g>
</svg>