<?xml version="1.0" encoding="UTF-8"?>
<svg id="Layer_2" data-name="Layer 2" xmlns="http://www.w3.org/2000/svg" viewBox="0 0 948.11 606.27">
  <defs>
    <style>
      .cls-1 {
        fill: #c0bebe;
      }
    </style>
  </defs>
  <g id="Layer_1-2" data-name="Layer 1">
    <g id="rffTON">
      <g>
        <path class="cls-1" d="M933.22,429.18c-.08-.11-.16-.22-.16-.22-.05-.07-.11-.15-.16-.22-.19-.2-.36-.39-.55-.59v-.18c-.83-1.09-1.75-2.13-2.75-3.09-1.02.13-1.25-.61-1.92-1.13-15.81-12.21-25.25-19.24-43.95-27.46-39.69-17.44-82.55-29.46-123.65-43.22-.25-.72-.51-1.44-.76-2.16.02-8.03.03-16.05.05-24.08,0-.44.01-1.1.07-1.91.11-1.49.27-2.03-.07-2.46-.16-.2-.55-.54-1.59-.5-2.75-.55-5.5-1.11-8.25-1.66-16.3-4.26-32.59-8.51-48.89-12.77l-1.43.68-.34,2.94-42.25-11.3,104.57-130.86-4.04-15.24c-1.1-.3-1.21.29-1.82.72-4.81,3.35-10.66,11.35-14.91,15.7-39.4,40.28-78.59,80.75-117.69,121.31-7.94,3.95-19.35,8.68-21.56,18.14l-9.97-2.3-47.33-267.53s-.05-.05-.07-.08c-.58-1.07-1.32-2.07-1.65-3.26-.04-.13-.03-.25-.01-.38l-2.51-13.46-24.74-22.63,3.25,36.13c.01.06.03.11.04.17.07.92.14,1.84.14,2.77,0,.17-.06.32-.15.45l25.5,254.87-85.25-22.6,2.92-8.73c-3.39-.71-6.71-1.79-10.04-2.72-6.78-1.88-26.25-8.12-31.89-8.25-2.6-.06-5.01,1.33-7.55,1.54l-.17,4.2-3,.68-93.98-25.37-37.18-51.18-145.72-34.99-5.34-2.68-34.57,3.25-12.89,21.41c-19.47-5.13-40.8-3.37-55.4,11.59l-23.53-.58c-.32,1.35.45,1.41,1.21,2.06,4.02,3.44,9.61,6.64,14.02,9.7-2.3,6.69-5.16,13.06-6.28,20.13-3.12,19.6,5.26,35.87,20.87,47.28l-12.96,28.15,23.04,19.28,150.83,52.5,71.79-20.83,217.68,71.99-204.03,133.33c14.77-.82,29.63-.34,44.41-1.85l207.33-115.38,20.09,6.97-10.58,172.94c4.83-2.3,12.87-2.86,17.31-5.26.85-.46,1.54-.81,1.8-1.84l30.06-153.21,44.42,14.62-10.14,28.35,58.82,20.31c5.09-2.39,7.4-4.73,8.55-6.47.33-.5,1.18-1.87,2.66-3.54,1.46-1.65,2.73-2.7,3.12-3.03,1.67-1.4,4.9-4.53,11.8-12.18l52.01,14.41,2.91.73c22.43,6.06,44.96,12.48,67.76,17.13,36.1,7.38,83.52,13.89,107.42-20.84,6.66-9.68,14.92-26.2,11.17-39.36-2.64-9.27-13.83-26.75-13.95-26.91ZM702.7,309.88c18.15,3.14,36.88,10.51,55.2,13.66v26.6c0,.11-.76,1.78-1.16,1.82l-26.18-6.54-30.23-34.62c-.33-1.75,1.24-1.12,2.38-.92ZM733.16,350.83l.69,2.58-41.16-.74-14.14-2.98c-.33-6.01-2.37-17.77.48-23.05,1.31-2.43,11.89-7.03,14.98-8.34,2.23-.94,6.48-3.37,8.49-2.44l30.66,34.95ZM699.6,313.35c-5.29,4.49-13.65,6.17-19.45,10.05-6.15,4.11-3.64,18.99-3.14,25.64l-18.12-3.74c.42-3.78-.81-7.59-.86-11.16-.04-3.04.17-11.64,1.45-13.92,3.01-5.36,15.99-9.56,21.53-12.04l18.59,5.17ZM625.62,290c9.96-12.89,28.57-28.8,40.48-41.13,28.26-29.29,56.04-59.11,84.49-88.21.9-.92,4.6-5.18,5.84-3.99-.28,4.86,4.59,10.28,1.94,14.7l-101.75,126.32-3.14,2.38c-1.12-.52-2.63-.78-4.12-1.05-2.22-.4-2.61-.78-3.92-1.11-2.57-.65-3.39-.57-5.79-1.02-4.01-.76-3.34-1.29-6.26-1.73-1.67-.25-7.16-.85-8.88-1.83-.11-.06-1-.6,1.1-3.32ZM604.85,304.94c2.19-2.74,13.7-10.54,17.06-10.48l54.37,12.68.72,1.09c-6.21,1.9-20.4,8.15-20.4,15.68v20.77l-53.5-15.22c-1.33-6.1-2.23-19.55,1.75-24.52ZM516.71,4.38c.17-.23,2.45,1.42,2.92,1.8,3.9,3.17,9.72,9.04,13.48,12.75,2.16,2.13,5.04,4.34,5.83,7.28l57.06,318.85-1.55.93-44.87-12.36L516.71,4.38ZM430.55,277.49c-9.59-4.28-21.99-6.09-31.36-10.22-1.01-.45-2.41-.75-2.72-2.01l6.01-.57,32.6,10.77c-.76,1.94-2.59,2.61-4.54,2.03ZM432.9,283.46l-36.73-10.84-.43-4.45,35.17,11.09c1.89.71,2.2,2.32,1.98,4.2ZM434.36,278.76c2.48-2.8,3.99-1,6.16-1.14.7-.04,11.47-5.89,12.34-6.61,1.71-1.41,1.9-5.26,5.54-5.02-.47,7.13-6.14,7.17-10.84,9.92-1.84,1.08-11.61,8.18-12.47,7.56-.04-1.91-2.28-2.97-.74-4.7ZM421.42,254.51l34.79,9.65-4.53.91-34.07-10.02,3.81-.53ZM413.96,256.51l38.61,10.2-1.08,2.1c-11.72-4.26-24.19-6.54-35.94-10.66-1.18-.41-1.95.38-1.59-1.64ZM414.11,259.57l34.82,10.06c.41,1.67-.31,1.19-.92,1.66-1.42,1.1-6.62,4.26-8.13,4.15l-34.47-11.48-.93-1.62,9.63-2.78ZM132.3,148.92l143.07,34.49c1.64.31,2.36,1.32,3.36,2.46,7.96,9.1,17.1,23.68,24.33,33.96.75,1.07,7.18,9.99,6.69,10.43l-190.03-50.43-.73-7.34,13.31-23.58ZM223.04,322.81l-21.89-7.04c.27-15.22-.69-30.61,1.58-45.7.25-1.63,1.89-9.93,2.44-10.67.86-1.15,2.3-.73,3.48-.56,5.46.77,13.46,4.44,20.05,6.47-1.35.52-1.56,2.07-1.97,3.25-5.48,15.61-4.63,37.92-3.69,54.24ZM73.36,217.1c-3.42-3.22-8.36-12.12-11.68-14.56-1.4-1.03-4.43-1.2-6.48-2.27-4.1-2.14-14.69-10.21-18.64-13.42-.82-.67-1.91-1.45-2.25-2.48l143.22,40.04c22.9,10.81,46.46,20.36,69.32,31.24.88.42,8.12,3.72,7.52,4.49l-19.71,4.79-161.31-47.82ZM70.74,222.98c-1.69.46-1.21-.41-1.66-.92-1.61-1.85-9.77-12.81-10.32-14.41-.52-1.49-.49-2.81-.39-4.34,1.02-.13,1.93.34,2.68.97.95.8,10.84,13.26,11.06,14.13.42,1.6-1.36,3.02-1.37,4.58ZM213.6,238.66c6.46-9.25,20.99-23.31,33.05-22.16,5.33.51,11.61,4.09,17.21,4.31-2.16,2.08-5.95,2.54-8.78,3.97-8.69,4.41-17.24,14.51-20.38,23.72l-21.1-9.83ZM129.77,147.94l-12.75,24.78c-1.13,1.43-2.63.15-4.01-.02l12.4-26.22,4.36,1.47ZM102.58,182.96c-.6-.13-.88-2-2.46-2.82-3.03-1.57-9.52-2.44-13.16-3.6-.88-.28-3.08-.55-3.08-1.64,10.16-3.94,20.88,4.32,31.32,4.36.36-2.13-.51-1.18-1.7-1.54-2.89-.88-24.51-5.46-24.52-6.83l1.81-1.14,25.16,5.48c1.21,2.19,2.15,5.4-.05,7.29l-13.81,6.21.09-3.54c.5-.79,10.08-2.65,10.83-5.19-3.13-.66-7.81,3.52-10.44,2.96ZM94.47,183.6c2.11.99,2.91,3.04,5.37,3.02l.05,2.12c-.58.04-1.16,0-1.75-.06-3.58-.4-21.61-5.22-24.65-6.69-2.13-1.03-3.08-2.49-2.74-4.9,6.93,2.5,17.32,3.5,23.72,6.52ZM72.94,175.63c1.08-.23,1.9-.68,3.08-.57,6.22.58,14.43,4.99,20.96,5.67.39,2.1-.84,1.52-2.37,1.27-5.55-.93-13.92-3.56-19.64-5.14-.75-.21-2.21-.18-2.03-1.23ZM92.45,149.4l31.49-3.66-12.38,25.18c-6.84-.09-15.09-4.81-22.07-3.17-2.75.64-3.94,4.59-7.79.95l10.75-19.3ZM5.17,182.18c4.06.35,8.79-.48,12.75,0,.43.05,3.85.65,3.27,1.81l-4.8,6.15c-1.09.27-9.91-6.44-11.22-7.96ZM78.76,170.89c1.65.52,4.28.84,5.1,2.54-3.7,1.65-15.31-2.15-15.36,4-.03,3.29,2.8,5.15,5.49,6.24,4.76,1.93,20.11,6.43,25,7.11,5.54.76,15.61-7.29,21.46-8.47l120.07,33.03c-11.92,4.14-21.36,12.88-28.76,22.85l-34.06-15.41L29.97,181.04c-.71-.71-2.21.29-2.2.78.04,1.77,25.55,17.91,28.46,21.08,1.17,9,9.03,15.76,14.16,22.99l3.27-5.48,2.35-.19,128.09,37.02c-2.32,8.86-3.94,18.12-4.4,27.29-.46,9.08,1,19.72.07,28.48-.12,1.08-.05,1.83-1.12,2.48l-158.69-52.61c-57.61-27.6-24.69-111.88,38.81-92ZM38.71,303.49l-19.74-16.15c-.53-2.52,10.37-22.4,12.8-25.66l21.36,14.63c.58,1-.09,2.31-.44,3.3-2.69,7.81-9.31,16.07-11.85,24.22l-2.14-.35ZM42.37,304.87l13.13-28.93-14.62-10.69,26.23,8.02-7.18,4.1-12.53,29.39-5.02-1.88ZM193.94,356.73l-3.99.3-140.14-48.61c-1.1-.12-.95-.27-.9-1.22.11-2.46,7.03-18.09,8.61-21.32,3.04-6.22,4.5-10.75,12.79-10.41l183,60.43,3.26,2.2-62.63,18.62ZM224.57,324.2c-2.16-19.72-.23-39.61,4.27-58.84,2.33.71,4.49,1.22,6.28,1.3,5.97.28,17-5.68,23.63-5.79.28-1.32-.35-1.44-1.26-2.01-2.86-1.79-20.9-8.51-21.27-10.08,5.3-13.47,17.77-25.34,32.75-26.23l136.98,36.88c-1.65,3.81-13.75,4.17-14.98,5.78-1.91,2.49,5.48,4.5,3.39,8.72l37.63,11.55c6.01,1.04,10.74-5.22,15.72-7.97,3.13-1.73,8.78-4.55,12.16-3.5-12.97,8.91-25.22,17.75-34.41,30.8-17.01,24.16-16.5,55.42-8.59,82.86l-192.3-63.46ZM419.82,388.73c-8.17-19.34-8.96-44.45-2.58-64.45,6.91-21.67,25.76-38.12,44.8-49.26l24.78,6.27-12,8.03c-17.28,13.46-31.66,37.61-34.55,59.45-2.23,16.87,1.54,33.32,7.19,49.1l-27.65-9.14ZM319.76,540.12c-12.53,1.11-25.1,1.49-37.69,1.29l249.97-162.11,3.64-.06c13.44,5.79,30.26,8.26,43.36,14.22.72.33,1.71.48,1.78,1.48l-261.07,145.18ZM555.31,598.43l-16.74,5.65,11.66-170.51c7.17.97,6.87,4.73,10.55,8.75,1.49,1.63,2.19,1.41,3.29,2.18-1.06-.71-5.99-6.84-5.09-8.02l15.35,5.54c.34,5.71-7.11,4.58-10.25,2.48,3.28,2.27,3.48,3.44,8.33,2.85,3.9-.48,2.21-2.6,4.4-4.93l8.41,3.23-29.9,152.78ZM529.82,425.55l53.92-32.04-50.66-15.98-50.38,31.82-32.65-10.77c-21.23-41.94-2.01-96.58,40.05-116.5l54.22,14.58,3.73,37.44,1.22,1.7,47.91,12.51.85-1.48c-1.39-11.02-5.23-22.95-6.26-33.85-.08-.89-.78-3.45,1.04-3.23.98.12,7.38,1.92,7.59,2.26.42,6.04-.63,12.23,1.2,18.11l1.81,1.1c28.76,7.18,57.9,18.46,87.28,22.75,11.85,1.73,23.92.62,35.87.94-11.52,9.65-21.41,21.46-27.82,35.21-12.99,27.86-10.16,58.27-6.43,87.93l-162.49-52.47ZM681.01,507.21l-57.86-19.77,10.49-26.07,69.6,22.85-22.23,22.99ZM694.93,478.69c-.89-.36-.93-.98-1.13-1.78-1.6-6.21-2.59-19.5-2.93-26.22-1.73-34.7,5.61-68.87,33.5-91.82,4.62-3.8,6.78-4.7,13.12-4l-4.37-6.55,29.15,7.29c-36.7,33-52.29,84.02-37.89,131.88l-29.45-8.8ZM810.35,510.46c-16.61-3.86-33.02-8.59-49.54-12.76l-2.91-1.46-31.68-8.77c-12.87-39.97-2.93-86.07,24.41-117.64,2.12-2.45,11.11-11.83,13.44-12.86.63-.28,1.06-.74,1.86-.36,29.54,9.62,59.28,18.8,88.34,29.78,18.54,7.01,49.19,17.99,63.56,31.17.89.81,2.09,1.46,1.84,2.88-13.91,3.78-24.75,18.56-30.5,31.08-9.58,20.86-6.25,46.09-2.31,67.99-25.64,2.98-51.62-3.28-76.5-9.06ZM888.36,519.52c-3.3-19.34-6.77-42.14-.36-61.15,3.79-11.24,14.21-27.02,24.44-33.13,6.23-3.72,10.89-6.48,15.25,1.38-9.75,5.84-19.08,11.6-24.9,21.75-11.57,20.17-9.81,46.68-4.94,68.6.36,2.31-9.1,2.89-9.48,2.53ZM922.58,493.32c-1.02.15-1.96-.11-2.94-.33-6.54-1.43-15.69-6.04-21.65-6.82-.97-.13-1.53.35-2.35.59-.4-13.38,2.73-26.68,8.84-38.51l30.5,7.91c-10.82,9.41-14.62,23.15-12.39,37.15ZM937.15,458.34c1.78,10.13-.82,22.79-7.3,30.95-.6.75-5.06,5.59-5.81,4.75-.65-11.04-.61-21.89,6.57-30.95.78-.98,5.34-6,6.54-4.76ZM899.29,517.34c-1.68-9.88-3.91-19.72-3.67-29.84,1.03-1.08,24.4,8.43,28.72,8.01,4.81-.47,10.55-10.66,12.1-14.91,2.9-7.93,4.12-16.88,1.27-24.99l-31.16-8.92c-.5-4.81,21.13-19.16,22.85-18.83,7.81,7.34,15.48,19.25,16.49,30.14,2.33,25.05-20.64,57.11-46.59,59.34Z"/>
        <path class="cls-1" d="M561.71,271.23c5.22-.75,9.89,1.94,11.86,6.74,1.68,4.09,2.79,17.44,2.11,21.84-1.45,9.4-15.12,12.44-20.25,3.58-2.04-3.52-3.53-18.25-2.96-22.42.62-4.49,4.66-9.09,9.23-9.74ZM560.95,273.43c-3.79.78-6.33,4.76-6.91,8.38-.48,3.02,1.28,17.72,2.59,20.38,3.65,7.45,15.93,5.71,17.47-3.24.73-4.24-.78-18.59-3.15-22s-5.76-4.4-9.99-3.52Z"/>
        <path class="cls-1" d="M555.86,228.98c4.93-1.02,9.36-.11,12.19,4.24,2.41,3.7,4.02,19.66,3,24.06-2.29,9.91-16.56,12.07-20.71,2.39-1.59-3.71-2.87-18.25-2.13-22.31.63-3.45,4.15-7.66,7.65-8.38ZM556.57,230.43c-2.82.65-6.58,5.42-7.02,8.27s1.11,17.7,2.3,20.19c3.95,8.27,15.54,6.04,17.7-2.36.67-2.59-.6-15.36-1.27-18.44-1.14-5.28-6.31-8.9-11.71-7.65Z"/>
        <path class="cls-1" d="M551.51,185.23c5.27-.73,10.65,4.01,11.77,9.02.81,3.63,2.03,16.14,1.35,19.45-1.99,9.72-15.26,12.74-20.39,3.23-2.04-3.78-3.33-17.55-2.7-21.95.68-4.79,5.21-9.1,9.97-9.76ZM550.01,187.43c-3.09.71-6.28,4.64-6.91,7.66-.55,2.67.73,14.82,1.34,18.01,2.01,10.59,16.42,9.99,18.57-.28.6-2.86-.52-13.85-1.21-17.09-1.25-5.89-5.49-9.74-11.8-8.3Z"/>
        <path class="cls-1" d="M545.68,145.16c4.4-.61,8.54,2.46,9.88,6.54,1.24,3.77,2.42,15.62,1.26,19.23-2.47,7.7-13.18,9.97-17.42,2.76-1.26-2.15-2.98-14.59-2.89-17.39.16-5.07,3.94-10.42,9.16-11.14ZM544.18,147.36c-2.42.55-4.97,3.86-5.45,6.2-.58,2.82.08,11.33.62,14.35,2.35,13,16.32,9.51,16.56-.66.08-3.19-1.33-14.09-2.88-16.66-1.93-3.19-5.29-4.05-8.85-3.23Z"/>
        <path class="cls-1" d="M539.08,110.19c4.42-1.02,8.91,1.12,10.24,5.49.82,2.7,2,13.85,1.47,16.42-1.44,6.94-10.97,10.14-15.14,3.81-1.4-2.12-2.97-14.44-2.76-17.28.23-3.17,2.88-7.67,6.2-8.44ZM540.57,111.62c-1.86.3-4.64,2.48-5.25,4.28-1.13,3.33-.1,15.73,1.63,18.7,3.89,6.65,11.99,2.03,12.56-4.5-1.45-5.47.43-20.01-8.94-18.47Z"/>
        <path class="cls-1" d="M536.84,78.21c2.62-.19,6,1.91,7.01,4.33.78,1.86,1.94,10.51,1.94,12.65,0,8.62-10.51,12.78-14.34,4.85-1.07-2.21-1.96-13.21-1.45-15.7.59-2.87,3.89-5.91,6.85-6.13ZM536.19,80.29c-1.39.29-3.44,2-4.08,3.24-1.39,2.68-.25,13.44,1.22,16.09,2.36,4.27,8.13,3.45,9.79-.7,1.09-2.72.39-13.64-.99-16.12-1.16-2.08-3.67-2.98-5.94-2.51Z"/>
        <path class="cls-1" d="M458.24,434.49c7.16-.96,21.09,4.96,14.43,12.97-1.66,2-13.73,9.54-16.25,9.98-6.38,1.1-19.3-1.65-17.55-10.22.81-3.95,15.19-12.17,19.37-12.73ZM457.49,435.93c-2.2.38-14.1,7.68-15.44,9.34-6.08,7.5,7.28,12.85,14.33,10.68,2.28-.7,13.59-7.6,14.76-9.28,5.45-7.83-7.05-11.88-13.66-10.74Z"/>
        <path class="cls-1" d="M473.95,433.34c-2.34-2.76-1.94-6.34.48-8.9,1.13-1.19,11.85-7.8,13.54-8.32,6.13-1.92,21.47.53,19.1,9.61-.74,2.82-12.54,10.51-15.53,11.44-5.42,1.7-13.75.68-17.58-3.84ZM476.85,434.07c7.45,6.33,18.11.47,24.5-4.55,10.73-8.43-3.39-15.23-12.87-12.14-1.94.63-12.92,8.05-13.66,9.65-1.12,2.43.16,5.45,2.03,7.04Z"/>
        <path class="cls-1" d="M523.02,395.96c5.45-.14,15.98,3.69,13.77,10.68-1.03,3.26-13.53,10.7-17.13,11.3-6.91,1.14-21.32-4.03-15.69-12.04,2.37-3.37,14.69-9.82,19.05-9.93ZM533.21,400.31c-3.22-3.36-10.33-3.82-14.53-2.29-1.16.42-12.19,7.45-12.7,8.06-5.94,7.19,7.69,12.1,14.38,10.38,1.68-.43,12.97-7.62,13.74-8.84,1.52-2.41.99-5.35-.9-7.32Z"/>
        <path class="cls-1" d="M423.97,455.61c6.06-1.03,16.42,1.7,14.61,9.51-.73,3.16-13.04,10.71-16.41,11.27-6.7,1.13-19.45-4.03-13.32-11.86,1.65-2.11,12.44-8.46,15.12-8.92ZM411.27,472.69c6.7,6.08,17.64-.19,23.1-5.23,7.88-7.27-3.49-12.14-10.96-10.23-1.67.43-12.22,6.85-13.02,8.11-1.39,2.2-1.06,5.6.87,7.35Z"/>
        <path class="cls-1" d="M406.44,477.51c1.82,1.99,1.84,4.55.24,6.72-.94,1.27-11.56,8.34-13.11,8.75-5.47,1.44-15.97-.53-14.47-7.87.56-2.75,11.65-9.68,14.42-10.39,3.71-.96,10.24-.14,12.91,2.79ZM394.07,475.99c-1.59.36-11.88,7.18-12.52,8.6-3.09,6.8,6.4,8.22,11.3,6.93,1.36-.36,11.61-7.1,12.28-8.13,3.83-5.86-6.25-8.49-11.06-7.41Z"/>
        <path class="cls-1" d="M367.88,492.05c5.45-.72,14.58,3.64,9.96,9.25-1.18,1.44-10.75,7.32-12.66,7.73-5.67,1.21-15.48-2.24-10.98-8.79,1.56-2.27,10.91-7.82,13.68-8.19ZM367.86,493.49c-1.57.27-10.42,5.56-11.48,6.74-4.82,5.32,3.36,8.78,8.79,7.33,1.34-.36,10.34-6.26,10.95-7.25,3.17-5.16-3.9-7.56-8.25-6.81Z"/>
        <path class="cls-1" d="M566.25,451.05c-2.89-.51-5.26-2.47-8.26-.78-2.68,7.13-3.69,16.28,3.16,21.55-2.68.67-5.94-5.64-6.38-8.19-.38-2.21.1-10.77.69-12.81,1.14-3.95,9.03-2.97,10.79.22Z"/>
        <path class="cls-1" d="M563.34,473.66c2.57.44,4.46,1.54,6.97.03,2.13-1.28,2.76-10.12,2.5-12.79s-1.84-3.91-1.82-6.19c4.53,3.49,3.8,13.39,2.23,18.26-1.23,3.81-7.76,3.75-9.88.69Z"/>
        <path class="cls-1" d="M552.41,492.23c.28,1.39,2.67,3.48,2.92,5.09-.56.88-1.83-1.2-2.07-1.57-4.32-6.64-4.31-25.85,7.9-18.09l-6.05-.24c-1.06.18-2.7,3.17-2.7,3.88,0,2.97-.51,8.41,0,10.93Z"/>
        <path class="cls-1" d="M558.24,499.89c10.7,5.52,11.21-4.54,10.17-12.72-.19-1.53-1.92-2.78-1.06-4.04,4.25,2.43,3.16,17.7-.38,19.29-2.41,1.08-7.26-.16-8.73-2.53Z"/>
        <path class="cls-1" d="M559.7,507.16c-2.88-.45-6.37-3.94-8.67-.28-.65,1.04-1.44,7.29-1.41,8.69.04,1.78,1.77,3.2.98,4.71-2.8-2.04-2.32-13.46-.74-15.31s8.57-.49,9.84,2.19Z"/>
        <path class="cls-1" d="M563.9,525.94c-2.27,1.44-4.71.96-7.11.16.68-1.54,3.4-.25,5.1-1.08,2.58-1.27,2.45-12.17.73-14.94,4.58,3.72,2.47,10.87,1.28,15.86Z"/>
        <path class="cls-1" d="M553.87,547.24c.32-1.58,3.03-.15,4.39-1.06,2.19-1.44,2.43-13.15-1.48-14.6,1.66-1.28,3.89,3.03,4.2,4.54,1.06,5.15.28,14.79-7.11,11.12Z"/>
        <path class="cls-1" d="M553.86,528.31c-.08,1.37-2.32.44-3.64,1.08-1.39.68-2.3,7.04-2.23,8.74.08,2,1.82,3.12,1.15,4.74-3.47-2.06-2.56-14.34.13-15.21l4.6.65Z"/>
        <path class="cls-1" d="M551.68,564.74l4.04-.7c1.04-3.42,1.14-6.75.69-10.23,3.53,3.53,1.43,16.86-4.73,10.93Z"/>
        <path class="cls-1" d="M551.68,549.44l-4.05,1.4-1.03,10.25c-1.43-4.78-2.71-14.84,5.09-11.65Z"/>
        <path class="cls-1" d="M654.23,271.25c9.04-1.54,15.05,1.08,8.18,9.64-4.97,6.2-12.07,11.6-20.59,9.7-10.74-2.39,6.22-18.29,12.41-19.34ZM654.96,271.98c-5.79.99-21.74,15.62-11.68,17.88,4.51,1.01,9.63-1.28,12.98-4.2,1.13-.99,6.35-6.62,6.94-7.62,3.32-5.62-4-6.79-8.24-6.06Z"/>
        <path class="cls-1" d="M725.65,194.01c9.48-1.52,7.22,4.42,2.37,8.93-3.41,3.17-9.11,5.6-13.19,2.23-1.37-1.48.28-2.93,1.16-4.07,2.08-2.7,6.25-6.55,9.66-7.1ZM726.4,194.7c-4.66.51-14.68,10.6-7.51,11.19,3.69.31,9.56-4.31,11.36-7.28s-1.22-4.2-3.85-3.91Z"/>
        <path class="cls-1" d="M673.37,265.24c1.92-2.86,11.91-10.2,10.41-13.64-1.86-4.25-10.6-2.26-13.84-.35-3.61,2.13-15.36,13.96-6.37,15.41l6.15.76c-16.67,1.3-12.11-7.2-3.29-14.58,5.11-4.28,15.26-8.06,19.21-.91.32,2.1-6.71,10-8.61,11.5-1.07.84-2.15,1.97-3.65,1.8Z"/>
        <path class="cls-1" d="M693.05,241.92c1.45-3,10.11-8.13,8.42-11.64-1.71-3.55-8.57-1.93-11.28-.32-2.28,1.36-9.66,8.54-8.7,11.48l1.53,1.41,8.57.53c-4.23,1.46-14.48,1.92-11.27-5.08.25-.55,7.12-7.38,8-8.02,4.14-2.98,12.28-5.12,14.95.39.26,2.65-5.56,8.04-7.67,9.81-.82.69-1.19,1.77-2.55,1.45Z"/>
        <path class="cls-1" d="M707.62,211.32c-.54.29-7.98,8.46-8.05,9.14-.33,3.06,4.37,3.8,6.59,3.24-14.94,3.4-5.61-8.75,1.46-12.39Z"/>
        <path class="cls-1" d="M706.16,223.71c.32-.08,4.52-2.77,5.12-3.26,1.19-.98,5.82-6.12,5.84-7.3-.18-3.55-7.55-2.87-9.5-1.82,2.89-1.49,3.93-1.99,7.61-1.41,8.77,1.39-2.95,11.87-6.89,13.44-.76.3-1.5.2-2.17.35Z"/>
      </g>
    </g>
  </g>
</svg>