<?xml version="1.0" encoding="UTF-8"?>
<svg id="Layer_2" data-name="Layer 2" xmlns="http://www.w3.org/2000/svg" viewBox="0 0 77.8 67.67">
  <g id="Layer_1-2" data-name="Layer 1">
    <g>
      <path d="M0,48.18v-28.68c.63-1.46,1.78-2.55,3.4-2.85l17.3-.11L40.12.52c2.49-1.43,5.59.24,5.77,3.09v60.24c-.03,2.66-2.54,4.38-5.09,3.64-.78-.23-2.47-1.74-3.21-2.33-5.68-4.52-11.06-9.46-16.75-13.97-.27-.16-.56-.14-.86-.16-5.16-.48-11.58.67-16.58,0-1.57-.21-2.81-1.47-3.4-2.85Z"/>
      <path d="M60.86,11.64c-1.96-2.28.16-5.68,3.15-4.69,1.26.42,4.39,3.55,5.37,4.66,11.25,12.68,11.21,31.92-.09,44.55-1.11,1.24-4.4,4.55-5.94,4.71-2.26.24-3.72-1.69-3.04-3.86.28-.91,4.03-3.94,4.99-5.05,10.62-12.16,8.25-28.37-2.87-39.13-.4-.39-1.25-.82-1.57-1.19Z"/>
      <path d="M54.23,16.68c1.94-.39,3.39,1.21,4.56,2.52,6.77,7.58,7.41,18.87,1.61,27.2-1.44,2.07-5,6.82-7.65,3.63-2.15-2.58.76-4.17,2.15-5.85,4.92-5.94,4.92-14.75,0-20.68-1.17-1.41-3.13-2.32-2.82-4.46.15-1.01,1.15-2.16,2.15-2.36Z"/>
    </g>
  </g>
</svg>