<?xml version="1.0" encoding="UTF-8"?>
<svg id="Layer_2" data-name="Layer 2" xmlns="http://www.w3.org/2000/svg" viewBox="0 0 64.37 94.82">
  <defs>
    <style>
      .cls-1 {
        fill: #a7c4c9;
      }
    </style>
  </defs>
  <g id="Layer_1-2" data-name="Layer 1">
    <path class="cls-1" d="M38.21,49.91c8.72-.83,17.43-1.66,26.15-2.49-8.72-.83-17.45-1.67-26.17-2.5,5.58-6.75,11.16-13.51,16.74-20.26-6.58,5.43-13.16,10.86-19.74,16.3-1-13.65-2-27.3-3.01-40.95-1.01,13.65-2.01,27.3-3.02,40.95-6.58-5.43-13.16-10.87-19.74-16.3l16.74,20.26c-8.72.83-17.45,1.67-26.17,2.5,8.72.83,17.43,1.66,26.15,2.49-5.58,6.75-11.15,13.51-16.73,20.26,6.58-5.44,13.16-10.88,19.74-16.31,1.01,13.66,2.01,27.31,3.02,40.97l3.01-40.97,19.74,16.31c-5.58-6.75-11.15-13.51-16.73-20.26Z"/>
  </g>
</svg>