<svg width="540" height="560" viewBox="0 0 540 560" fill="none" xmlns="http://www.w3.org/2000/svg">
<path d="M7.5 294.25C7.5 293.55 7.7 293 8.1 292.6C8.5 292.2 9.05 292 9.75 292H17.85C18.55 292 19.1 292.2 19.5 292.6C19.9 293 20.1 293.55 20.1 294.25V372.4C20.1 373.1 20.3 373.65 20.7 374.05C21.1 374.45 21.65 374.65 22.35 374.65H43.2C43.9 374.65 44.45 374.85 44.85 375.25C45.25 375.65 45.45 376.2 45.45 376.9V394.9C45.45 395.6 45.25 396.15 44.85 396.55C44.45 396.95 43.9 397.15 43.2 397.15L9.75 397C9.05 397 8.5 396.8 8.1 396.4C7.7 396 7.5 395.45 7.5 394.75V294.25ZM36.3 376.6C36.3 375.9 36.5 375.4 36.9 375.1C37.3 374.8 37.85 374.65 38.55 374.65H39C39.7 374.65 40.25 374.8 40.65 375.1C41.05 375.4 41.25 375.9 41.25 376.6V394.9C41.25 395.6 41.05 396.15 40.65 396.55C40.25 396.95 39.7 397.15 39 397.15H38.55C37.85 397.15 37.3 396.95 36.9 396.55C36.5 396.15 36.3 395.6 36.3 394.9V376.6ZM12.15 294.25C12.15 293.55 12.25 293 12.45 292.6C12.75 292.2 13.05 292 13.35 292C13.65 292 13.9 292.2 14.1 292.6C14.3 293 14.4 293.55 14.4 294.25V375.1C14.4 375.8 14.3 376.35 14.1 376.75C13.9 377.15 13.65 377.35 13.35 377.35C12.55 377.35 12.15 376.6 12.15 375.1V294.25ZM67.8809 313.45C67.8809 303.65 71.7809 296.8 79.5809 292.9C87.4809 289 95.3309 289 103.131 292.9C110.931 296.8 114.831 303.65 114.831 313.45V375.55C114.831 385.45 110.881 392.35 102.981 396.25C95.1809 400.15 87.3809 400.15 79.5809 396.25C71.7809 392.35 67.8809 385.45 67.8809 375.55V313.45ZM88.7309 309.55C87.3309 309.45 86.0309 309.65 84.8309 310.15C83.7309 310.55 82.8309 311.3 82.1309 312.4C81.4309 313.5 81.0809 314.95 81.0809 316.75V371.05C81.0809 372.95 81.4309 374.55 82.1309 375.85C82.8309 377.05 83.7309 377.95 84.8309 378.55C86.0309 379.15 87.3309 379.5 88.7309 379.6H93.5309C94.9309 379.5 96.1809 379.15 97.2809 378.55C98.4809 377.95 99.4309 377.05 100.131 375.85C100.831 374.55 101.181 372.95 101.181 371.05V316.75C101.181 314.95 100.831 313.5 100.131 312.4C99.4309 311.3 98.4809 310.55 97.2809 310.15C96.1809 309.65 94.9309 309.45 93.5309 309.55H88.7309ZM107.631 307.9C110.231 308.6 111.881 314.6 112.581 325.9C113.281 337.1 113.131 348.5 112.131 360.1C111.831 364.2 111.231 367.75 110.331 370.75C109.531 373.75 108.731 375.75 107.931 376.75C107.131 377.65 106.731 377.25 106.731 375.55C106.631 367.15 106.531 358.8 106.431 350.5C106.231 336 106.181 325.2 106.281 318.1C106.381 311 106.831 307.6 107.631 307.9ZM137.344 311.95C137.344 303.05 141.294 296.7 149.194 292.9C157.194 289.1 165.094 288.95 172.894 292.45C180.794 295.95 184.744 302.45 184.744 311.95V331.15C184.744 331.85 184.544 332.4 184.144 332.8C183.744 333.2 183.194 333.4 182.494 333.4H173.044C172.344 333.4 171.794 333.2 171.394 332.8C170.994 332.4 170.794 331.85 170.794 331.15V316.3C170.794 315 170.294 313.95 169.294 313.15C168.394 312.35 167.194 311.8 165.694 311.5C164.294 311.1 162.744 310.9 161.044 310.9C159.344 310.9 157.744 311.1 156.244 311.5C154.744 311.9 153.494 312.55 152.494 313.45C151.594 314.35 151.144 315.5 151.144 316.9V371.5C151.144 373.3 151.644 374.8 152.644 376C153.644 377.1 154.944 377.85 156.544 378.25C158.144 378.65 159.894 378.8 161.794 378.7C163.394 378.7 164.894 378.45 166.294 377.95C167.694 377.35 168.794 376.5 169.594 375.4C170.494 374.2 170.944 372.7 170.944 370.9V355.3C170.944 354.6 171.144 354.05 171.544 353.65C171.944 353.25 172.494 353.05 173.194 353.05H182.644C183.344 353.05 183.894 353.25 184.294 353.65C184.694 354.05 184.894 354.6 184.894 355.3V377.35C184.894 386.15 180.894 392.3 172.894 395.8C164.994 399.3 157.094 399.3 149.194 395.8C141.294 392.3 137.344 386.15 137.344 377.35V311.95ZM177.844 333.25C176.344 333.25 175.594 332.5 175.594 331C175.594 324.8 175.494 319.75 175.294 315.85C175.094 311.85 174.644 306.7 173.944 300.4C173.844 299.5 174.044 298.9 174.544 298.6C175.044 298.2 175.494 298.35 175.894 299.05C177.094 301.65 178.244 306.15 179.344 312.55C180.444 318.95 181.194 325.1 181.594 331C181.794 332.5 181.094 333.25 179.494 333.25H177.844ZM174.244 355.6C174.244 354.9 174.444 354.35 174.844 353.95C175.244 353.45 175.794 353.2 176.494 353.2L179.194 353.35C179.894 353.35 180.444 353.55 180.844 353.95C181.244 354.35 181.444 354.9 181.444 355.6C180.144 377.3 177.544 389.75 173.644 392.95C173.144 393.45 172.594 393.65 171.994 393.55C171.394 393.35 171.144 393.05 171.244 392.65C172.244 388.55 172.944 383.8 173.344 378.4C173.844 372.9 174.144 365.3 174.244 355.6ZM207.393 294.25C207.393 293.55 207.593 293 207.993 292.6C208.393 292.2 208.943 292 209.643 292H218.943C219.643 292 220.193 292.2 220.593 292.6C220.993 293 221.193 293.55 221.193 294.25V321.55C221.093 323.85 221.143 325.8 221.343 327.4C221.643 328.9 222.043 329.65 222.543 329.65H223.443C223.643 329.65 223.793 329.65 223.893 329.65C224.093 329.65 224.293 329.65 224.493 329.65C225.193 329.65 226.043 328.75 227.043 326.95C228.043 325.05 228.693 323.55 228.993 322.45L237.243 293.95C237.343 293.35 237.643 292.9 238.143 292.6C238.643 292.2 239.193 292 239.793 292H251.193C251.993 292 252.543 292.25 252.843 292.75C253.243 293.15 253.293 293.75 252.993 294.55L237.243 338.2C236.943 339.4 236.893 340.4 237.093 341.2L254.043 394.45C254.543 396.15 253.893 397 252.093 397H239.643C238.343 397 237.543 396.35 237.243 395.05L228.993 360.7L228.543 358.45C228.243 356.65 227.893 355.15 227.493 353.95C227.093 352.75 226.593 352.15 225.993 352.15H225.093C224.793 352.15 224.543 352.15 224.343 352.15C224.143 352.15 223.893 352.15 223.593 352.15H222.843C222.043 352.15 221.543 353.2 221.343 355.3C221.243 357.3 221.193 361 221.193 366.4V394.75C221.193 395.45 220.993 396 220.593 396.4C220.193 396.8 219.643 397 218.943 397H209.643C208.943 397 208.393 396.8 207.993 396.4C207.593 396 207.393 395.45 207.393 394.75V294.25ZM238.743 368.5C238.743 367.8 239.093 367.4 239.793 367.3C240.593 367.2 241.043 367.5 241.143 368.2L247.293 394.45C247.493 395.25 247.393 395.9 246.993 396.4C246.593 396.8 246.043 397 245.343 397H240.993C240.293 397 239.743 396.8 239.343 396.4C238.943 396 238.743 395.45 238.743 394.75V368.5ZM238.743 294.25C238.743 293.55 238.943 293 239.343 292.6C239.743 292.2 240.293 292 240.993 292H244.743C245.543 292 246.093 292.25 246.393 292.75C246.693 293.15 246.743 293.75 246.543 294.55L241.143 314.35C240.943 315.15 240.493 315.55 239.793 315.55C239.093 315.45 238.743 314.95 238.743 314.05V294.25ZM272.318 294.25C272.318 293.55 272.518 293 272.918 292.6C273.318 292.2 273.868 292 274.568 292H283.718C284.418 292 284.968 292.2 285.368 292.6C285.768 293 285.968 293.55 285.968 294.25V328.45C285.968 329.15 286.168 329.7 286.568 330.1C286.968 330.5 287.518 330.7 288.218 330.7H309.668C310.368 330.7 310.918 330.5 311.318 330.1C311.718 329.7 311.918 329.15 311.918 328.45V294.25C311.918 293.55 312.118 293 312.518 292.6C312.918 292.2 313.468 292 314.168 292H323.318C324.018 292 324.568 292.2 324.968 292.6C325.368 293 325.568 293.55 325.568 294.25V394.75C325.568 395.45 325.368 396 324.968 396.4C324.568 396.8 324.018 397 323.318 397H314.168C313.468 397 312.918 396.8 312.518 396.4C312.118 396 311.918 395.45 311.918 394.75V353.95C311.918 353.25 311.718 352.7 311.318 352.3C310.918 351.9 310.368 351.7 309.668 351.7H288.218C287.518 351.7 286.968 351.9 286.568 352.3C286.168 352.7 285.968 353.25 285.968 353.95V394.75C285.968 395.45 285.768 396 285.368 396.4C284.968 396.8 284.418 397 283.718 397H274.568C273.868 397 273.318 396.8 272.918 396.4C272.518 396 272.318 395.45 272.318 394.75V294.25ZM277.568 294.25C277.568 293.55 277.718 293 278.018 292.6C278.418 292.2 278.918 292 279.518 292C280.018 292 280.418 292.2 280.718 292.6C281.118 293 281.318 293.55 281.318 294.25V394.75C281.318 396.25 280.718 397 279.518 397C278.918 397 278.418 396.8 278.018 396.4C277.718 396 277.568 395.45 277.568 394.75V294.25ZM316.418 294.25C316.418 293.55 316.618 293 317.018 292.6C317.418 292.2 317.968 292 318.668 292H319.268C319.968 292 320.518 292.2 320.918 292.6C321.318 293 321.518 293.55 321.518 294.25V394.75C321.518 395.45 321.318 396 320.918 396.4C320.518 396.8 319.968 397 319.268 397H318.668C317.968 397 317.418 396.8 317.018 396.4C316.618 396 316.418 395.45 316.418 394.75V294.25ZM348.076 294.55C348.076 293.85 348.276 293.25 348.676 292.75C349.076 292.25 349.626 292 350.326 292H382.876C383.576 292 384.126 292.2 384.526 292.6C384.926 293 385.126 293.55 385.126 294.25V311.5C385.126 312.2 384.926 312.75 384.526 313.15C384.126 313.55 383.576 313.75 382.876 313.75H364.126C363.426 313.75 362.876 313.95 362.476 314.35C362.076 314.75 361.876 315.3 361.876 316V328.15C361.876 328.85 362.076 329.4 362.476 329.8C362.876 330.2 363.426 330.4 364.126 330.4H381.976C382.676 330.4 383.226 330.6 383.626 331C384.026 331.4 384.226 331.95 384.226 332.65V349.9C384.226 350.6 384.026 351.15 383.626 351.55C383.226 351.95 382.676 352.15 381.976 352.15H364.126C363.426 352.15 362.876 352.35 362.476 352.75C362.076 353.15 361.876 353.7 361.876 354.4V373C361.876 373.7 362.076 374.25 362.476 374.65C362.876 375.05 363.426 375.25 364.126 375.25H382.876C383.576 375.25 384.126 375.45 384.526 375.85C384.926 376.25 385.126 376.8 385.126 377.5V394.75C385.126 395.45 384.926 396 384.526 396.4C384.126 396.8 383.576 397 382.876 397H350.326C349.626 397 349.076 396.8 348.676 396.4C348.276 396 348.076 395.45 348.076 394.75V294.55ZM351.826 294.25C351.826 293.55 352.026 293 352.426 292.6C352.826 292.2 353.376 292 354.076 292H354.826C355.526 292 356.076 292.2 356.476 292.6C356.876 293 357.076 293.55 357.076 294.25V311.5C357.076 312.2 356.876 312.75 356.476 313.15C356.076 313.55 355.526 313.75 354.826 313.75H354.076C353.376 313.75 352.826 313.55 352.426 313.15C352.026 312.75 351.826 312.2 351.826 311.5V294.25ZM351.376 332.8C351.376 332.1 351.576 331.55 351.976 331.15C352.376 330.75 352.926 330.55 353.626 330.55H354.376C355.076 330.55 355.626 330.75 356.026 331.15C356.426 331.55 356.626 332.1 356.626 332.8V350.05C356.626 350.75 356.426 351.3 356.026 351.7C355.626 352.1 355.076 352.3 354.376 352.3H353.626C352.926 352.3 352.376 352.1 351.976 351.7C351.576 351.3 351.376 350.75 351.376 350.05V332.8ZM351.676 377.5C351.676 376.8 351.876 376.25 352.276 375.85C352.676 375.45 353.226 375.25 353.926 375.25H354.676C355.376 375.25 355.926 375.45 356.326 375.85C356.726 376.25 356.926 376.8 356.926 377.5V394.75C356.926 395.45 356.726 396 356.326 396.4C355.926 396.8 355.376 397 354.676 397H353.926C353.226 397 352.676 396.8 352.276 396.4C351.876 396 351.676 395.45 351.676 394.75V377.5ZM407.578 294.55C407.578 293.85 407.778 293.25 408.178 292.75C408.578 292.25 409.128 292 409.828 292H442.378C443.078 292 443.628 292.2 444.028 292.6C444.428 293 444.628 293.55 444.628 294.25V311.5C444.628 312.2 444.428 312.75 444.028 313.15C443.628 313.55 443.078 313.75 442.378 313.75H423.628C422.928 313.75 422.378 313.95 421.978 314.35C421.578 314.75 421.378 315.3 421.378 316V328.15C421.378 328.85 421.578 329.4 421.978 329.8C422.378 330.2 422.928 330.4 423.628 330.4H441.478C442.178 330.4 442.728 330.6 443.128 331C443.528 331.4 443.728 331.95 443.728 332.65V349.9C443.728 350.6 443.528 351.15 443.128 351.55C442.728 351.95 442.178 352.15 441.478 352.15H423.628C422.928 352.15 422.378 352.35 421.978 352.75C421.578 353.15 421.378 353.7 421.378 354.4V373C421.378 373.7 421.578 374.25 421.978 374.65C422.378 375.05 422.928 375.25 423.628 375.25H442.378C443.078 375.25 443.628 375.45 444.028 375.85C444.428 376.25 444.628 376.8 444.628 377.5V394.75C444.628 395.45 444.428 396 444.028 396.4C443.628 396.8 443.078 397 442.378 397H409.828C409.128 397 408.578 396.8 408.178 396.4C407.778 396 407.578 395.45 407.578 394.75V294.55ZM411.328 294.25C411.328 293.55 411.528 293 411.928 292.6C412.328 292.2 412.878 292 413.578 292H414.328C415.028 292 415.578 292.2 415.978 292.6C416.378 293 416.578 293.55 416.578 294.25V311.5C416.578 312.2 416.378 312.75 415.978 313.15C415.578 313.55 415.028 313.75 414.328 313.75H413.578C412.878 313.75 412.328 313.55 411.928 313.15C411.528 312.75 411.328 312.2 411.328 311.5V294.25ZM410.878 332.8C410.878 332.1 411.078 331.55 411.478 331.15C411.878 330.75 412.428 330.55 413.128 330.55H413.878C414.578 330.55 415.128 330.75 415.528 331.15C415.928 331.55 416.128 332.1 416.128 332.8V350.05C416.128 350.75 415.928 351.3 415.528 351.7C415.128 352.1 414.578 352.3 413.878 352.3H413.128C412.428 352.3 411.878 352.1 411.478 351.7C411.078 351.3 410.878 350.75 410.878 350.05V332.8ZM411.178 377.5C411.178 376.8 411.378 376.25 411.778 375.85C412.178 375.45 412.728 375.25 413.428 375.25H414.178C414.878 375.25 415.428 375.45 415.828 375.85C416.228 376.25 416.428 376.8 416.428 377.5V394.75C416.428 395.45 416.228 396 415.828 396.4C415.428 396.8 414.878 397 414.178 397H413.428C412.728 397 412.178 396.8 411.778 396.4C411.378 396 411.178 395.45 411.178 394.75V377.5ZM467.08 294.25C467.08 293.55 467.28 293 467.68 292.6C468.08 292.2 468.63 292 469.33 292H494.23C500.83 292 505.73 293.6 508.93 296.8C512.23 300 513.88 305.55 513.88 313.45V375.55C513.88 383.55 512.03 389.05 508.33 392.05C504.63 395.05 499.93 396.7 494.23 397H469.33C468.63 397 468.08 396.8 467.68 396.4C467.28 396 467.08 395.45 467.08 394.75V294.25ZM488.08 308.5C486.68 308.7 485.38 309.15 484.18 309.85C483.08 310.45 482.13 311.4 481.33 312.7C480.63 313.9 480.28 315.4 480.28 317.2V371.65C480.28 373.55 480.63 375.15 481.33 376.45C482.13 377.65 483.08 378.55 484.18 379.15C485.38 379.75 486.68 380.05 488.08 380.05H492.88C494.28 380.05 495.53 379.75 496.63 379.15C497.83 378.55 498.78 377.65 499.48 376.45C500.28 375.15 500.68 373.55 500.68 371.65V317.2C500.68 315.4 500.28 313.9 499.48 312.7C498.78 311.4 497.83 310.45 496.63 309.85C495.53 309.15 494.28 308.7 492.88 308.5H488.08ZM7.5 423.4C7.5 422.7 7.7 422.15 8.1 421.75C8.5 421.35 9.05 421.15 9.75 421.15H10.2V421L22.05 421.15C23.35 421.15 24.2 421.75 24.6 422.95L39.3 469C39.9 470.5 40.3 471.6 40.5 472.3C40.8 473 41.25 474.1 41.85 475.6L44.85 482.65C45.75 484.75 46.9 485.85 48.3 485.95C49.8 485.95 50.95 484.85 51.75 482.65L54.3 475.75C54.8 474.35 55.15 473.3 55.35 472.6C55.65 471.9 56.05 470.85 56.55 469.45L72.15 422.95C72.55 421.75 73.4 421.15 74.7 421.15L86.55 421V421.15H87C87.7 421.15 88.25 421.35 88.65 421.75C89.05 422.15 89.25 422.7 89.25 423.4V523.75C89.25 524.45 89.05 525 88.65 525.4C88.25 525.8 87.7 526 87 526H77.7C77 526 76.45 525.8 76.05 525.4C75.65 525 75.45 524.45 75.45 523.75V489.7C75.45 488.6 75.45 487.55 75.45 486.55C75.55 481.85 75.5 477.95 75.3 474.85C75.2 471.65 74.75 470.05 73.95 470.05H72.75H72.15C71.15 470.05 70.35 470.35 69.75 470.95C69.15 471.45 68.4 473 67.5 475.6C66.6 478.2 65.5 482.5 64.2 488.5L56.4 524.2C56.1 525.4 55.25 526 53.85 526H42.9C41.5 526 40.65 525.4 40.35 524.2L31.95 488.5C30.55 482.5 29.4 478.2 28.5 475.6C27.7 473 27 471.45 26.4 470.95C25.9 470.35 25.15 470.05 24.15 470.05H22.65C21.85 470.05 21.35 471.6 21.15 474.7C21.05 477.7 21.1 481.35 21.3 485.65C21.3 486.95 21.3 488.3 21.3 489.7V523.75C21.3 524.45 21.1 525 20.7 525.4C20.3 525.8 19.75 526 19.05 526H9.75C9.05 526 8.5 525.8 8.1 525.4C7.7 525 7.5 524.45 7.5 523.75V423.4ZM8.1 425.8C8.1 424.6 8.85 424 10.35 424H21.3C22.8 424 23.55 424.6 23.55 425.8C23.55 426.4 23.35 426.9 22.95 427.3C22.55 427.6 22 427.75 21.3 427.75H10.35C9.65 427.75 9.1 427.6 8.7 427.3C8.3 426.9 8.1 426.4 8.1 425.8ZM88.65 425.8C88.65 426.4 88.45 426.9 88.05 427.3C87.65 427.6 87.1 427.75 86.4 427.75H75.45C74.75 427.75 74.2 427.6 73.8 427.3C73.4 426.9 73.2 426.4 73.2 425.8C73.2 424.6 73.95 424 75.45 424H86.4C87.9 424 88.65 424.6 88.65 425.8ZM147.23 423.1C147.43 421.7 148.23 421 149.63 421H168.53C169.93 421 170.73 421.7 170.93 423.1L186.98 523.6C187.38 525.2 186.73 526 185.03 526H175.73C174.33 526 173.53 525.3 173.33 523.9L171.08 510.25C170.88 508.85 170.08 508.15 168.68 508.15H149.48C148.08 508.15 147.28 508.85 147.08 510.25L144.83 523.9C144.63 525.3 143.83 526 142.43 526H133.13C131.53 526 130.88 525.2 131.18 523.6L147.23 423.1ZM151.13 485.2C150.83 486.8 151.48 487.6 153.08 487.6H165.08C166.68 487.6 167.33 486.8 167.03 485.2L162.98 460.15C162.88 459.55 162.73 458.65 162.53 457.45C162.43 456.15 162.38 455.5 162.38 455.5L161.93 452.8C161.83 451.8 161.38 451.05 160.58 450.55C159.78 450.05 158.93 450 158.03 450.4C157.23 450.8 156.73 451.7 156.53 453.1L155.93 456.25C155.93 456.25 155.83 456.75 155.63 457.75C155.43 458.75 155.28 459.55 155.18 460.15L151.13 485.2ZM183.53 523.15C183.73 524.15 183.63 524.9 183.23 525.4C182.93 525.8 182.13 526 180.83 526H177.83V495.7C177.83 494.5 177.88 493.9 177.98 493.9C178.08 493.8 178.23 494.4 178.43 495.7L183.53 523.15ZM229.143 423.25C229.143 422.55 229.343 422 229.743 421.6C230.143 421.2 230.693 421 231.393 421H256.893C264.393 421 269.943 423.3 273.543 427.9C277.243 432.4 279.043 440.1 278.943 451C278.843 465.4 275.543 474.7 269.043 478.9L280.743 523.45C280.943 524.25 280.843 524.9 280.443 525.4C280.143 525.8 279.593 526 278.793 526H267.843C266.543 526 265.743 525.35 265.443 524.05L256.143 486.55C255.843 485.25 255.493 484.15 255.093 483.25C254.693 482.35 254.343 481.9 254.043 481.9H253.143C252.643 481.9 252.243 481.95 251.943 482.05C251.643 482.05 251.243 482.05 250.743 482.05L246.993 482.2H245.493C244.793 482.2 244.243 482.4 243.843 482.8C243.443 483.2 243.243 483.75 243.243 484.45V523.75C243.243 524.45 243.043 525 242.643 525.4C242.243 525.8 241.693 526 240.993 526H231.393C230.693 526 230.143 525.8 229.743 525.4C229.343 525 229.143 524.45 229.143 523.75V423.25ZM252.243 439.9C250.743 439.9 249.593 439.9 248.793 439.9C248.093 439.9 246.993 439.9 245.493 439.9C244.793 440.1 244.243 440.45 243.843 440.95C243.443 441.45 243.243 442.05 243.243 442.75V459.7C243.243 460.4 243.443 461 243.843 461.5C244.243 462 244.843 462.35 245.643 462.55C247.143 462.55 248.243 462.55 248.943 462.55C249.743 462.55 250.893 462.55 252.393 462.55H254.943C255.543 462.55 255.993 462.55 256.293 462.55C256.593 462.55 257.043 462.55 257.643 462.55C259.743 462.55 261.293 460.65 262.293 456.85C263.393 452.95 263.443 449.15 262.443 445.45C261.543 441.75 259.693 439.9 256.893 439.9C256.493 439.9 256.143 439.9 255.843 439.9C255.643 439.9 255.343 439.9 254.943 439.9H252.243ZM271.893 440.2C271.893 437 272.543 437.7 273.843 442.3C275.143 446.8 275.793 452.2 275.793 458.5C275.793 464.8 274.493 470.3 271.893 475C270.993 476.6 270.543 475.75 270.543 472.45C270.543 469.15 270.743 463.7 271.143 456.1C271.643 449.6 271.893 444.3 271.893 440.2ZM322.939 423.25C322.939 422.55 323.139 422 323.539 421.6C323.939 421.2 324.489 421 325.189 421H361.039C361.739 421 362.289 421.2 362.689 421.6C363.089 422 363.289 422.55 363.289 423.25V439.75C363.289 440.45 363.089 441 362.689 441.4C362.289 441.8 361.739 442 361.039 442H351.889C351.189 442 350.639 442.2 350.239 442.6C349.839 443 349.639 443.55 349.639 444.25V523.75C349.639 524.45 349.439 525 349.039 525.4C348.639 525.8 348.089 526 347.389 526H338.839C338.139 526 337.589 525.8 337.189 525.4C336.789 525 336.589 524.45 336.589 523.75V444.25C336.589 443.55 336.389 443 335.989 442.6C335.589 442.2 335.039 442 334.339 442H325.189C324.489 442 323.939 441.8 323.539 441.4C323.139 441 322.939 440.45 322.939 439.75V423.25ZM340.339 423.25C340.339 422.55 340.539 422 340.939 421.6C341.339 421.2 341.889 421 342.589 421H346.039C346.739 421 347.289 421.2 347.689 421.6C348.089 422 348.289 422.55 348.289 423.25V440.05C348.289 440.75 348.089 441.3 347.689 441.7C347.289 442.1 346.739 442.3 346.039 442.3H342.589C341.889 442.3 341.339 442.1 340.939 441.7C340.539 441.3 340.339 440.75 340.339 440.05V423.25ZM341.089 447.55C341.089 446.85 341.239 446.3 341.539 445.9C341.939 445.5 342.439 445.3 343.039 445.3C343.639 445.3 344.089 445.5 344.389 445.9C344.789 446.3 344.989 446.85 344.989 447.55V523.75C344.989 524.45 344.789 525 344.389 525.4C344.089 525.8 343.639 526 343.039 526C342.439 526 341.939 525.8 341.539 525.4C341.239 525 341.089 524.45 341.089 523.75V447.55ZM405.229 423.25C405.229 422.55 405.429 422 405.829 421.6C406.229 421.2 406.779 421 407.479 421H416.779C417.479 421 418.029 421.2 418.429 421.6C418.829 422 419.029 422.55 419.029 423.25V523.75C419.029 524.45 418.829 525 418.429 525.4C418.029 525.8 417.479 526 416.779 526H407.479C406.779 526 406.229 525.8 405.829 525.4C405.429 525 405.229 524.45 405.229 523.75V423.25ZM407.479 423.25C407.479 422.55 407.679 422 408.079 421.6C408.479 421.2 409.029 421 409.729 421H411.679C412.379 421 412.929 421.2 413.329 421.6C413.729 422 413.929 422.55 413.929 423.25V523.75C413.929 524.45 413.729 525 413.329 525.4C412.929 525.8 412.379 526 411.679 526H409.729C409.029 526 408.479 525.8 408.079 525.4C407.679 525 407.479 524.45 407.479 523.75V423.25ZM410.629 423.25C410.629 422.55 410.829 422 411.229 421.6C411.629 421.2 412.179 421 412.879 421H414.829C415.529 421 416.079 421.2 416.479 421.6C416.879 422 417.079 422.55 417.079 423.25V523.75C417.079 524.45 416.879 525 416.479 525.4C416.079 525.8 415.529 526 414.829 526H412.879C412.179 526 411.629 525.8 411.229 525.4C410.829 525 410.629 524.45 410.629 523.75V423.25ZM465.586 423.4C465.586 422.7 465.786 422.15 466.186 421.75C466.586 421.35 467.136 421.15 467.836 421.15H468.286V421L480.136 421.15C481.436 421.15 482.286 421.75 482.686 422.95L494.986 461.35C496.486 465.95 497.586 469.35 498.286 471.55C498.986 473.75 500.036 477.05 501.436 481.45L501.736 482.35C502.636 484.95 503.186 486.25 503.386 486.25H504.286C504.586 486.25 504.736 483.25 504.736 477.25C504.736 471.15 504.736 465.85 504.736 461.35V459.25V423.4C504.736 422.7 504.936 422.15 505.336 421.75C505.736 421.35 506.286 421.15 506.986 421.15H516.286C516.986 421.15 517.536 421.35 517.936 421.75C518.336 422.15 518.536 422.7 518.536 423.4V523.75C518.536 524.45 518.336 525 517.936 525.4C517.536 525.8 516.986 526 516.286 526H503.986C502.686 526 501.836 525.4 501.436 524.2L490.036 488.5C488.336 483.3 487.086 479.45 486.286 476.95C485.486 474.45 484.286 470.7 482.686 465.7L482.386 464.8C482.086 463.8 481.686 462.9 481.186 462.1C480.786 461.2 480.436 460.75 480.136 460.75H479.686C479.486 460.75 479.386 463.7 479.386 469.6C479.386 475.5 479.386 480.95 479.386 485.95V489.7V523.75C479.386 524.45 479.186 525 478.786 525.4C478.386 525.8 477.836 526 477.136 526H467.836C467.136 526 466.586 525.8 466.186 525.4C465.786 525 465.586 524.45 465.586 523.75V423.4ZM504.736 423.85C504.736 422.65 505.336 422.05 506.536 422.05H516.436C517.936 422.05 518.686 422.65 518.686 423.85C518.686 424.45 518.486 424.95 518.086 425.35C517.686 425.65 517.136 425.8 516.436 425.8H506.536C506.036 425.8 505.586 425.65 505.186 425.35C504.886 424.95 504.736 424.45 504.736 423.85ZM466.186 423.85C466.186 422.65 466.936 422.05 468.436 422.05H479.386C480.886 422.05 481.636 422.65 481.636 423.85C481.636 424.45 481.436 424.95 481.036 425.35C480.636 425.65 480.086 425.8 479.386 425.8H468.436C467.736 425.8 467.186 425.65 466.786 425.35C466.386 424.95 466.186 424.45 466.186 423.85Z" fill="#303030"/>
<line x1="24.5" y1="1.96701e-07" x2="24.5" y2="254" stroke="#303030" stroke-width="9"/>
<line x1="81.5" y1="2.04214e-07" x2="81.5" y2="254" stroke="#303030" stroke-width="9"/>
<line x1="139.5" y1="2.03328e-07" x2="139.5" y2="254" stroke="#303030" stroke-width="9"/>
<line x1="196.5" y1="2.04214e-07" x2="196.5" y2="254" stroke="#303030" stroke-width="9"/>
<line x1="254.5" y1="2.04214e-07" x2="254.5" y2="254" stroke="#303030" stroke-width="9"/>
<line x1="311.5" y1="2.04214e-07" x2="311.5" y2="254" stroke="#303030" stroke-width="9"/>
<line x1="368.5" y1="2.04214e-07" x2="368.5" y2="254" stroke="#303030" stroke-width="9"/>
<line x1="426.5" y1="2.04214e-07" x2="426.5" y2="254" stroke="#303030" stroke-width="9"/>
<line x1="483.5" y1="2.04214e-07" x2="483.5" y2="254" stroke="#303030" stroke-width="9"/>
</svg>
