<svg width="216" height="350" viewBox="0 0 216 350" fill="none" xmlns="http://www.w3.org/2000/svg">
<path d="M0.660157 8.49999C0.326824 3.16664 2.66016 0.49997 7.66016 0.49997L55.1602 -2.38419e-05C59.8268 -2.38419e-05 62.3268 2.33331 62.6602 6.99998L74.1602 152.5C74.1602 153.167 75.4935 153.5 78.1602 153.5C80.8268 153.5 82.1602 153.167 82.1602 152.5L88.6602 74C89.3268 65.3333 90.6602 61 92.6602 61C94.6602 61 95.9935 65.3333 96.6602 74L103.16 152.5C103.16 153.5 104.493 154 107.16 154C109.827 154 111.16 153.5 111.16 152.5L122.66 6.99998C122.993 2.33331 125.493 -2.38419e-05 130.16 -2.38419e-05L177.66 0.49997C182.66 0.49997 184.994 3.16664 184.66 8.49999L137.66 343C137.327 347.667 134.66 350 129.66 350H55.6602C50.6602 350 47.9935 347.667 47.6602 343L0.660157 8.49999ZM200.16 6.99998C200.494 4.66665 201.493 2.99999 203.16 1.99998C205.16 0.999973 206.827 0.49997 208.16 0.49997C209.493 0.49997 210.993 1.16664 212.66 2.49997C214.66 3.83331 215.494 5.66665 215.16 7.99999L167.66 343C167.327 345.333 166.16 347.167 164.16 348.5C162.493 349.5 160.993 350 159.66 350C158.327 350 156.66 349.333 154.66 348C152.993 346.333 152.327 344.333 152.66 342L200.16 6.99998Z" fill="black"/>
</svg>
